<?xml version="1.0" encoding="UTF-8"?>
<svg width="17px" height="13px" viewBox="0 0 17 13" version="1.1" xmlns="http://www.w3.org/2000/svg" xmlns:xlink="http://www.w3.org/1999/xlink">
    <!-- Generator: Sketch 56.3 (81716) - https://sketch.com -->
    <title>back (2)</title>
    <desc>Created with Sketch.</desc>
    <g id="Pruebas" stroke="none" stroke-width="1" fill="none" fill-rule="evenodd">
        <g id="Headers" transform="translate(-437.000000, -4892.000000)" fill="#333333" fill-rule="nonzero">
            <g id="Group-5" transform="translate(168.000000, 4454.000000)">
                <g id="Group-7" transform="translate(269.000000, 437.000000)">
                    <g id="back-(2)" transform="translate(8.233990, 6.985222) rotate(-180.000000) translate(-8.233990, -6.985222) translate(0.233990, 0.485222)">
                        <path d="M15.1882383,5.41959404 L0.639347926,5.41959404 C0.286256735,5.41959404 0,5.70261912 0,6.05172414 C0,6.40085972 0.286256735,6.68385423 0.639347926,6.68385423 L15.1882383,6.68385423 C15.5413604,6.68385423 15.8275862,6.40085972 15.8275862,6.05172414 C15.8275862,5.70261912 15.5413604,5.41959404 15.1882383,5.41959404 Z" id="Path"></path>
                        <path d="M1.54356061,6.05172414 L6.5472727,1.10447022 C6.79695905,0.857602665 6.79695905,0.457363636 6.5472727,0.210496082 C6.29758634,-0.0363409091 5.89277728,-0.0363409091 5.64309092,0.210496082 L0.187272495,5.60472179 C-0.0624138605,5.85158934 -0.0624138605,6.25182837 0.187272495,6.49869592 L5.64309092,11.8929216 C5.76791864,12.0163707 5.93157341,12.0780799 6.09519727,12.0780799 C6.25882112,12.0780799 6.42247589,12.0163707 6.54730361,11.8929216 C6.79698996,11.6460541 6.79698996,11.245815 6.54730361,10.9989475 L1.54356061,6.05172414 Z" id="Path"></path>
                    </g>
                </g>
            </g>
        </g>
    </g>
</svg>