<?xml version="1.0" encoding="UTF-8"?>
<svg width="13px" height="12px" viewBox="0 0 13 12" version="1.1" xmlns="http://www.w3.org/2000/svg" xmlns:xlink="http://www.w3.org/1999/xlink">
    <!-- Generator: Sketch 56.3 (81716) - https://sketch.com -->
    <title>comment</title>
    <desc>Created with Sketch.</desc>
    <g id="Goals" stroke="none" stroke-width="1" fill="none" fill-rule="evenodd">
        <g id="Desktop---Partnerships-01-hover-commitments" transform="translate(-826.000000, -1805.000000)" fill="#FFFFFF" fill-rule="nonzero">
            <path d="M832.499926,1805 C828.915863,1805 826,1807.36958 826,1810.28122 C826,1811.85773 826.871198,1813.35241 828.351833,1814.3515 C828.150764,1815.10235 827.721027,1815.54447 827.719098,1815.54608 C827.496513,1815.7648 827.415195,1816.09603 827.506455,1816.41104 C827.513578,1816.43588 827.522629,1816.46013 827.533462,1816.48438 C827.670723,1816.79793 827.986497,1817 828.337587,1817 C829.761389,1817 830.936934,1816.24068 831.727556,1815.52489 C831.993768,1815.54988 832.252411,1815.56244 832.500074,1815.56244 C836.084137,1815.56244 839,1813.19374 839,1810.28122 C838.999703,1807.36958 836.083989,1805 832.499926,1805 Z M832.499926,1814.34215 C832.213533,1814.34215 831.906366,1814.32184 831.587476,1814.28137 C831.395756,1814.25872 831.202997,1814.32096 831.065737,1814.45494 C830.601573,1814.90861 829.936192,1815.42905 829.151951,1815.6596 C829.365039,1815.28221 829.577237,1814.77127 829.662858,1814.14154 C829.695801,1813.89944 829.577979,1813.66099 829.362665,1813.53592 C828.018549,1812.75717 827.247218,1811.57048 827.247218,1810.28122 C827.247218,1808.04212 829.603354,1806.22029 832.499926,1806.22029 C835.39635,1806.22029 837.752634,1808.04212 837.752634,1810.28122 C837.752634,1812.5212 835.396498,1814.34215 832.499926,1814.34215 Z" id="comment"></path>
        </g>
    </g>
</svg>