<svg xmlns="http://www.w3.org/2000/svg" width="19" height="24" viewBox="0 0 19 24">
    <g fill="#9F9F9F" fill-rule="nonzero">
        <path d="M5.68 10.505a2.142 2.142 0 0 0-.697-.371 2.572 2.572 0 0 0-.786-.124H2.405v6.08h1.014v-2.194h.753c.326 0 .626-.047.896-.14.27-.094.501-.226.693-.396.192-.17.34-.381.448-.631.107-.25.161-.53.161-.838 0-.292-.064-.554-.19-.788a1.95 1.95 0 0 0-.5-.598zm-.385 2.009a.992.992 0 0 1-.244.391.93.93 0 0 1-.334.203 1.143 1.143 0 0 1-.368.062h-.93v-2.41h.76c.26 0 .468.04.626.12a.977.977 0 0 1 .541.668 1.815 1.815 0 0 1-.05.966zM11.405 10.89a2.869 2.869 0 0 0-.99-.647c-.397-.162-.858-.243-1.382-.243H7.156v6.08h2.359c.078 0 .2-.01.363-.029.164-.019.344-.062.542-.132.197-.069.4-.172.612-.31.212-.137.402-.325.571-.565.17-.24.309-.536.419-.891.11-.355.165-.783.165-1.283 0-.363-.065-.717-.194-1.06a2.668 2.668 0 0 0-.588-.92zm-.74 3.82c-.304.43-.8.644-1.488.644H8.171V10.75h.592c.485 0 .88.062 1.184.186.304.124.545.286.722.487.178.2.297.425.36.672.061.248.092.498.092.75 0 .815-.152 1.437-.456 1.866zM13.032 16.128h1.031V13.39h2.604v-.676h-2.604v-1.914h2.866v-.751h-3.897z"/>
        <g>
            <path d="M18.566 5.043l-.318-.32-4.17-4.176-.318-.32A.78.78 0 0 0 13.21 0H1.224C.734 0 .207.379.207 1.21v21.962c0 .347.347.684.759.79.02.006.04.014.062.018.064.013.13.02.196.02h16.552c.066 0 .132-.007.196-.02.022-.004.042-.012.062-.017.412-.107.76-.444.76-.79V5.783c0-.317-.039-.552-.228-.741zm-1.245-.077h-3.484v-3.49l3.484 3.49zM1.033 23.209V1.21c0-.09.013-.383.19-.383h11.812a.638.638 0 0 0-.024.161v4.804h4.795c.056 0 .109-.01.161-.024v17.44H1.033z"/>
        </g>
    </g>
</svg>
