<?xml version="1.0" encoding="UTF-8"?>
<svg width="22px" height="22px" viewBox="0 0 22 22" version="1.1" xmlns="http://www.w3.org/2000/svg" xmlns:xlink="http://www.w3.org/1999/xlink">
    <!-- Generator: Sketch 56.3 (81716) - https://sketch.com -->
    <title>facebook-app-logo</title>
    <desc>Created with Sketch.</desc>
    <g id="Symbols" stroke="none" stroke-width="1" fill="none" fill-rule="evenodd">
        <g id="element-/-footer" transform="translate(-940.000000, -55.000000)" fill="#C4C4C4" fill-rule="nonzero">
            <g id="facebook-app-logo" transform="translate(940.000000, 55.000000)">
                <path d="M20.6937049,0.000360655738 L1.20891803,0.000360655738 C0.541704918,0.000360655738 0,0.540983607 0,1.20927869 L0,20.6940656 C0,21.3623607 0.541704918,21.9037049 1.20891803,21.9037049 L11.6989508,21.9037049 L11.6989508,13.4214426 L8.84472131,13.4214426 L8.84472131,10.1153115 L11.6989508,10.1153115 L11.6989508,7.67727869 C11.6989508,4.84865574 13.4261311,3.30757377 15.95,3.30757377 C17.16,3.30757377 18.1976066,3.39809836 18.5001967,3.43740984 L18.5001967,6.39406557 L16.7495738,6.39478689 C15.3772787,6.39478689 15.1125574,7.04721311 15.1125574,8.00403279 L15.1125574,10.1142295 L18.3865902,10.1142295 L17.9584918,13.42 L15.1121967,13.42 L15.1121967,21.902623 L20.6933443,21.902623 C21.3612787,21.902623 21.9033443,21.3605574 21.9033443,20.6940656 L21.9033443,1.20855738 C21.9029836,0.540983607 21.3616393,0.000360655738 20.6937049,0.000360655738 Z" id="Path"></path>
            </g>
        </g>
    </g>
</svg>