<svg xmlns="http://www.w3.org/2000/svg" width="17" height="17" viewBox="0 0 17 17">
    <path fill="#9F9F9F" fill-rule="nonzero" d="M15.622 11.557c.34-.444.502-.92.481-1.411a2.2 2.2 0 0 0-.45-1.223c.225-.576.312-1.482-.44-2.186-.55-.516-1.486-.747-2.782-.683-.911.043-1.673.217-1.705.224h-.003c-.173.032-.357.071-.544.114-.014-.228.024-.793.433-2.066.485-1.514.457-2.673-.09-3.448C9.947.064 9.029 0 8.759 0a.86.86 0 0 0-.67.313C7.706.77 7.75 1.618 7.8 2.009c-.457 1.258-1.74 4.344-2.824 5.2a.374.374 0 0 0-.055.05 3.829 3.829 0 0 0-.68 1.045 1.401 1.401 0 0 0-.685-.177H1.44C.644 8.127 0 8.792 0 9.606v5.776c0 .818.648 1.48 1.441 1.48h2.114c.308 0 .596-.1.831-.27l.814.099c.125.017 2.342.305 4.619.26.412.031.8.049 1.16.049.62 0 1.161-.05 1.611-.15 1.06-.23 1.785-.693 2.152-1.372.28-.519.28-1.034.235-1.361.69-.64.811-1.347.787-1.845a2.456 2.456 0 0 0-.142-.715zm-14.18 4.345a.513.513 0 0 1-.507-.52v-5.78c0-.288.23-.519.506-.519h2.114c.28 0 .506.235.506.519v5.777a.513.513 0 0 1-.506.519H1.44v.004zm13.293-4.76a.487.487 0 0 0-.062.579c0 .003.142.252.159.594.024.465-.194.878-.651 1.23a.492.492 0 0 0-.16.547c0 .004.15.473-.093.917-.232.427-.749.733-1.532.903-.627.139-1.479.164-2.525.078h-.049c-2.228.05-4.48-.248-4.504-.252h-.003l-.35-.043c.02-.1.031-.206.031-.313v-5.78a1.54 1.54 0 0 0-.066-.44c.062-.239.236-.769.645-1.22C7.13 6.676 8.65 2.407 8.717 2.222a.461.461 0 0 0 .02-.238c-.058-.398-.037-.886.046-1.031.183.003.679.057.977.48.353.5.34 1.397-.042 2.584-.582 1.81-.63 2.762-.17 3.182a.74.74 0 0 0 .756.139c.211-.05.412-.093.603-.125l.045-.01c1.063-.239 2.969-.385 3.63.234.562.526.163 1.223.118 1.298-.128.199-.09.458.083.618.004.004.368.356.385.829.014.316-.132.64-.433.96z"/>
</svg>
