<?xml version="1.0" encoding="UTF-8"?>
<svg width="214px" height="36px" viewBox="0 0 214 36" version="1.1" xmlns="http://www.w3.org/2000/svg" xmlns:xlink="http://www.w3.org/1999/xlink">
    <!-- Generator: Sketch 56.3 (81716) - https://sketch.com -->
    <title>Group 8</title>
    <desc>Created with Sketch.</desc>
    <g id="Pruebas" stroke="none" stroke-width="1" fill="none" fill-rule="evenodd">
        <g id="Headers" transform="translate(-322.000000, -4166.000000)">
            <g id="Group-8" transform="translate(323.000000, 4167.000000)">
                <path d="M7.16015625,26.6640625 L4.5,26.6640625 L4.5,34 L3.02929688,34 L3.02929688,26.6640625 L0.392578125,26.6640625 L0.392578125,25.46875 L7.16015625,25.46875 L7.16015625,26.6640625 Z M9.54492188,28.3515625 C10.0097679,27.8124973 10.5976527,27.5429688 11.3085938,27.5429688 C12.660163,27.5429688 13.345703,28.3144454 13.3652344,29.8574219 L13.3652344,34 L11.9414062,34 L11.9414062,29.9101562 C11.9414062,29.4726541 11.8466806,29.1630868 11.6572266,28.9814453 C11.4677725,28.7998038 11.189455,28.7089844 10.8222656,28.7089844 C10.2519503,28.7089844 9.82617328,28.9628881 9.54492188,29.4707031 L9.54492188,34 L8.12109375,34 L8.12109375,25 L9.54492188,25 L9.54492188,28.3515625 Z M16.3183594,34 L14.8945312,34 L14.8945312,27.6601562 L16.3183594,27.6601562 L16.3183594,34 Z M14.8066406,26.0136719 C14.8066406,25.7949208 14.8759759,25.613282 15.0146484,25.46875 C15.153321,25.324218 15.3515612,25.2519531 15.609375,25.2519531 C15.8671888,25.2519531 16.0664055,25.324218 16.2070312,25.46875 C16.347657,25.613282 16.4179688,25.7949208 16.4179688,26.0136719 C16.4179688,26.2285167 16.347657,26.4072258 16.2070312,26.5498047 C16.0664055,26.6923835 15.8671888,26.7636719 15.609375,26.7636719 C15.3515612,26.7636719 15.153321,26.6923835 15.0146484,26.5498047 C14.8759759,26.4072258 14.8066406,26.2285167 14.8066406,26.0136719 Z M21.421875,32.2773438 C21.421875,32.0234362 21.3173839,31.8300788 21.1083984,31.6972656 C20.899413,31.5644525 20.5527368,31.4472661 20.0683594,31.3457031 C19.583982,31.2441401 19.1796891,31.1152352 18.8554688,30.9589844 C18.1445277,30.6152327 17.7890625,30.1171908 17.7890625,29.4648438 C17.7890625,28.917966 18.0195289,28.4609393 18.4804688,28.09375 C18.9414086,27.7265607 19.5273402,27.5429688 20.2382812,27.5429688 C20.9960975,27.5429688 21.6083961,27.7304669 22.0751953,28.1054688 C22.5419945,28.4804706 22.7753906,28.9667939 22.7753906,29.5644531 L21.3515625,29.5644531 C21.3515625,29.2910143 21.250001,29.0634775 21.046875,28.8818359 C20.843749,28.7001944 20.5742204,28.609375 20.2382812,28.609375 C19.9257797,28.609375 19.6708994,28.6816399 19.4736328,28.8261719 C19.2763662,28.9707038 19.1777344,29.1640613 19.1777344,29.40625 C19.1777344,29.6250011 19.2695303,29.7949213 19.453125,29.9160156 C19.6367197,30.03711 20.0078097,30.1591791 20.5664062,30.2822266 C21.1250028,30.4052741 21.563475,30.551757 21.8818359,30.7216797 C22.2001969,30.8916024 22.4365227,31.0957019 22.5908203,31.3339844 C22.745118,31.5722668 22.8222656,31.8613264 22.8222656,32.2011719 C22.8222656,32.7714872 22.5859399,33.2333967 22.1132812,33.5869141 C21.6406226,33.9404315 21.0214882,34.1171875 20.2558594,34.1171875 C19.7363255,34.1171875 19.2734395,34.0234384 18.8671875,33.8359375 C18.4609355,33.6484366 18.1445324,33.3906266 17.9179688,33.0625 C17.6914051,32.7343734 17.578125,32.3808613 17.578125,32.0019531 L18.9609375,32.0019531 C18.9804688,32.3378923 19.1074207,32.5966788 19.3417969,32.7783203 C19.576173,32.9599618 19.8867168,33.0507812 20.2734375,33.0507812 C20.6484394,33.0507812 20.9335928,32.9794929 21.1289062,32.8369141 C21.3242197,32.6943352 21.421875,32.5078137 21.421875,32.2773438 Z M28.5644531,34 L27.140625,34 L27.140625,27.6601562 L28.5644531,27.6601562 L28.5644531,34 Z M27.0527344,26.0136719 C27.0527344,25.7949208 27.1220696,25.613282 27.2607422,25.46875 C27.3994148,25.324218 27.597655,25.2519531 27.8554688,25.2519531 C28.1132825,25.2519531 28.3124993,25.324218 28.453125,25.46875 C28.5937507,25.613282 28.6640625,25.7949208 28.6640625,26.0136719 C28.6640625,26.2285167 28.5937507,26.4072258 28.453125,26.5498047 C28.3124993,26.6923835 28.1132825,26.7636719 27.8554688,26.7636719 C27.597655,26.7636719 27.3994148,26.6923835 27.2607422,26.5498047 C27.1220696,26.4072258 27.0527344,26.2285167 27.0527344,26.0136719 Z M31.4355469,27.6601562 L31.4765625,28.3925781 C31.9453148,27.826169 32.5605431,27.5429688 33.3222656,27.5429688 C34.6425847,27.5429688 35.314453,28.2988206 35.3378906,29.8105469 L35.3378906,34 L33.9140625,34 L33.9140625,29.8925781 C33.9140625,29.4902324 33.8271493,29.1923838 33.6533203,28.9990234 C33.4794913,28.8056631 33.1953145,28.7089844 32.8007812,28.7089844 C32.2265596,28.7089844 31.7988295,28.9687474 31.5175781,29.4882812 L31.5175781,34 L30.09375,34 L30.09375,27.6601562 L31.4355469,27.6601562 Z M38.3027344,34 L36.8789062,34 L36.8789062,27.6601562 L38.3027344,27.6601562 L38.3027344,34 Z M36.7910156,26.0136719 C36.7910156,25.7949208 36.8603509,25.613282 36.9990234,25.46875 C37.137696,25.324218 37.3359362,25.2519531 37.59375,25.2519531 C37.8515638,25.2519531 38.0507805,25.324218 38.1914062,25.46875 C38.332032,25.613282 38.4023438,25.7949208 38.4023438,26.0136719 C38.4023438,26.2285167 38.332032,26.4072258 38.1914062,26.5498047 C38.0507805,26.6923835 37.8515638,26.7636719 37.59375,26.7636719 C37.3359362,26.7636719 37.137696,26.6923835 36.9990234,26.5498047 C36.8603509,26.4072258 36.7910156,26.2285167 36.7910156,26.0136719 Z M41.6367188,26.1191406 L41.6367188,27.6601562 L42.7558594,27.6601562 L42.7558594,28.7148438 L41.6367188,28.7148438 L41.6367188,32.2539062 C41.6367188,32.496095 41.6845698,32.6708979 41.7802734,32.7783203 C41.875977,32.8857427 42.0468738,32.9394531 42.2929688,32.9394531 C42.4570321,32.9394531 42.623046,32.9199221 42.7910156,32.8808594 L42.7910156,33.9824219 C42.4667953,34.0722661 42.1542984,34.1171875 41.8535156,34.1171875 C40.7597602,34.1171875 40.2128906,33.5136779 40.2128906,32.3066406 L40.2128906,28.7148438 L39.1699219,28.7148438 L39.1699219,27.6601562 L40.2128906,27.6601562 L40.2128906,26.1191406 L41.6367188,26.1191406 Z M45.3574219,34 L43.9335938,34 L43.9335938,27.6601562 L45.3574219,27.6601562 L45.3574219,34 Z M43.8457031,26.0136719 C43.8457031,25.7949208 43.9150384,25.613282 44.0537109,25.46875 C44.1923835,25.324218 44.3906237,25.2519531 44.6484375,25.2519531 C44.9062513,25.2519531 45.105468,25.324218 45.2460938,25.46875 C45.3867195,25.613282 45.4570312,25.7949208 45.4570312,26.0136719 C45.4570312,26.2285167 45.3867195,26.4072258 45.2460938,26.5498047 C45.105468,26.6923835 44.9062513,26.7636719 44.6484375,26.7636719 C44.3906237,26.7636719 44.1923835,26.6923835 44.0537109,26.5498047 C43.9150384,26.4072258 43.8457031,26.2285167 43.8457031,26.0136719 Z M50.6953125,34 C50.6328122,33.8789056 50.5781252,33.681642 50.53125,33.4082031 C50.0781227,33.8808617 49.5234408,34.1171875 48.8671875,34.1171875 C48.2304656,34.1171875 47.7109395,33.9355487 47.3085938,33.5722656 C46.906248,33.2089826 46.7050781,32.7597683 46.7050781,32.2246094 C46.7050781,31.5488247 46.9560522,31.0302752 47.4580078,30.6689453 C47.9599634,30.3076154 48.6777297,30.1269531 49.6113281,30.1269531 L50.484375,30.1269531 L50.484375,29.7109375 C50.484375,29.3828109 50.392579,29.1201182 50.2089844,28.9228516 C50.0253897,28.725585 49.7460956,28.6269531 49.3710938,28.6269531 C49.0468734,28.6269531 48.781251,28.708007 48.5742188,28.8701172 C48.3671865,29.0322274 48.2636719,29.23828 48.2636719,29.4882812 L46.8398438,29.4882812 C46.8398438,29.1406233 46.955077,28.8154312 47.1855469,28.5126953 C47.4160168,28.2099594 47.7294902,27.9726571 48.1259766,27.8007812 C48.5224629,27.6289054 48.9648413,27.5429688 49.453125,27.5429688 C50.1953162,27.5429688 50.7871072,27.7294903 51.2285156,28.1025391 C51.6699241,28.4755878 51.8964843,28.9999966 51.9082031,29.6757812 L51.9082031,32.5351562 C51.9082031,33.1054716 51.9882804,33.5605452 52.1484375,33.9003906 L52.1484375,34 L50.6953125,34 Z M49.1308594,32.9746094 C49.4121108,32.9746094 49.6767566,32.9062507 49.9248047,32.7695312 C50.1728528,32.6328118 50.3593744,32.4492199 50.484375,32.21875 L50.484375,31.0234375 L49.7167969,31.0234375 C49.1894505,31.0234375 48.7929701,31.1152335 48.5273438,31.2988281 C48.2617174,31.4824228 48.1289062,31.7421858 48.1289062,32.078125 C48.1289062,32.3515639 48.2197257,32.5693351 48.4013672,32.7314453 C48.5830087,32.8935555 48.8261704,32.9746094 49.1308594,32.9746094 Z M55.1835938,26.1191406 L55.1835938,27.6601562 L56.3027344,27.6601562 L56.3027344,28.7148438 L55.1835938,28.7148438 L55.1835938,32.2539062 C55.1835938,32.496095 55.2314448,32.6708979 55.3271484,32.7783203 C55.422852,32.8857427 55.5937488,32.9394531 55.8398438,32.9394531 C56.0039071,32.9394531 56.169921,32.9199221 56.3378906,32.8808594 L56.3378906,33.9824219 C56.0136703,34.0722661 55.7011734,34.1171875 55.4003906,34.1171875 C54.3066352,34.1171875 53.7597656,33.5136779 53.7597656,32.3066406 L53.7597656,28.7148438 L52.7167969,28.7148438 L52.7167969,27.6601562 L53.7597656,27.6601562 L53.7597656,26.1191406 L55.1835938,26.1191406 Z M58.9042969,34 L57.4804688,34 L57.4804688,27.6601562 L58.9042969,27.6601562 L58.9042969,34 Z M57.3925781,26.0136719 C57.3925781,25.7949208 57.4619134,25.613282 57.6005859,25.46875 C57.7392585,25.324218 57.9374987,25.2519531 58.1953125,25.2519531 C58.4531263,25.2519531 58.652343,25.324218 58.7929688,25.46875 C58.9335945,25.613282 59.0039062,25.7949208 59.0039062,26.0136719 C59.0039062,26.2285167 58.9335945,26.4072258 58.7929688,26.5498047 C58.652343,26.6923835 58.4531263,26.7636719 58.1953125,26.7636719 C57.9374987,26.7636719 57.7392585,26.6923835 57.6005859,26.5498047 C57.4619134,26.4072258 57.3925781,26.2285167 57.3925781,26.0136719 Z M62.6894531,32.1953125 L64.03125,27.6601562 L65.5019531,27.6601562 L63.3046875,34 L62.0683594,34 L59.8535156,27.6601562 L61.3300781,27.6601562 L62.6894531,32.1953125 Z M69.1816406,34.1171875 C68.2792924,34.1171875 67.5478544,33.8330107 66.9873047,33.2646484 C66.426755,32.6962862 66.1464844,31.9394579 66.1464844,30.9941406 L66.1464844,30.8183594 C66.1464844,30.1855437 66.2685535,29.6201197 66.5126953,29.1220703 C66.7568372,28.6240209 67.0996072,28.2363295 67.5410156,27.9589844 C67.9824241,27.6816392 68.4746067,27.5429688 69.0175781,27.5429688 C69.8808637,27.5429688 70.5478492,27.8183566 71.0185547,28.3691406 C71.4892602,28.9199246 71.7246094,29.6992137 71.7246094,30.7070312 L71.7246094,31.28125 L67.5820312,31.28125 C67.6250002,31.8046901 67.7998032,32.2187485 68.1064453,32.5234375 C68.4130875,32.8281265 68.7988258,32.9804688 69.2636719,32.9804688 C69.9160189,32.9804688 70.4472636,32.7167995 70.8574219,32.1894531 L71.625,32.921875 C71.3710925,33.3007831 71.0322287,33.5947255 70.6083984,33.8037109 C70.1845682,34.0126964 69.708987,34.1171875 69.1816406,34.1171875 Z M69.0117188,28.6855469 C68.6210918,28.6855469 68.3056653,28.8222643 68.0654297,29.0957031 C67.8251941,29.369142 67.6718753,29.7499976 67.6054688,30.2382812 L70.3183594,30.2382812 L70.3183594,30.1328125 C70.2871092,29.6562476 70.1601574,29.2958997 69.9375,29.0517578 C69.7148426,28.807616 69.406252,28.6855469 69.0117188,28.6855469 Z M76.3183594,34 L76.3183594,28.7148438 L75.3515625,28.7148438 L75.3515625,27.6601562 L76.3183594,27.6601562 L76.3183594,27.0800781 C76.3183594,26.3769531 76.5136699,25.8339863 76.9042969,25.4511719 C77.2949238,25.0683575 77.8417934,24.8769531 78.5449219,24.8769531 C78.7949231,24.8769531 79.0605455,24.912109 79.3417969,24.9824219 L79.3066406,26.0957031 C79.1503898,26.064453 78.968751,26.0488281 78.7617188,26.0488281 C78.0820279,26.0488281 77.7421875,26.398434 77.7421875,27.0976562 L77.7421875,27.6601562 L79.03125,27.6601562 L79.03125,28.7148438 L77.7421875,28.7148438 L77.7421875,34 L76.3183594,34 Z M83.9121094,33.3789062 C83.4941385,33.8710962 82.9003945,34.1171875 82.1308594,34.1171875 C81.4433559,34.1171875 80.9228533,33.9160176 80.5693359,33.5136719 C80.2158185,33.1113261 80.0390625,32.5293007 80.0390625,31.7675781 L80.0390625,27.6601562 L81.4628906,27.6601562 L81.4628906,31.75 C81.4628906,32.5546915 81.7968717,32.9570312 82.4648438,32.9570312 C83.1562535,32.9570312 83.6230457,32.7089869 83.8652344,32.2128906 L83.8652344,27.6601562 L85.2890625,27.6601562 L85.2890625,34 L83.9472656,34 L83.9121094,33.3789062 Z M88.2539062,34 L86.8300781,34 L86.8300781,25 L88.2539062,25 L88.2539062,34 Z M90.1816406,34 L90.1816406,28.7148438 L89.2148438,28.7148438 L89.2148438,27.6601562 L90.1816406,27.6601562 L90.1816406,27.2265625 C90.1855469,26.7304663 90.2910146,26.3046893 90.4980469,25.9492188 C90.7050792,25.5937482 90.998045,25.3261728 91.3769531,25.1464844 C91.7558613,24.966796 92.2109348,24.8769531 92.7421875,24.8769531 C93.0546891,24.8769531 93.3544908,24.9101559 93.6416016,24.9765625 C93.9287124,25.0429691 94.226561,25.1269526 94.5351562,25.2285156 L94.3183594,26.40625 C93.7792942,26.2187491 93.2871116,26.125 92.8417969,26.125 C92.408201,26.125 92.093751,26.2197256 91.8984375,26.4091797 C91.703124,26.5986338 91.6054688,26.8828106 91.6054688,27.2617188 L91.6054688,27.6601562 L92.8535156,27.6601562 L92.8535156,28.7148438 L91.6054688,28.7148438 L91.6054688,34 L90.1816406,34 Z M95.2089844,34 L93.7851562,34 L93.7851562,27.6601562 L95.2089844,27.6601562 L95.2089844,34 Z M98.3027344,34 L96.8789062,34 L96.8789062,25 L98.3027344,25 L98.3027344,34 Z M103.40625,32.2773438 C103.40625,32.0234362 103.301759,31.8300788 103.092773,31.6972656 C102.883788,31.5644525 102.537112,31.4472661 102.052734,31.3457031 C101.568357,31.2441401 101.164064,31.1152352 100.839844,30.9589844 C100.128903,30.6152327 99.7734375,30.1171908 99.7734375,29.4648438 C99.7734375,28.917966 100.003904,28.4609393 100.464844,28.09375 C100.925784,27.7265607 101.511715,27.5429688 102.222656,27.5429688 C102.980473,27.5429688 103.592771,27.7304669 104.05957,28.1054688 C104.52637,28.4804706 104.759766,28.9667939 104.759766,29.5644531 L103.335938,29.5644531 C103.335938,29.2910143 103.234376,29.0634775 103.03125,28.8818359 C102.828124,28.7001944 102.558595,28.609375 102.222656,28.609375 C101.910155,28.609375 101.655274,28.6816399 101.458008,28.8261719 C101.260741,28.9707038 101.162109,29.1640613 101.162109,29.40625 C101.162109,29.6250011 101.253905,29.7949213 101.4375,29.9160156 C101.621095,30.03711 101.992185,30.1591791 102.550781,30.2822266 C103.109378,30.4052741 103.54785,30.551757 103.866211,30.7216797 C104.184572,30.8916024 104.420898,31.0957019 104.575195,31.3339844 C104.729493,31.5722668 104.806641,31.8613264 104.806641,32.2011719 C104.806641,32.7714872 104.570315,33.2333967 104.097656,33.5869141 C103.624998,33.9404315 103.005863,34.1171875 102.240234,34.1171875 C101.720701,34.1171875 101.257815,34.0234384 100.851562,33.8359375 C100.44531,33.6484366 100.128907,33.3906266 99.9023438,33.0625 C99.6757801,32.7343734 99.5625,32.3808613 99.5625,32.0019531 L100.945312,32.0019531 C100.964844,32.3378923 101.091796,32.5966788 101.326172,32.7783203 C101.560548,32.9599618 101.871092,33.0507812 102.257812,33.0507812 C102.632814,33.0507812 102.917968,32.9794929 103.113281,32.8369141 C103.308595,32.6943352 103.40625,32.5078137 103.40625,32.2773438 Z M110.818359,26.1191406 L110.818359,27.6601562 L111.9375,27.6601562 L111.9375,28.7148438 L110.818359,28.7148438 L110.818359,32.2539062 C110.818359,32.496095 110.86621,32.6708979 110.961914,32.7783203 C111.057618,32.8857427 111.228514,32.9394531 111.474609,32.9394531 C111.638673,32.9394531 111.804687,32.9199221 111.972656,32.8808594 L111.972656,33.9824219 C111.648436,34.0722661 111.335939,34.1171875 111.035156,34.1171875 C109.941401,34.1171875 109.394531,33.5136779 109.394531,32.3066406 L109.394531,28.7148438 L108.351562,28.7148438 L108.351562,27.6601562 L109.394531,27.6601562 L109.394531,26.1191406 L110.818359,26.1191406 Z M114.427734,28.3515625 C114.89258,27.8124973 115.480465,27.5429688 116.191406,27.5429688 C117.542976,27.5429688 118.228516,28.3144454 118.248047,29.8574219 L118.248047,34 L116.824219,34 L116.824219,29.9101562 C116.824219,29.4726541 116.729493,29.1630868 116.540039,28.9814453 C116.350585,28.7998038 116.072267,28.7089844 115.705078,28.7089844 C115.134763,28.7089844 114.708986,28.9628881 114.427734,29.4707031 L114.427734,34 L113.003906,34 L113.003906,25 L114.427734,25 L114.427734,28.3515625 Z M122.478516,34.1171875 C121.576167,34.1171875 120.844729,33.8330107 120.28418,33.2646484 C119.72363,32.6962862 119.443359,31.9394579 119.443359,30.9941406 L119.443359,30.8183594 C119.443359,30.1855437 119.565428,29.6201197 119.80957,29.1220703 C120.053712,28.6240209 120.396482,28.2363295 120.837891,27.9589844 C121.279299,27.6816392 121.771482,27.5429688 122.314453,27.5429688 C123.177739,27.5429688 123.844724,27.8183566 124.31543,28.3691406 C124.786135,28.9199246 125.021484,29.6992137 125.021484,30.7070312 L125.021484,31.28125 L120.878906,31.28125 C120.921875,31.8046901 121.096678,32.2187485 121.40332,32.5234375 C121.709962,32.8281265 122.095701,32.9804688 122.560547,32.9804688 C123.212894,32.9804688 123.744139,32.7167995 124.154297,32.1894531 L124.921875,32.921875 C124.667967,33.3007831 124.329104,33.5947255 123.905273,33.8037109 C123.481443,34.0126964 123.005862,34.1171875 122.478516,34.1171875 Z M122.308594,28.6855469 C121.917967,28.6855469 121.60254,28.8222643 121.362305,29.0957031 C121.122069,29.369142 120.96875,29.7499976 120.902344,30.2382812 L123.615234,30.2382812 L123.615234,30.1328125 C123.583984,29.6562476 123.457032,29.2958997 123.234375,29.0517578 C123.011718,28.807616 122.703127,28.6855469 122.308594,28.6855469 Z M133.710938,31.8027344 C133.710938,31.4277325 133.579103,31.1386729 133.31543,30.9355469 C133.051756,30.7324209 132.576175,30.5273448 131.888672,30.3203125 C131.201168,30.1132802 130.654299,29.8828138 130.248047,29.6289062 C129.470699,29.1406226 129.082031,28.5039102 129.082031,27.71875 C129.082031,27.0312466 129.362302,26.464846 129.922852,26.0195312 C130.483401,25.5742165 131.210933,25.3515625 132.105469,25.3515625 C132.699222,25.3515625 133.228513,25.4609364 133.693359,25.6796875 C134.158205,25.8984386 134.523436,26.2099589 134.789062,26.6142578 C135.054689,27.0185567 135.1875,27.4667944 135.1875,27.9589844 L133.710938,27.9589844 C133.710938,27.5136696 133.57129,27.1650403 133.291992,26.9130859 C133.012694,26.6611316 132.613284,26.5351562 132.09375,26.5351562 C131.609373,26.5351562 131.2334,26.6386708 130.96582,26.8457031 C130.698241,27.0527354 130.564453,27.341795 130.564453,27.7128906 C130.564453,28.0253922 130.708983,28.2861318 130.998047,28.4951172 C131.287111,28.7041026 131.763669,28.9072256 132.427734,29.1044922 C133.0918,29.3017588 133.624998,29.5263659 134.027344,29.7783203 C134.42969,30.0302747 134.724608,30.3193343 134.912109,30.6455078 C135.09961,30.9716813 135.193359,31.3535134 135.193359,31.7910156 C135.193359,32.5019567 134.920901,33.0673807 134.375977,33.4873047 C133.831052,33.9072287 133.091802,34.1171875 132.158203,34.1171875 C131.541013,34.1171875 130.973635,34.0029308 130.456055,33.7744141 C129.938474,33.5458973 129.536134,33.2304708 129.249023,32.828125 C128.961913,32.4257792 128.818359,31.9570339 128.818359,31.421875 L130.300781,31.421875 C130.300781,31.9062524 130.460936,32.2812487 130.78125,32.546875 C131.101564,32.8125013 131.560544,32.9453125 132.158203,32.9453125 C132.673831,32.9453125 133.061522,32.8408214 133.321289,32.6318359 C133.581056,32.4228505 133.710938,32.1464861 133.710938,31.8027344 Z M138.416016,25.46875 L140.876953,32.0078125 L143.332031,25.46875 L145.248047,25.46875 L145.248047,34 L143.771484,34 L143.771484,31.1875 L143.917969,27.4257812 L141.398438,34 L140.337891,34 L137.824219,27.4316406 L137.970703,31.1875 L137.970703,34 L136.494141,34 L136.494141,25.46875 L138.416016,25.46875 Z M151.775391,32.0136719 L148.470703,32.0136719 L147.779297,34 L146.238281,34 L149.460938,25.46875 L150.791016,25.46875 L154.019531,34 L152.472656,34 L151.775391,32.0136719 Z M148.886719,30.8183594 L151.359375,30.8183594 L150.123047,27.2792969 L148.886719,30.8183594 Z M158.121094,30.7128906 L156.46875,30.7128906 L156.46875,34 L154.986328,34 L154.986328,25.46875 L157.986328,25.46875 C158.970708,25.46875 159.730466,25.6894509 160.265625,26.1308594 C160.800784,26.5722678 161.068359,27.2109333 161.068359,28.046875 C161.068359,28.6171904 160.930665,29.0947246 160.655273,29.4794922 C160.379881,29.8642597 159.996096,30.1601552 159.503906,30.3671875 L161.419922,33.9238281 L161.419922,34 L159.832031,34 L158.121094,30.7128906 Z M156.46875,29.5234375 L157.992188,29.5234375 C158.49219,29.5234375 158.882811,29.3974622 159.164062,29.1455078 C159.445314,28.8935534 159.585938,28.5488303 159.585938,28.1113281 C159.585938,27.6542946 159.456056,27.3007825 159.196289,27.0507812 C158.936522,26.80078 158.548831,26.671875 158.033203,26.6640625 L156.46875,26.6640625 L156.46875,29.5234375 Z M168.638672,26.6640625 L165.978516,26.6640625 L165.978516,34 L164.507812,34 L164.507812,26.6640625 L161.871094,26.6640625 L161.871094,25.46875 L168.638672,25.46875 L168.638672,26.6640625 Z M175.212891,32.9804688 C175.568361,32.9804688 175.86328,32.8769542 176.097656,32.6699219 C176.332032,32.4628896 176.457031,32.2070328 176.472656,31.9023438 L177.814453,31.9023438 C177.798828,32.296877 177.675782,32.6650374 177.445312,33.0068359 C177.214843,33.3486345 176.902346,33.6191396 176.507812,33.8183594 C176.113279,34.0175791 175.687502,34.1171875 175.230469,34.1171875 C174.343746,34.1171875 173.640628,33.830081 173.121094,33.2558594 C172.60156,32.6816378 172.341797,31.8886769 172.341797,30.8769531 L172.341797,30.7304688 C172.341797,29.7656202 172.599607,28.993167 173.115234,28.4130859 C173.630862,27.8330049 174.33398,27.5429688 175.224609,27.5429688 C175.978519,27.5429688 176.592771,27.7626931 177.067383,28.2021484 C177.541995,28.6416038 177.791016,29.2187464 177.814453,29.9335938 L176.472656,29.9335938 C176.457031,29.5703107 176.333009,29.2714855 176.100586,29.0371094 C175.868163,28.8027332 175.572267,28.6855469 175.212891,28.6855469 C174.751951,28.6855469 174.396486,28.8525374 174.146484,29.1865234 C173.896483,29.5205095 173.769531,30.0273404 173.765625,30.7070312 L173.765625,30.9355469 C173.765625,31.6230503 173.889647,32.1357405 174.137695,32.4736328 C174.385743,32.8115251 174.744138,32.9804688 175.212891,32.9804688 Z M182.208984,28.9609375 C182.021483,28.9296873 181.828126,28.9140625 181.628906,28.9140625 C180.976559,28.9140625 180.537111,29.16406 180.310547,29.6640625 L180.310547,34 L178.886719,34 L178.886719,27.6601562 L180.246094,27.6601562 L180.28125,28.3691406 C180.625002,27.8183566 181.101559,27.5429688 181.710938,27.5429688 C181.914064,27.5429688 182.082031,27.5703122 182.214844,27.625 L182.208984,28.9609375 Z M184.623047,34 L183.199219,34 L183.199219,27.6601562 L184.623047,27.6601562 L184.623047,34 Z M183.111328,26.0136719 C183.111328,25.7949208 183.180663,25.613282 183.319336,25.46875 C183.458009,25.324218 183.656249,25.2519531 183.914062,25.2519531 C184.171876,25.2519531 184.371093,25.324218 184.511719,25.46875 C184.652344,25.613282 184.722656,25.7949208 184.722656,26.0136719 C184.722656,26.2285167 184.652344,26.4072258 184.511719,26.5498047 C184.371093,26.6923835 184.171876,26.7636719 183.914062,26.7636719 C183.656249,26.7636719 183.458009,26.6923835 183.319336,26.5498047 C183.180663,26.4072258 183.111328,26.2285167 183.111328,26.0136719 Z M187.957031,26.1191406 L187.957031,27.6601562 L189.076172,27.6601562 L189.076172,28.7148438 L187.957031,28.7148438 L187.957031,32.2539062 C187.957031,32.496095 188.004882,32.6708979 188.100586,32.7783203 C188.19629,32.8857427 188.367186,32.9394531 188.613281,32.9394531 C188.777345,32.9394531 188.943359,32.9199221 189.111328,32.8808594 L189.111328,33.9824219 C188.787108,34.0722661 188.474611,34.1171875 188.173828,34.1171875 C187.080073,34.1171875 186.533203,33.5136779 186.533203,32.3066406 L186.533203,28.7148438 L185.490234,28.7148438 L185.490234,27.6601562 L186.533203,27.6601562 L186.533203,26.1191406 L187.957031,26.1191406 Z M192.955078,34.1171875 C192.05273,34.1171875 191.321292,33.8330107 190.760742,33.2646484 C190.200193,32.6962862 189.919922,31.9394579 189.919922,30.9941406 L189.919922,30.8183594 C189.919922,30.1855437 190.041991,29.6201197 190.286133,29.1220703 C190.530275,28.6240209 190.873045,28.2363295 191.314453,27.9589844 C191.755862,27.6816392 192.248044,27.5429688 192.791016,27.5429688 C193.654301,27.5429688 194.321287,27.8183566 194.791992,28.3691406 C195.262698,28.9199246 195.498047,29.6992137 195.498047,30.7070312 L195.498047,31.28125 L191.355469,31.28125 C191.398438,31.8046901 191.573241,32.2187485 191.879883,32.5234375 C192.186525,32.8281265 192.572263,32.9804688 193.037109,32.9804688 C193.689456,32.9804688 194.220701,32.7167995 194.630859,32.1894531 L195.398438,32.921875 C195.14453,33.3007831 194.805666,33.5947255 194.381836,33.8037109 C193.958006,34.0126964 193.482425,34.1171875 192.955078,34.1171875 Z M192.785156,28.6855469 C192.394529,28.6855469 192.079103,28.8222643 191.838867,29.0957031 C191.598632,29.369142 191.445313,29.7499976 191.378906,30.2382812 L194.091797,30.2382812 L194.091797,30.1328125 C194.060547,29.6562476 193.933595,29.2958997 193.710938,29.0517578 C193.48828,28.807616 193.179689,28.6855469 192.785156,28.6855469 Z M199.921875,28.9609375 C199.734374,28.9296873 199.541017,28.9140625 199.341797,28.9140625 C198.68945,28.9140625 198.250001,29.16406 198.023438,29.6640625 L198.023438,34 L196.599609,34 L196.599609,27.6601562 L197.958984,27.6601562 L197.994141,28.3691406 C198.337892,27.8183566 198.81445,27.5429688 199.423828,27.5429688 C199.626954,27.5429688 199.794921,27.5703122 199.927734,27.625 L199.921875,28.9609375 Z M202.335938,34 L200.912109,34 L200.912109,27.6601562 L202.335938,27.6601562 L202.335938,34 Z M200.824219,26.0136719 C200.824219,25.7949208 200.893554,25.613282 201.032227,25.46875 C201.170899,25.324218 201.369139,25.2519531 201.626953,25.2519531 C201.884767,25.2519531 202.083984,25.324218 202.224609,25.46875 C202.365235,25.613282 202.435547,25.7949208 202.435547,26.0136719 C202.435547,26.2285167 202.365235,26.4072258 202.224609,26.5498047 C202.083984,26.6923835 201.884767,26.7636719 201.626953,26.7636719 C201.369139,26.7636719 201.170899,26.6923835 201.032227,26.5498047 C200.893554,26.4072258 200.824219,26.2285167 200.824219,26.0136719 Z M207.673828,34 C207.611328,33.8789056 207.556641,33.681642 207.509766,33.4082031 C207.056638,33.8808617 206.501956,34.1171875 205.845703,34.1171875 C205.208981,34.1171875 204.689455,33.9355487 204.287109,33.5722656 C203.884764,33.2089826 203.683594,32.7597683 203.683594,32.2246094 C203.683594,31.5488247 203.934568,31.0302752 204.436523,30.6689453 C204.938479,30.3076154 205.656245,30.1269531 206.589844,30.1269531 L207.462891,30.1269531 L207.462891,29.7109375 C207.462891,29.3828109 207.371095,29.1201182 207.1875,28.9228516 C207.003905,28.725585 206.724611,28.6269531 206.349609,28.6269531 C206.025389,28.6269531 205.759767,28.708007 205.552734,28.8701172 C205.345702,29.0322274 205.242188,29.23828 205.242188,29.4882812 L203.818359,29.4882812 C203.818359,29.1406233 203.933593,28.8154312 204.164062,28.5126953 C204.394532,28.2099594 204.708006,27.9726571 205.104492,27.8007812 C205.500979,27.6289054 205.943357,27.5429688 206.431641,27.5429688 C207.173832,27.5429688 207.765623,27.7294903 208.207031,28.1025391 C208.64844,28.4755878 208.875,28.9999966 208.886719,29.6757812 L208.886719,32.5351562 C208.886719,33.1054716 208.966796,33.5605452 209.126953,33.9003906 L209.126953,34 L207.673828,34 Z M206.109375,32.9746094 C206.390626,32.9746094 206.655272,32.9062507 206.90332,32.7695312 C207.151368,32.6328118 207.33789,32.4492199 207.462891,32.21875 L207.462891,31.0234375 L206.695312,31.0234375 C206.167966,31.0234375 205.771486,31.1152335 205.505859,31.2988281 C205.240233,31.4824228 205.107422,31.7421858 205.107422,32.078125 C205.107422,32.3515639 205.198241,32.5693351 205.379883,32.7314453 C205.561524,32.8935555 205.804686,32.9746094 206.109375,32.9746094 Z M211.265625,32.5 C211.531251,32.5 211.736327,32.5751946 211.880859,32.7255859 C212.025391,32.8759773 212.097656,33.064452 212.097656,33.2910156 C212.097656,33.513673 212.025391,33.6982415 211.880859,33.8447266 C211.736327,33.9912117 211.531251,34.0644531 211.265625,34.0644531 C211.011717,34.0644531 210.810548,33.9921882 210.662109,33.8476562 C210.513671,33.7031243 210.439453,33.5175793 210.439453,33.2910156 C210.439453,33.064452 210.511718,32.8759773 210.65625,32.7255859 C210.800782,32.5751946 211.003905,32.5 211.265625,32.5 Z" id="ThisinitiativefulflstheSMARTcriteria." fill="#9F9F9F" fill-rule="nonzero"></path>
                <g id="Group-6">
                    <g id="Group-25">
                        <circle id="Oval" fill="#FFFFFF" cx="9.5" cy="9.5" r="9.5"></circle>
                        <circle id="Oval" stroke="#1992BA" stroke-width="1.9" fill="#FFFFFF" cx="9.5" cy="9.5" r="9.5"></circle>
                        <g id="noun_Check_1813722" transform="translate(3.166667, 2.533333)" fill="#319B47" fill-rule="nonzero" stroke="#FFFFFF" stroke-width="0.598148148">
                            <g id="Group" transform="translate(0.000000, 0.403953)">
                                <path d="M12.1590118,0.801697399 C9.94672883,2.99698454 7.58638728,5.48876357 5.37638567,7.71459061 L2.32242816,5.22510921 L1.61462824,4.64859915 C1.51889369,4.5706224 1.3782083,4.58434673 1.29934908,4.67935568 L0.144489455,6.07072108 C0.0651113654,6.16635515 0.0782894424,6.30823054 0.173923514,6.38760863 C0.174229005,6.38786219 0.174535166,6.38811495 0.174841995,6.38836689 L0.873573894,6.96210899 L4.73718526,10.1126391 L5.38218157,10.6382693 C5.47167042,10.7111969 5.60182851,10.7045815 5.68346206,10.6229564 L6.26416402,10.0423148 C8.71165046,7.61368363 11.3631488,4.77354823 13.764115,2.39102733 L14.4065829,1.74924335 C14.4945124,1.66140741 14.4945883,1.51892133 14.4067523,1.43099179 C14.4064623,1.43070149 14.4061715,1.43041198 14.40588,1.43012327 L13.1206006,0.157474368 C13.0326264,0.0703646811 12.8908111,0.0706770466 12.8032214,0.158173434 L12.1590118,0.801697399 Z" id="Path"></path>
                            </g>
                        </g>
                    </g>
                    <path d="M33.4116211,13.4202881 C33.4116211,14.5860654 32.9904827,15.5046353 32.1481934,16.1760254 C31.305904,16.8474155 30.1340407,17.1831055 28.6325684,17.1831055 C27.0456464,17.1831055 25.818852,16.9725363 24.9521484,16.5513916 L24.9521484,14.9400635 C25.5197782,15.1842053 26.1408047,15.3764641 26.8152466,15.5168457 C27.4896884,15.6572273 28.1198701,15.727417 28.7058105,15.727417 C29.7067921,15.727417 30.4605688,15.5351582 30.9671631,15.1506348 C31.4737574,14.7661114 31.7270508,14.2381625 31.7270508,13.5667725 C31.7270508,13.1212136 31.635499,12.7550063 31.4523926,12.4681396 C31.2692862,12.181273 30.9625876,11.912721 30.5322876,11.6624756 C30.1019876,11.4122302 29.4504438,11.1284196 28.5776367,10.8110352 C27.3386169,10.3593727 26.4536159,9.82684633 25.9226074,9.21343994 C25.3915989,8.60003355 25.1260986,7.80811032 25.1260986,6.83764648 C25.1260986,5.79394009 25.5182456,4.96387027 26.3025513,4.34741211 C27.0868569,3.73095395 28.1198666,3.42272949 29.4016113,3.42272949 C30.7382879,3.42272949 31.968134,3.67297113 33.0911865,4.17346191 L32.5693359,5.61999512 C31.4218693,5.14391852 30.3537647,4.90588379 29.3649902,4.90588379 C28.5715292,4.90588379 27.9505027,5.07678052 27.5018921,5.4185791 C27.0532814,5.76037769 26.8289795,6.23949887 26.8289795,6.85595703 C26.8289795,7.29541235 26.9159537,7.66009377 27.0899048,7.95001221 C27.2638559,8.23993065 27.5446148,8.50390506 27.9321899,8.74194336 C28.3197651,8.97998166 28.9285847,9.25158539 29.758667,9.5567627 C30.753545,9.92297546 31.4951147,10.2785017 31.9833984,10.6233521 C32.4716821,10.9682024 32.8317859,11.364927 33.0637207,11.8135376 C33.2956555,12.2621482 33.4116211,12.7977264 33.4116211,13.4202881 Z M42.0175781,17 L37.6047363,5.26293945 L37.5314941,5.26293945 C37.6230473,6.23950684 37.6688232,7.44493912 37.6688232,8.87927246 L37.6688232,17 L36.1124268,17 L36.1124268,3.61499023 L38.6026611,3.61499023 L42.7316895,14.5830078 L42.8049316,14.5830078 L47.0072021,3.61499023 L49.479126,3.61499023 L49.479126,17 L47.8128662,17 L47.8128662,8.76940918 C47.8128662,7.85387726 47.8555904,6.69116916 47.94104,5.28125 L47.8677979,5.28125 L43.4000244,17 L42.0175781,17 Z M61.5183105,17 L59.9069824,12.8526611 L54.5969238,12.8526611 L53.0039062,17 L51.3010254,17 L56.5286865,3.56005859 L58.0484619,3.56005859 L63.2669678,17 L61.5183105,17 Z M59.4034424,11.3603516 L57.9019775,7.30456543 L57.2611084,5.29956055 C57.078002,6.03198608 56.8857432,6.70031436 56.6843262,7.30456543 L55.1645508,11.3603516 L59.4034424,11.3603516 Z M66.791748,10.0419922 L68.7967529,10.0419922 C69.8831841,10.0419922 70.6766332,9.82837128 71.177124,9.40112305 C71.6776148,8.97387482 71.9278564,8.33911554 71.9278564,7.49682617 C71.9278564,6.6545368 71.6745631,6.03961375 71.1679688,5.65203857 C70.6613744,5.26446339 69.8404598,5.07067871 68.7052002,5.07067871 L66.791748,5.07067871 L66.791748,10.0419922 Z M66.791748,11.4702148 L66.791748,17 L65.1071777,17 L65.1071777,3.61499023 L68.7967529,3.61499023 C70.4569175,3.61499023 71.6852377,3.93084401 72.4817505,4.56256104 C73.2782633,5.19427806 73.6765137,6.14489111 73.6765137,7.41442871 C73.6765137,9.19056064 72.7823576,10.3868377 70.9940186,11.0032959 L74.6652832,17 L72.6968994,17 L69.4559326,11.4702148 L66.791748,11.4702148 Z M81.0098877,17 L79.3161621,17 L79.3161621,5.09814453 L75.1322021,5.09814453 L75.1322021,3.61499023 L85.1663818,3.61499023 L85.1663818,5.09814453 L81.0098877,5.09814453 L81.0098877,17 Z" id="SMART" fill="#1992BA" fill-rule="nonzero"></path>
                </g>
            </g>
        </g>
    </g>
</svg>