<svg xmlns="http://www.w3.org/2000/svg" width="36" height="36" viewBox="0 0 36 36">
    <g fill="none" fill-rule="evenodd">
        <path d="M0 0h36v36H0z"/>
        <circle cx="18" cy="18" r="18" fill="#CECECE"/>
        <path fill="#FFF" d="M10.728 15.49a4.83 4.83 0 0 1-1.176-1.074C9.184 13.96 9 13.537 9 13.146c0-.483.139-.886.417-1.208.278-.322.674-.483 1.19-.483h14.786c.435 0 .812.145 1.13.437.318.29.477.641.477 1.05 0 .49-.164.958-.492 1.404a4.608 4.608 0 0 1-1.226 1.144 8406.358 8406.358 0 0 0-4.7 3.021c-.067.044-.21.138-.427.284-.218.146-.399.263-.543.353-.144.09-.318.19-.522.302a3.157 3.157 0 0 1-.578.251c-.18.056-.348.084-.502.084h-.02c-.154 0-.322-.028-.502-.084a3.153 3.153 0 0 1-.578-.25 10.574 10.574 0 0 1-.522-.303c-.144-.09-.325-.207-.543-.353-.217-.146-.36-.24-.427-.284-.609-.396-1.486-.962-2.631-1.696a469.376 469.376 0 0 1-2.06-1.325zm15.267.995a5.44 5.44 0 0 0 1.005-.81v7.383c0 .409-.157.759-.472 1.05a1.612 1.612 0 0 1-1.135.437H10.607c-.442 0-.82-.145-1.135-.437A1.381 1.381 0 0 1 9 23.058v-7.382c.295.303.633.573 1.015.809 2.424 1.524 4.088 2.594 4.992 3.207.381.26.691.464.929.61.237.145.554.293.949.445.395.152.763.228 1.105.228h.02c.342 0 .71-.076 1.105-.228.395-.152.712-.3.95-.446.237-.145.547-.349.928-.609 1.139-.762 2.806-1.832 5.002-3.207z"/>
    </g>
</svg>
