<?xml version="1.0" encoding="UTF-8"?>
<svg width="33px" height="33px" viewBox="0 0 33 33" version="1.1" xmlns="http://www.w3.org/2000/svg" xmlns:xlink="http://www.w3.org/1999/xlink">
    <!-- Generator: Sketch 58 (84663) - https://sketch.com -->
    <title>user_icon_hover</title>
    <desc>Created with Sketch.</desc>
    <defs>
        <circle id="path-1" cx="15.5" cy="15.5" r="15.5"></circle>
    </defs>
    <g id="Pruebas" stroke="none" stroke-width="1" fill="none" fill-rule="evenodd">
        <g id="Common-elements" transform="translate(-211.000000, -3106.000000)">
            <g id="user_icon_hover" transform="translate(212.000000, 3107.000000)">
                <g id="Shape">
                    <mask id="mask-2" fill="white">
                        <use xlink:href="#path-1"></use>
                    </mask>
                    <use id="Mask" stroke="#00ADEF" stroke-width="1.77142857" xlink:href="#path-1"></use>
                    <path d="M23.1721367,20.2278633 C21.9903768,19.0461457 20.583776,18.1713221 19.0490943,17.6417488 C20.6927846,16.5096615 21.7726562,14.6150227 21.7726562,12.4726562 C21.7726562,9.01392207 18.9587342,6.2 15.5,6.2 C12.0412658,6.2 9.22734375,9.01392207 9.22734375,12.4726562 C9.22734375,14.6150227 10.3072154,16.5096615 11.950948,17.6417488 C10.4162664,18.1713221 9.00966563,19.0461457 7.82790566,20.2278633 C5.77861191,22.2771994 4.65,25.0018633 4.65,27.9 L6.3453125,27.9 C6.3453125,22.8520799 10.4520799,18.7453125 15.5,18.7453125 C20.5479201,18.7453125 24.6546875,22.8520799 24.6546875,27.9 L26.35,27.9 C26.35,25.0018633 25.2213881,22.2771994 23.1721367,20.2278633 Z M15.5,17.05 C12.9760611,17.05 10.9226563,14.9966375 10.9226563,12.4726562 C10.9226563,9.948675 12.9760611,7.8953125 15.5,7.8953125 C18.0239389,7.8953125 20.0773438,9.948675 20.0773438,12.4726562 C20.0773438,14.9966375 18.0239389,17.05 15.5,17.05 Z" fill="#00ADEF" fill-rule="nonzero" mask="url(#mask-2)"></path>
                </g>
            </g>
        </g>
    </g>
</svg>