<svg xmlns="http://www.w3.org/2000/svg" width="22" height="22" viewBox="0 0 22 22">
    <path fill="#9F9F9F" fill-rule="nonzero" d="M18.522 14.028a10.808 10.808 0 0 0-4.123-2.586 6.27 6.27 0 0 0 2.724-5.17A6.28 6.28 0 0 0 10.85 0a6.28 6.28 0 0 0-6.273 6.273 6.27 6.27 0 0 0 2.724 5.169 10.808 10.808 0 0 0-4.123 2.586A10.78 10.78 0 0 0 0 21.7h1.695c0-5.048 4.107-9.155 9.155-9.155 5.048 0 9.155 4.107 9.155 9.155H21.7a10.78 10.78 0 0 0-3.178-7.672zM10.85 10.85a4.583 4.583 0 0 1-4.577-4.577 4.583 4.583 0 0 1 4.577-4.578 4.583 4.583 0 0 1 4.577 4.578 4.583 4.583 0 0 1-4.577 4.577z"/>
</svg>
