<svg xmlns="http://www.w3.org/2000/svg" width="79" height="55" viewBox="0 0 79 55">
    <path fill="#FFF" fill-rule="nonzero" d="M79 29.212a6.24 6.24 0 0 1-1.686 4.28h.012l-8.138 8.344-8.15-8.345a6.24 6.24 0 0 1-1.685-4.28c0-3.352 2.232-6.062 5.406-6.062 1.581 0 3.371 1.783 4.418 2.877 1.034-1.094 2.952-2.877 4.545-2.877 3.185 0 5.278 2.722 5.278 6.063zM43.795 55h-.083a1.352 1.352 0 0 1-1.25-1.114l-4.197-24.318-6.356 11.725a1.364 1.364 0 0 1-1.839.551 1.34 1.34 0 0 1-.696-.996l-2.7-18.76-4.94 11.033c-.212.493-.708.797-1.238.81H1.276A1.346 1.346 0 0 1 .003 32.5c.035-.68.59-1.232 1.273-1.267H19.6l6.496-14.515a1.374 1.374 0 0 1 1.793-.692c.424.188.719.574.79 1.043l2.782 19.347 6.273-11.561a1.35 1.35 0 0 1 1.84-.54c.365.2.625.552.695.962l3.891 22.524L58.322.959c.212-.715.978-1.114 1.698-.903.365.106.66.364.825.704l7.452 15.371c.342.669.07 1.478-.601 1.818a1.36 1.36 0 0 1-1.828-.598c-.012-.012-.012-.035-.024-.047L59.925 5.063 45.092 54.039a1.354 1.354 0 0 1-1.297.961z"/>
</svg>
