<svg xmlns="http://www.w3.org/2000/svg" width="37" height="37" viewBox="0 0 37 37">
    <g fill="none" fill-rule="evenodd">
        <path d="M0 0h37v37H0z"/>
        <circle cx="18.5" cy="18.5" r="18.5" fill="#007BB6"/>
        <path fill="#FFF" d="M10.515 15.484h3.278v11.424h-3.278V15.484zm1.556-1.43h-.024c-1.187 0-1.956-.873-1.956-1.978 0-1.129.792-1.985 2.002-1.985 1.21 0 1.953.854 1.977 1.981 0 1.106-.767 1.983-2 1.983zM26.909 26.91h-3.717v-5.913c0-1.547-.581-2.603-1.86-2.603-.978 0-1.522.712-1.775 1.4-.095.246-.08.59-.08.934v6.182h-3.682s.047-10.473 0-11.425h3.682v1.793c.218-.784 1.394-1.903 3.272-1.903 2.33 0 4.16 1.644 4.16 5.182v6.353z"/>
    </g>
</svg>
