<svg xmlns="http://www.w3.org/2000/svg" width="19" height="21" viewBox="0 0 19 21">
    <path fill="#333" fill-rule="nonzero" d="M12.783 17.949C12.69 19.649 11.255 21 9.5 21s-3.189-1.35-3.283-3.051h-5.12C.491 17.949 0 17.468 0 16.873v-1.078c0-1.189.982-2.154 2.193-2.154V9.333c0-3.034 1.93-5.695 4.75-6.727V2.51C6.942 1.125 8.088 0 9.5 0c1.412 0 2.558 1.124 2.558 2.511v.095c2.818 1.033 4.75 3.693 4.75 6.727v4.307c1.208.001 2.192.966 2.192 2.155v1.078c0 .593-.492 1.076-1.097 1.076h-5.12zm-1.465 0H7.682c.092.907.87 1.615 1.818 1.615.947 0 1.726-.708 1.818-1.615zm6.22-1.436v-.718a.727.727 0 0 0-.731-.718c-.808 0-1.46-.642-1.46-1.437V9.333c0-2.576-1.742-4.816-4.223-5.519l-.528-.15V2.511c0-.594-.49-1.075-1.096-1.075-.604 0-1.096.482-1.096 1.075v1.153l-.528.15c-2.482.703-4.222 2.943-4.222 5.52v4.306a1.45 1.45 0 0 1-1.46 1.437.726.726 0 0 0-.732.718v.718h16.076z"/>
</svg>
