<svg xmlns="http://www.w3.org/2000/svg" width="36" height="36" viewBox="0 0 36 36">
    <g fill="none" fill-rule="evenodd">
        <path d="M0 0h36v36H0z"/>
        <circle cx="18" cy="18" r="18" fill="#00ACED"/>
        <path fill="#FFF" d="M24.976 13.783a3.69 3.69 0 0 0 1.549-2.056 6.836 6.836 0 0 1-2.239.902 3.431 3.431 0 0 0-2.573-1.174c-1.946 0-3.523 1.664-3.523 3.717 0 .291.029.575.09.847-2.93-.156-5.526-1.634-7.266-3.885a3.865 3.865 0 0 0-.477 1.87c0 1.29.622 2.427 1.568 3.095a3.399 3.399 0 0 1-1.597-.464v.045c0 1.802 1.214 3.305 2.829 3.645-.297.088-.607.131-.93.131-.227 0-.449-.022-.663-.066.448 1.477 1.75 2.553 3.293 2.582a6.843 6.843 0 0 1-5.219 1.54 9.612 9.612 0 0 0 5.404 1.67c6.484 0 10.028-5.665 10.028-10.578 0-.162-.002-.322-.009-.48A7.369 7.369 0 0 0 27 13.197a6.756 6.756 0 0 1-2.024.585z"/>
    </g>
</svg>
