<svg xmlns="http://www.w3.org/2000/svg" width="16" height="15" viewBox="0 0 16 15">
    <path fill="#333" fill-rule="nonzero" d="M2.568 0h10.864C14.848 0 16 1.108 16 2.47v7.354c0 1.362-1.152 2.47-2.568 2.47h-1.008l-.02 2.181a.528.528 0 0 1-.309.472.568.568 0 0 1-.577-.057l-3.495-2.596H2.568C1.152 12.294 0 11.186 0 9.824V2.47C0 1.108 1.152 0 2.568 0zm0 11.235H8.21c.122 0 .24.04.337.11l2.767 2.055.015-1.64a.54.54 0 0 1 .55-.525h1.553c.81 0 1.467-.633 1.467-1.411V2.47c0-.779-.658-1.412-1.467-1.412H2.568c-.81 0-1.468.633-1.468 1.412v7.353c0 .778.659 1.411 1.468 1.411z"/>
</svg>
