<?xml version="1.0" encoding="UTF-8"?>
<svg width="19px" height="24px" viewBox="0 0 19 24" version="1.1" xmlns="http://www.w3.org/2000/svg" xmlns:xlink="http://www.w3.org/1999/xlink">
    <!-- Generator: Sketch 56.3 (81716) - https://sketch.com -->
    <title>Group 4</title>
    <desc>Created with Sketch.</desc>
    <g id="Calendar" stroke="none" stroke-width="1" fill="none" fill-rule="evenodd">
        <g id="Desktop---Events---Hover-links" transform="translate(-935.000000, -1131.000000)" fill="#FFFFFF" fill-rule="nonzero">
            <g id="Group-3" transform="translate(917.000000, 1108.000000)">
                <g id="Group" transform="translate(17.000000, 23.000000)">
                    <g id="Group-4" transform="translate(0.404586, 0.000000)">
                        <path d="M6.27543961,10.5048358 C6.06952657,10.3400944 5.83702415,10.2157841 5.57793237,10.1337151 C5.31884058,10.0510427 5.056657,10.0100082 4.792,10.0100082 L3,10.0100082 L3,16.090353 L4.01472464,16.090353 L4.01472464,13.8956116 L4.7672657,13.8956116 C5.09375845,13.8956116 5.39304348,13.8491461 5.6632657,13.7556116 C5.93348792,13.6620772 6.16475362,13.529922 6.35644444,13.3597496 C6.54813527,13.1895772 6.69715942,12.9789737 6.80475362,12.7285427 C6.91172947,12.4781116 6.96552657,12.1993185 6.96552657,11.8909565 C6.96552657,11.5994909 6.90183575,11.3369909 6.77507246,11.102853 C6.64830918,10.8687151 6.48135266,10.6701806 6.27543961,10.5048358 Z M5.89082126,12.5137151 C5.82836715,12.6814737 5.74736232,12.8118185 5.64595169,12.905353 C5.54454106,12.9988875 5.43323671,13.0664737 5.31203865,13.1075082 C5.19084058,13.1485427 5.06778744,13.1696634 4.94411594,13.1696634 L4.01410628,13.1696634 L4.01410628,10.7606978 L4.77468599,10.7606978 C5.03377778,10.7606978 5.24216425,10.8005254 5.40046377,10.8801806 C5.55814493,10.9598358 5.68057971,11.0588013 5.76838647,11.1770772 C5.85557488,11.295353 5.91308213,11.4190599 5.94152657,11.5481978 C5.96935266,11.6773358 5.98357488,11.7913875 5.98357488,11.890353 C5.98357488,12.1383703 5.952657,12.3459565 5.89082126,12.5137151 Z" id="Shape"></path>
                        <path d="M12.0000127,10.8906897 C11.7378291,10.6215517 11.4082446,10.4049138 11.0106407,10.2431897 C10.6130369,10.0814655 10.1523605,10 9.62861175,10 L7.75189677,10 L7.75189677,16.0803448 L10.1103122,16.0803448 C10.1888436,16.0803448 10.3100417,16.0706897 10.4739064,16.0513793 C10.6371528,16.032069 10.8177132,15.9886207 11.0149692,15.9192241 C11.2122253,15.850431 11.4162832,15.7472414 11.6277615,15.6096552 C11.8392398,15.472069 12.0290755,15.2837931 12.1985055,15.0442241 C12.3679354,14.8046552 12.5070659,14.5077586 12.6171335,14.152931 C12.7272011,13.7981034 12.7822349,13.3702586 12.7822349,12.87 C12.7822349,12.5067241 12.7173074,12.1531034 12.5880707,11.8097414 C12.4575973,11.4669828 12.2621963,11.160431 12.0000127,10.8906897 Z M11.2604572,14.7105172 C10.9562253,15.139569 10.4603026,15.3537931 9.77268904,15.3537931 L8.76662141,15.3537931 L8.76662141,10.7500862 L9.35838952,10.7500862 C9.8431818,10.7500862 10.2376939,10.8122414 10.5419258,10.9359483 C10.8461576,11.0596552 11.0873171,11.2219828 11.2647857,11.422931 C11.4422543,11.6238793 11.5615973,11.8477586 11.6240514,12.0951724 C11.6858871,12.3425862 11.716805,12.5930172 11.716805,12.8458621 C11.716805,13.6599138 11.564689,14.282069 11.2604572,14.7105172 Z" id="Shape"></path>
                        <polygon id="Path" points="13.6274762 16.1282564 14.6588965 16.1282564 14.6588965 13.3892046 17.2627999 13.3892046 17.2627999 12.7127391 14.6588965 12.7127391 14.6588965 10.7986012 17.5243651 10.7986012 17.5243651 10.0479115 13.6274762 10.0479115"></polygon>
                        <g id="pdf" transform="translate(0.595414, -0.000000)">
                            <path d="M18.5663043,5.04289655 L18.2478478,4.72386207 L14.0781739,0.54662069 L13.7597174,0.227586207 C13.6155652,0.0831724138 13.4156522,0 13.2111957,0 L1.22384783,0 C0.733978261,0 0.206521739,0.379034483 0.206521739,1.21075862 L0.206521739,16.137931 L0.206521739,22.9808276 L0.206521739,23.1724138 C0.206521739,23.5187586 0.554304348,23.8564138 0.965695652,23.9627586 C0.986347826,23.9681379 1.00617391,23.976 1.02765217,23.9801379 C1.09208696,23.9929655 1.15776087,24 1.22384783,24 L17.7761522,24 C17.8422391,24 17.907913,23.9929655 17.9723478,23.9801379 C17.9938261,23.976 18.0136522,23.9681379 18.0343043,23.9627586 C18.4456957,23.8564138 18.7934783,23.5187586 18.7934783,23.1724138 L18.7934783,22.9808276 L18.7934783,16.137931 L18.7934783,5.784 C18.7934783,5.46662069 18.7554783,5.23241379 18.5663043,5.04289655 Z M17.3209783,4.96551724 L13.8369565,4.96551724 L13.8369565,1.47517241 L17.3209783,4.96551724 Z M1.0326087,23.2085409 L1.0326087,1.21075862 C1.0326087,1.12096552 1.04623913,0.827586207 1.22384783,0.827586207 L13.0348261,0.827586207 C13.0211957,0.879724138 13.0108696,0.933517241 13.0108696,0.98937931 L13.0108696,5.79310345 L17.8058913,5.79310345 C17.8616522,5.79310345 17.9149348,5.78275862 17.9669783,5.76910345 C17.9669783,5.77531034 17.9673913,5.7777931 17.9673913,5.784 L17.9673913,23.2085409 L1.0326087,23.2085409 Z" id="Shape"></path>
                        </g>
                    </g>
                </g>
            </g>
        </g>
    </g>
</svg>