<?xml version="1.0" encoding="UTF-8"?>
<svg width="12px" height="13px" viewBox="0 0 12 13" version="1.1" xmlns="http://www.w3.org/2000/svg" xmlns:xlink="http://www.w3.org/1999/xlink">
    <!-- Generator: Sketch 56.3 (81716) - https://sketch.com -->
    <title>like</title>
    <desc>Created with Sketch.</desc>
    <g id="Goals" stroke="none" stroke-width="1" fill="none" fill-rule="evenodd">
        <g id="Desktop---Partnerships-01-hover-commitments" transform="translate(-780.000000, -1804.000000)" fill="#FFFFFF" fill-rule="nonzero">
            <path d="M791.617287,1811.26568 C791.872538,1810.88016 792,1810.4558 792,1809.99227 C792,1809.45577 791.802295,1808.98978 791.406556,1808.59357 C791.010626,1808.19777 790.541826,1807.99991 790.00021,1807.99991 L788.62514,1807.99991 C788.875083,1807.48434 789.000274,1806.98429 789.000274,1806.5 C789.000274,1805.8906 788.908878,1805.40628 788.726743,1805.0469 C788.544416,1804.68741 788.278739,1804.42316 787.929738,1804.25382 C787.580655,1804.08455 787.187544,1804 786.750048,1804 C786.484288,1804 786.249998,1804.09634 786.046875,1804.28911 C785.822955,1804.50782 785.66148,1804.78914 785.562559,1805.1329 C785.463583,1805.47655 785.384118,1805.80602 785.324273,1806.12113 C785.264428,1806.43621 785.171883,1806.65886 785.046938,1806.78905 C784.791659,1807.06509 784.513039,1807.3985 784.21094,1807.78908 C783.684894,1808.47129 783.328067,1808.87497 783.140651,1809.00002 L781.000018,1809.00002 C780.72397,1809.00002 780.488256,1809.09781 780.292932,1809.29296 C780.09769,1809.4883 780,1809.72398 780,1810.00004 L780,1814.99984 C780,1815.2759 780.09758,1815.5115 780.292932,1815.70684 C780.488366,1815.90218 780.72397,1815.99992 781.000018,1815.99992 L783.249916,1815.99992 C783.364516,1815.99992 783.723833,1816.10406 784.328031,1816.3124 C784.968705,1816.53639 785.532513,1816.70692 786.019456,1816.82414 C786.506453,1816.94136 786.999964,1817 787.500014,1817 L788.226392,1817 L788.507803,1817 C789.242144,1817 789.833262,1816.79024 790.281238,1816.37093 C790.729051,1815.95162 790.950508,1815.38005 790.945363,1814.65611 C791.25786,1814.25505 791.414082,1813.79153 791.414082,1813.26556 C791.414082,1813.15105 791.406392,1813.03908 791.390685,1812.9296 C791.588527,1812.58078 791.687694,1812.20578 791.687694,1811.80472 C791.687612,1811.61721 791.664216,1811.43743 791.617287,1811.26568 Z M782.147464,1815.00061 L781.557542,1815.00223 C781.165375,1815.0033 780.846593,1814.68625 780.845522,1814.29408 C780.84552,1814.29344 780.845519,1814.29279 780.845519,1814.29214 L780.845519,1810.68273 C780.845519,1810.30565 781.151207,1809.99996 781.528293,1809.99996 L782.147464,1809.99996 M790.832377,1810.63324 C790.720376,1810.87278 790.581011,1810.99517 790.414364,1811.00031 C790.492461,1811.08889 790.557615,1811.2127 790.609716,1811.37141 C790.661762,1811.5303 790.687621,1811.67478 790.687621,1811.80505 C790.687621,1812.16424 790.549789,1812.47421 790.273713,1812.73454 C790.367572,1812.90112 790.414392,1813.08089 790.414392,1813.2735 C790.414392,1813.46621 790.368885,1813.65762 790.277681,1813.84768 C790.186641,1814.03758 790.062846,1814.17433 789.906652,1814.25763 C789.932675,1814.41384 789.945591,1814.55971 789.945591,1814.6951 C789.945591,1815.56483 789.445541,1815.9997 788.445413,1815.9997 L787.500369,1815.9997 C786.817911,1815.9997 785.927403,1815.80972 784.828327,1815.42943 C784.802249,1815.41904 784.726834,1815.39159 784.601753,1815.3474 C784.476672,1815.30321 784.384264,1815.27062 784.324337,1815.24985 C784.264409,1815.22887 784.173342,1815.19893 784.050861,1815.15997 C783.928407,1815.12081 783.829568,1815.09213 783.753988,1815.07399 C783.678518,1815.05582 783.592513,1815.03889 783.496247,1815.02324 C783.399925,1815.00761 783.31786,1814.99984 783.250162,1814.99984 L783.000164,1814.99984 L783.000164,1810.00023 L783.250162,1810.00023 C783.333485,1810.00023 783.425921,1809.97673 783.527496,1809.92997 C783.629044,1809.88307 783.733274,1809.81277 783.840021,1809.719 C783.946823,1809.62523 784.047002,1809.5328 784.140806,1809.4416 C784.234583,1809.35048 784.33873,1809.23591 784.453358,1809.09795 C784.567931,1808.95988 784.657767,1808.84925 784.722921,1808.7659 C784.787993,1808.68258 784.870003,1808.57576 784.968978,1808.44557 C785.067899,1808.3154 785.127854,1808.23725 785.148678,1808.21118 C785.435097,1807.85708 785.635621,1807.62011 785.750194,1807.50027 C785.963743,1807.27638 786.118678,1806.99124 786.215026,1806.64488 C786.311485,1806.29847 786.390895,1805.97165 786.453176,1805.66442 C786.51562,1805.35716 786.614705,1805.13574 786.750294,1805.00033 C787.25018,1805.00033 787.583611,1805.12266 787.75023,1805.36748 C787.916822,1805.61224 788.000164,1805.98987 788.000164,1806.50027 C788.000164,1806.80752 787.875065,1807.22546 787.625013,1807.75406 C787.37507,1808.2827 787.25018,1808.69807 787.25018,1809.00013 L790.000128,1809.00013 C790.260825,1809.00013 790.492489,1809.10033 790.69553,1809.30095 C790.898735,1809.50144 791.000447,1809.73446 791.000447,1810.00015 C791.000365,1810.18241 790.944351,1810.39338 790.832377,1810.63324 Z" id="like"></path>
        </g>
    </g>
</svg>