<?xml version="1.0" encoding="UTF-8"?>
<svg width="140px" height="60px" viewBox="0 0 140 60" version="1.1" xmlns="http://www.w3.org/2000/svg" xmlns:xlink="http://www.w3.org/1999/xlink">
    <!-- Generator: Sketch 58 (84663) - https://sketch.com -->
    <title>Group 3</title>
    <desc>Created with Sketch.</desc>
    <g id="Symbols" stroke="none" stroke-width="1" fill="none" fill-rule="evenodd">
        <g id="element-/-masthead-/-mobile" transform="translate(-75.000000, -4.000000)">
            <g id="Group-3" transform="translate(75.000000, 0.000000)">
                <rect id="Rectangle-Copy-2" fill="#333333" x="0" y="63" width="140" height="1"></rect>
                <g id="Group" transform="translate(0.000000, 0.000000)" fill-rule="nonzero">
                    <g id="logo-/-icon" fill="#00ADEF">
                        <path d="M5.79610748,17.2709091 C6.50374384,16.6990303 7.34374384,15.9964848 8.31610748,15.1632727 C8.66992566,14.8578182 8.95756203,14.5930909 9.17901657,14.3741818 C9.4069301,14.1424288 9.59678699,13.8761137 9.74156203,13.5850909 C9.92132552,13.2113993 10.0760899,12.8261892 10.2048348,12.432 L10.8361075,10.556 L10.7673802,10.556 C10.5111752,11.1849468 10.1150999,11.7472867 9.60919839,12.2003636 C9.12115181,12.6118347 8.61132433,12.9967544 8.08192566,13.3534545 C7.49900829,13.7511212 6.94601261,14.1909654 6.42738021,14.6694545 C5.8078881,15.264281 5.30236512,15.9673548 4.93574384,16.744 L4.93574384,16.6778182 C5.33113778,15.5374545 5.627259,14.5718788 5.82410748,13.7810909 C6.02095597,12.990303 6.20083475,12.2996364 6.36374384,11.7090909 C6.49601143,11.171273 6.69526597,10.652185 6.95683475,10.164 C7.2442695,9.67000528 7.63288632,9.24235329 8.09719839,8.90909091 L8.09719839,8.84290909 C6.90207231,9.1584173 5.86745571,9.90806055 5.19538021,10.9454545 C4.44982528,12.0306998 4.0577659,13.3197839 4.07283475,14.6363636 L4.07283475,19.2461818 C4.52392067,18.4895718 5.10767522,17.8204528 5.79610748,17.2709091 Z M8.90919839,11.6403636 C9.5064339,11.0261387 10.0673839,10.3776465 10.5891984,9.69818182 C11.0982893,9.04145455 11.5810772,8.4169697 12.037562,7.82472727 C12.4962034,7.23468022 13.0148622,6.69384186 13.5851984,6.21090909 L13.5190166,6.14472727 C13.0904279,6.51524292 12.5841804,6.78489366 12.037562,6.93381818 C11.3796011,7.14110602 10.7495602,7.42834308 10.161562,7.78909091 C9.40456856,8.28165926 8.75515563,8.92241335 8.25247112,9.67272727 C7.63647112,10.5212121 7.10956203,11.7820606 6.67174384,13.4552727 C7.48464415,12.9380396 8.23539046,12.3290725 8.90919839,11.6403636 Z M1.52738021,28.8578182 C1.97767447,29.5346556 2.46901942,30.1832649 2.99865293,30.8 C3.60654426,31.5265103 4.14433456,32.3089057 4.60483475,33.1367273 L4.65574384,33.1367273 C4.60280415,32.7845965 4.57811935,32.4287949 4.58192566,32.0727273 L4.58192566,31.1487273 C4.6308717,30.5540349 4.75576612,29.9680576 4.95356203,29.4050909 C5.20301657,28.5939394 5.46350142,27.6945455 5.73501657,26.7069091 C6.00653172,25.7192727 6.243259,24.7206061 6.44519839,23.7109091 C6.63847992,22.8288157 6.69684071,21.9225069 6.6182893,21.0229091 L6.55210748,21.0229091 C6.41110189,21.6158508 6.1756072,22.1822413 5.85465293,22.7003636 C5.52119839,23.2501818 5.18010748,23.8203636 4.83647112,24.4134545 C4.47578363,25.0237142 4.16507259,25.6621615 3.90738021,26.3225455 C3.63839982,27.026055 3.50370923,27.7737605 3.5102893,28.5269091 C3.52467389,28.8929024 3.57757182,29.2563624 3.66810748,29.6112727 C3.73881328,29.8824075 3.79153409,30.1579162 3.82592566,30.436 L3.75974384,30.436 C3.59504261,29.4947213 3.34803401,28.5697167 3.02156203,27.6716364 C2.687259,26.794303 2.35889536,25.982303 2.03647112,25.2356364 C1.71404687,24.4889697 1.44592566,23.8101818 1.23210748,23.1992727 C1.04322564,22.7109009 0.934906707,22.1950965 0.911380207,21.672 C0.908059966,21.3202229 0.922502592,20.9685024 0.954652935,20.6181818 C0.986103798,20.2899365 1.00054735,19.9602836 0.997925662,19.6305455 L0.926652935,19.6305455 C0.719571458,20.1908033 0.542830381,20.761813 0.397198389,21.3410909 C0.202412934,22.0306756 0.0971849821,22.7424614 0.0841074802,23.4589091 C0.0524889282,24.5366156 0.184661406,25.6128772 0.47610748,26.6509091 C0.724629226,27.4308947 1.07830899,28.1733653 1.52738021,28.8578182 Z M13.5113802,46.6989091 C14.0809927,46.7522251 14.6548014,46.7411247 15.2219257,46.6658182 C15.5273802,46.6225455 15.9219257,46.5589091 16.405562,46.4698182 C16.8891984,46.3807273 17.5128348,46.2381818 18.2790166,46.0396364 C19.0451984,45.8410909 20.0608348,45.5916364 21.333562,45.276 C20.4986529,45.0570909 19.7757438,44.8509091 19.1622893,44.6523636 C18.4715316,44.4116414 17.8429178,44.020388 17.3219257,43.5069091 C16.5761075,42.8527273 15.8302893,42.1730909 15.0844711,41.4705455 C14.5041075,40.9258182 13.8931984,40.4167273 13.3026529,39.8821818 C13.1346529,39.732 12.2717438,38.9683636 12.0299257,38.7163636 L11.9637438,38.7850909 C12.0630166,38.9429091 12.8750166,40.5669091 12.8750166,40.5669091 C12.8750166,40.5669091 13.0022893,40.7425455 13.0531984,40.8367273 C13.2738044,41.2270303 13.4901681,41.6190303 13.7022893,42.0127273 C13.7862893,42.168 13.8677438,42.3232727 13.9568348,42.4810909 C14.2144102,42.9861589 14.5887751,43.4224816 15.0488348,43.7538182 C15.6071378,44.2781818 16.5294408,44.7372121 17.8157438,45.1309091 L17.8157438,45.1945455 C17.2557438,45.108 16.7839863,45.0316364 16.4004711,44.9654545 C16.013562,44.9018182 15.6597438,44.8483636 15.3390166,44.8025455 C15.0182893,44.7567273 14.6950166,44.7261818 14.3717438,44.7058182 C13.9797438,44.6778182 13.577562,44.6574545 13.1881075,44.5963636 C12.877562,44.5505455 12.5746529,44.492 12.261562,44.4563636 L11.3477438,44.352 L10.8742893,44.2985455 C10.3162114,44.2413129 9.76316815,44.1426159 9.21974384,44.0032727 C8.69615598,43.8663381 8.19475254,43.6554915 7.73065293,43.3770909 C7.16086963,43.0282076 6.62934246,42.6203906 6.14483475,42.1603636 L6.07865293,42.2265455 C6.33356803,42.6722113 6.63290986,43.0909487 6.97210748,43.4763636 C7.39240567,43.9613744 7.85776262,44.4054238 8.36192566,44.8025455 C8.9539693,45.2726481 9.61065461,45.6550001 10.3117438,45.9378182 C11.1398258,46.2712868 12.0072714,46.4971306 12.8928348,46.6098182 L13.5113802,46.6989091 Z M3.24301657,26.0807273 L3.32701657,26.0807273 C3.36398052,25.7249556 3.42866187,25.3726125 3.52047112,25.0269091 C3.64296548,24.6441171 3.80594835,24.2754857 4.00665293,23.9272727 C4.31644841,23.3818763 4.65636835,22.8541506 5.02483475,22.3465455 C5.46010748,21.7305455 6.04301657,20.8981818 6.78119839,19.8443636 C7.23981113,19.1365236 7.59067451,18.3644526 7.8222893,17.5534545 C8.08192566,16.6744242 8.25586506,16.0380606 8.34410748,15.6443636 L8.27792566,15.6443636 C8.20337507,15.8421902 8.10508002,16.0302329 7.98519839,16.2043636 C7.87574384,16.3570909 7.73065293,16.5327273 7.56265293,16.7312727 C7.39465293,16.9298182 7.1502893,17.1385455 6.87283475,17.4032727 C6.59538021,17.668 6.21356203,18.0167273 5.73501657,18.4545455 C4.86956203,19.2453333 4.30616809,19.9699394 4.04483475,20.6283636 C3.77005675,21.3333588 3.55297977,22.0595026 3.39574384,22.7996364 L3.32956203,22.7996364 C3.35756203,22.4483636 3.37792566,22.1072727 3.39319839,21.7814545 C3.40847112,21.4556364 3.41356203,21.0178182 3.41356203,20.5087273 C3.41356203,19.852 3.3702893,19.0832727 3.28883475,18.2050909 C3.20738021,17.3269091 3.16410748,16.1865455 3.16410748,14.7814545 C3.16084014,14.3508311 3.24753932,13.9242711 3.41865293,13.5290909 C3.59174384,13.1345455 3.74447112,12.7654545 3.87174384,12.4116364 L3.8182893,12.4116364 C2.99574591,13.3967452 2.35063524,14.5172912 1.91174384,15.7232727 C1.58289947,16.7084537 1.41110208,17.739238 1.40265293,18.7778182 C1.41258554,19.9646503 1.64573204,21.1390178 2.08992566,22.2396364 C2.56928268,23.4927912 2.95387872,24.7801669 3.24047112,26.0909091 L3.24301657,26.0807273 Z M10.1157438,43.1352727 L12.8673802,43.736 L14.2979257,44.0643636 C13.7888348,43.6367273 12.8979257,42.2112727 12.8979257,42.2112727 C12.5465872,41.6408591 12.2581145,41.0340421 12.037562,40.4014545 C11.7728348,39.6785455 11.3995014,38.724 10.917562,37.5378182 C10.797148,37.1775975 10.6534513,36.8255829 10.4873802,36.484 C10.3321075,36.1785455 10.1564711,35.8603636 9.95792566,35.5294545 C9.75938021,35.1985455 9.51756203,34.8294545 9.23247112,34.412 C8.94738021,33.9945455 8.58083475,33.4803636 8.14047112,32.8643636 L8.07683475,32.9305455 C8.20665293,33.3683636 8.39247112,34.16 8.6342893,35.3003636 C8.87610748,36.4407273 9.10519839,37.5174545 9.32410748,38.5254545 C9.45823738,39.2756414 9.76209989,39.9852343 10.2124711,40.6 C10.7415154,41.3112212 11.3476271,41.9617241 12.0197438,42.5396364 L11.953562,42.6083636 C11.6430166,42.5192727 11.1161075,42.168 10.3651984,41.5545455 C9.63795061,40.9526665 8.83844071,40.4438875 7.98519839,40.04 C6.62849842,39.3859639 5.31339919,38.6489303 4.04738021,37.8330909 C3.09097574,37.1964961 2.33947352,36.2964617 1.88374384,35.2418182 L1.81756203,35.308 C2.06537574,36.3565598 2.48327193,37.357447 3.05465293,38.2709091 C3.5911009,39.1295466 4.24963645,39.9055553 5.00956203,40.5745455 C5.75292903,41.2265019 6.57775542,41.7792383 7.46338021,42.2189091 C8.29799218,42.6414429 9.18465945,42.9521188 10.1004711,43.1429091 L10.1157438,43.1352727 Z M3.94301657,36.3618182 L8.80483475,39.5869091 C8.59101657,39.145697 8.40944081,38.7282424 8.26010748,38.3345455 C8.09918007,37.9085809 7.98066678,37.4677797 7.9062893,37.0185455 C7.81974384,36.5349091 7.74422869,35.9978182 7.67974384,35.4072727 C7.61610748,34.8141818 7.5422893,34.0989091 7.45574384,33.2665455 C7.28604687,31.8207273 7.13586506,30.7015758 7.00519839,29.9090909 C6.85193155,29.0325955 6.6158432,28.1726202 6.30010748,27.3407273 L6.23392566,27.3407273 C6.23988631,27.9793684 6.20673335,28.6177752 6.13465293,29.2523636 C6.0771908,29.7395662 5.99220648,30.223127 5.88010748,30.7007273 C5.77065293,31.1385455 5.68156203,31.5432727 5.62556203,31.9174545 C5.55578067,32.3380343 5.52256559,32.7638687 5.5262893,33.1901818 C5.56022899,33.8351448 5.70398965,34.4695856 5.95138021,35.0661818 C6.17892009,35.7077608 6.44672513,36.3343396 6.75319839,36.9421818 L6.68701657,37.0083636 C6.04835697,35.9636618 5.31104709,34.9825709 4.48519839,34.0785455 C3.7622893,33.3115152 3.10556203,32.6098182 2.51501657,31.9734545 C1.96328608,31.3881411 1.45777096,30.7609279 1.00301657,30.0974545 C0.553884944,29.4052708 0.267554564,28.6202556 0.165562026,27.8014545 C0.112976105,28.007837 0.0713421997,28.2168562 0.0408347529,28.4276364 C0.0126646122,28.6351576 -0.00094440647,28.8443963 5.08727271e-05,29.0538182 C0.00409349635,29.8273722 0.137448816,30.5948105 0.394652935,31.3243636 C0.646683914,32.0706506 0.976881421,32.7882116 1.37974384,33.4650909 C1.74529936,34.0869494 2.17162828,34.6710201 2.65247112,35.2087273 C3.03525635,35.6430553 3.46850087,36.0301554 3.94301657,36.3618182 L3.94301657,36.3618182 Z M43.9524711,7.83236364 C44.4140469,8.42630303 44.8959863,9.05163636 45.3982893,9.70836364 C45.9222764,10.3852442 46.4831248,11.0327691 47.0782893,11.648 C47.7523755,12.3349259 48.5031108,12.942176 49.3157438,13.4578182 C48.8779257,11.7829091 48.3518651,10.5212121 47.737562,9.67272727 C47.233696,8.92478845 46.584439,8.28591955 45.8284711,7.79418182 C45.2399727,7.43437477 44.6100499,7.1471915 43.9524711,6.93890909 C43.4057422,6.7883428 42.8990099,6.51889682 42.4684711,6.14981818 L42.4022893,6.216 C42.9735576,6.69969318 43.4930693,7.24138436 43.9524711,7.83236364 L43.9524711,7.83236364 Z M48.2797438,43.4101818 C47.8143524,43.6872107 47.3121866,43.8971606 46.7881075,44.0338182 C46.2444893,44.1728302 45.6915331,44.2723624 45.133562,44.3316364 L44.6626529,44.3825455 L43.7488348,44.4869091 C43.4357438,44.5250909 43.1328348,44.5810909 42.8222893,44.6269091 C42.4328348,44.688 42.0306529,44.7083636 41.6361075,44.7363636 C41.3153802,44.7567273 40.9946529,44.7898182 40.6713802,44.8330909 C40.3481075,44.8763636 39.9968348,44.9323636 39.6099257,44.996 C39.2230166,45.0596364 38.7546529,45.1385455 38.1946529,45.2250909 L38.1946529,45.1614545 C39.4826529,44.7677576 40.404956,44.3087273 40.961562,43.7843636 C41.4194677,43.4506884 41.7933477,43.0149308 42.053562,42.5116364 C42.1350166,42.3563636 42.2164711,42.1985455 42.3081075,42.0432727 C42.5193802,41.6487273 42.7357438,41.2592727 42.9546529,40.8672727 C43.0081075,40.7730909 43.1353802,40.5974545 43.1353802,40.5974545 C43.1353802,40.5974545 43.9448348,38.9683636 44.0466529,38.8156364 L43.9804711,38.7469091 C43.7259257,39.0014545 42.865562,39.7650909 42.7077438,39.9127273 C42.1197438,40.4472727 41.5062893,40.9563636 40.9259257,41.5010909 C40.1826529,42.2019394 39.4376832,42.8807273 38.6910166,43.5374545 C38.1682326,44.0505096 37.5390936,44.442418 36.8481075,44.6854545 C36.2371984,44.8814545 35.5117438,45.0876364 34.6793802,45.3065455 C35.9521075,45.613697 36.9702893,45.8682424 37.7339257,46.0701818 C38.497562,46.2687273 39.1262893,46.4112727 39.6099257,46.5003636 C40.093562,46.5894545 40.4881075,46.6530909 40.793562,46.6963636 C41.1198365,46.7427612 41.4491043,46.7648825 41.7786529,46.7625455 C42.0208798,46.7640245 42.2630212,46.7529795 42.5041075,46.7294545 C42.7128348,46.7116364 43.1277438,46.6632727 43.1277438,46.6632727 C44.013425,46.5511957 44.8809478,46.3253318 45.7088348,45.9912727 C46.4110033,45.7090582 47.0686126,45.3266674 47.6611984,44.856 C48.1653614,44.4588783 48.6307184,44.0148289 49.0510166,43.5298182 C49.3885757,43.1431047 49.6877972,42.7245357 49.9444711,42.28 L49.8782893,42.2138182 C49.3842978,42.6664831 48.8452427,43.0673627 48.269562,43.4101818 L48.2797438,43.4101818 Z M51.9681075,37.8483636 C50.7020885,38.664203 49.3869893,39.4012367 48.0302893,40.0552727 C47.1765667,40.4597158 46.3762808,40.9684445 45.6477438,41.5698182 C44.8993802,42.1858182 44.3750166,42.5345455 44.0619257,42.6210909 L43.9957438,42.5574545 C44.6672996,41.9780162 45.2733406,41.3267356 45.8030166,40.6152727 C46.2537818,40.0007319 46.5576849,39.2910441 46.6913802,38.5407273 C46.9102893,37.5327273 47.1402287,36.457697 47.3811984,35.3156364 C47.6357438,34.1752727 47.8088348,33.3836364 47.9386529,32.9458182 L47.8724711,32.8796364 C47.4321075,33.4956364 47.0706529,34.0098182 46.7830166,34.4272727 C46.4953802,34.8447273 46.2561075,35.2163636 46.057562,35.5447273 C45.8590166,35.8730909 45.6833802,36.1938182 45.5281075,36.4992727 C45.3609584,36.8403732 45.217232,37.1924604 45.0979257,37.5530909 C44.6142893,38.7409697 44.2401075,39.6955152 43.9753802,40.4167273 C43.7559009,41.049755 43.4673738,41.6566862 43.1150166,42.2265455 C43.1150166,42.2265455 42.2241075,43.652 41.717562,44.0796364 L43.1481075,43.7512727 L45.8997438,43.1505455 C46.8202438,42.9619968 47.7114086,42.6512448 48.549562,42.2265455 C49.4357103,41.7877777 50.2606494,41.2349657 51.0033802,40.5821818 C51.7617876,39.9124073 52.4193774,39.1365028 52.9557438,38.2785455 C53.5245466,37.3649347 53.9390591,36.3639127 54.1826529,35.3156364 L54.1164711,35.2494545 C53.6624904,36.3057002 52.9128959,37.208219 51.9579257,37.8483636 L51.9681075,37.8483636 Z M53.9637438,25.2432727 C53.6430166,25.9882424 53.3222893,26.8002424 53.001562,27.6792727 C52.6754081,28.5776457 52.4275753,29.5025476 52.2608348,30.4436364 L52.1819257,30.4436364 C52.2164276,30.1664087 52.2691477,29.8917539 52.3397438,29.6214545 C52.4312553,29.2658754 52.4841671,28.901467 52.497562,28.5345455 C52.5041421,27.7813968 52.3694515,27.0336914 52.1004711,26.3301818 C51.8451964,25.6691825 51.5352752,25.0306086 51.1739257,24.4210909 C50.8201075,23.828 50.4764711,23.2552727 50.1557438,22.708 C49.8359579,22.1892786 49.6005436,21.6230812 49.4582893,21.0305455 L49.3819257,21.0305455 C49.3024552,21.9335129 49.3608199,22.8433158 49.5550166,23.7287273 C49.7586529,24.7469091 49.9953802,25.7455758 50.2651984,26.7247273 C50.5350166,27.7038788 50.7946529,28.6032727 51.0441075,29.4229091 C51.2433958,29.9855841 51.3691638,30.5716457 51.4182893,31.1665455 L51.4182893,32.0905455 C51.418052,32.4426364 51.3899644,32.7941569 51.3342893,33.1418182 L51.3826529,33.1418182 C51.8440238,32.3145366 52.3817596,31.5322206 52.9888348,30.8050909 C53.5232791,30.1899725 54.0189046,29.5421737 54.4728348,28.8654545 C54.9210176,28.1808614 55.2738381,27.438397 55.521562,26.6585455 C55.8130081,25.6205136 55.9451806,24.544252 55.913562,23.4665455 C55.8998882,22.7533106 55.7937916,22.0448591 55.5979257,21.3589091 C55.453503,20.7792929 55.2767416,20.2082174 55.0684711,19.6483636 L54.9819257,19.6483636 C54.9785592,19.977209 54.992153,20.3060093 55.0226529,20.6334545 C55.0538037,20.9838277 55.0673965,21.3355405 55.0633802,21.6872727 C55.0412212,22.2105415 54.9328561,22.726566 54.7426529,23.2145455 C54.5356226,23.8220606 54.2759863,24.498303 53.9637438,25.2432727 Z M51.9630166,20.636 C51.7033802,19.9775758 51.1391378,19.2529697 50.2702893,18.4621818 L49.1273802,17.4109091 C48.8473802,17.1563636 48.6182893,16.9145455 48.4451984,16.7185455 C48.2721075,16.5225455 48.1321075,16.3443636 48.0226529,16.1916364 C47.9027713,16.0175056 47.8044762,15.8294629 47.7299257,15.6316364 L47.6637438,15.6316364 C47.7502893,16.0261818 47.9182893,16.6625455 48.185562,17.5407273 C48.4129431,18.3587157 48.7603573,19.1384677 49.2164711,19.8545455 C49.9546529,20.9083636 50.540956,21.7424242 50.9753802,22.3567273 C51.3429454,22.8649485 51.6828329,23.3926239 51.993562,23.9374545 C52.1956451,24.2912171 52.3586637,24.6659038 52.4797438,25.0549091 C52.5737383,25.4002416 52.6392907,25.7526926 52.6757438,26.1087273 L52.7571984,26.1087273 C53.0457851,24.7982187 53.4312067,23.5109277 53.9102893,22.2574545 C54.3491347,21.1582759 54.5787708,19.9867865 54.5873802,18.8032727 C54.5776322,17.7648058 54.4058683,16.7342224 54.0782893,15.7487273 C53.6465083,14.5323282 53.0046566,13.4011184 52.1819257,12.4065455 L52.1157438,12.4065455 C52.2447135,12.7578182 52.3965923,13.1311515 52.5713802,13.5265455 C52.7427225,13.9207585 52.8294394,14.3465383 52.8259257,14.7763636 C52.8259257,16.1814545 52.7843499,17.3226667 52.7011984,18.2 C52.6180469,19.0773333 52.5764711,19.8409697 52.5764711,20.4909091 C52.5764711,21.0178182 52.5764711,21.4454545 52.5968348,21.7636364 C52.6171984,22.0818182 52.6324711,22.4330909 52.6604711,22.7818182 L52.5942893,22.7818182 C52.4362515,22.0507576 52.2209199,21.3332694 51.9502893,20.636 L51.9630166,20.636 Z M49.0433802,10.1818182 C49.3035723,10.6643788 49.5027954,11.1773998 49.6364711,11.7090909 C49.7891984,12.3030303 49.9639863,12.9945455 50.1608348,13.7836364 C50.3576832,14.5727273 50.6546529,15.538303 51.0517438,16.6803636 L51.0517438,16.7465455 C50.6842376,15.9704217 50.1788235,15.2674993 49.5601075,14.672 C49.040445,14.1947142 48.4875387,13.754941 47.905562,13.356 C47.3757169,12.999926 46.865856,12.614981 46.3782893,12.2029091 C45.8715984,11.7499825 45.4746611,11.1876545 45.217562,10.5585455 L45.1513802,10.5585455 C45.4059257,11.3476364 45.6273802,11.9738182 45.7801075,12.4345455 C45.9095953,12.8288292 46.0652128,13.2140462 46.2459257,13.5876364 C46.3898016,13.8791977 46.5797553,14.1456486 46.8084711,14.3767273 C47.0299257,14.5956364 47.317562,14.8603636 47.6713802,15.1658182 C48.6437438,15.9973333 49.4837438,16.6998788 50.1913802,17.2734545 C50.884845,17.8233721 51.4730002,18.4943173 51.9273802,19.2538182 L51.9273802,14.644 C51.9413151,13.3287829 51.5483469,12.0414122 50.8022893,10.9581818 C50.1322331,9.91783839 49.097049,9.16596783 47.9004711,8.85054545 L47.9004711,8.90909091 C48.3680312,9.24676609 48.7577592,9.68076173 49.0433802,10.1818182 L49.0433802,10.1818182 Z M41.4222893,48.0429091 C41.0576844,48.0465536 40.6936118,48.0141537 40.3353802,47.9461818 C40.0044711,47.88 39.5997438,47.8036364 39.1161075,47.7145455 L39.1161075,47.7323636 C38.7275014,47.6050909 38.2854408,47.4549091 37.7899257,47.2818182 C37.2808348,47.1061818 36.677562,46.8872727 35.9724711,46.62 C34.7404711,46.1821818 33.8011984,45.8563636 33.1724711,45.6323636 C32.5683829,45.4175477 31.9325124,45.3056896 31.2913802,45.3014545 C30.6453215,45.3097337 30.0019639,45.386527 29.3721075,45.5305455 C28.7153802,45.6730909 28.2393802,45.7850909 27.9262893,45.8716364 C27.6513802,45.7876364 27.1931984,45.6730909 26.541562,45.5305455 C25.9160042,45.3865868 25.2768711,45.3097885 24.6350166,45.3014545 C23.9965646,45.3053889 23.3632945,45.4163833 22.761562,45.6298182 C22.1251984,45.8470303 21.1918651,46.1728485 19.961562,46.6072727 C18.5157438,47.1299394 17.441562,47.4998788 16.7390166,47.7170909 C16.0369105,47.935473 15.30557,48.0453457 14.5702893,48.0429091 C14.2611825,48.0432595 13.9524296,48.0219955 13.6462893,47.9792727 C13.3770137,47.9452979 13.1128838,47.8786243 12.8597438,47.7807273 C12.8597438,47.7807273 12.2411984,47.6025455 11.9001075,47.4549091 C11.5590166,47.3072727 11.1364711,47.1138182 10.6451984,46.8923636 L10.5790166,46.9585455 C11.281562,47.7501818 12.8902893,48.7403636 12.8902893,48.7403636 C13.9931875,49.4101127 15.2553434,49.7722354 16.545562,49.7890909 C17.0183372,49.7928215 17.4906819,49.7596297 17.9582893,49.6898182 C18.3881503,49.6223978 18.807971,49.5018382 19.2081075,49.3309091 C19.6230166,49.1552727 20.0862893,48.9363636 20.5902893,48.6741818 C21.0942893,48.412 21.697562,48.0632727 22.397562,47.6254545 C23.1433802,47.1443636 23.7670166,46.76 24.2710166,46.4774545 C24.8049036,46.1850675 25.4060669,46.0376289 26.0146529,46.0498182 C26.2831691,46.0502855 26.5497723,46.095006 26.8037438,46.1821818 C25.9264105,46.6590303 24.9277438,47.2351515 23.8077438,47.9105455 C22.6016401,48.6592935 21.5051452,49.5716115 20.549562,50.6214545 L21.669562,51.6090909 C22.6435629,50.4592412 23.7233276,49.4033387 24.8946529,48.4552727 C26.0451984,47.5185455 27.0557438,46.8932121 27.9262893,46.5792727 C28.7934408,46.8915152 29.8116226,47.5168485 30.9808348,48.4552727 C32.1672994,49.3976023 33.2585739,50.4539219 34.2390166,51.6090909 L35.3590166,50.6214545 C34.3986027,49.5656284 33.2919833,48.6527317 32.0728348,47.9105455 C30.9307741,47.2317576 29.9210772,46.6556364 29.0437438,46.1821818 C29.3242713,46.1041135 29.6130868,46.0596804 29.9041075,46.0498182 C30.5151518,46.0373583 31.1188474,46.1847723 31.6553802,46.4774545 C32.1644711,46.76 32.7881075,47.1443636 33.5390166,47.6254545 C34.1982893,48.02 34.7710166,48.356 35.2571984,48.6436364 C35.6876602,48.9033109 36.1409363,49.1231328 36.6113802,49.3003636 C37.0099969,49.4483804 37.4182097,49.5691434 37.8331984,49.6618182 C38.2584075,49.7508112 38.6918756,49.7943286 39.1262893,49.7916364 L39.3808348,49.7916364 C40.4140017,49.7669441 41.4324728,49.5412897 42.3793802,49.1272727 C43.5125994,48.6454042 44.5163281,47.9032903 45.3091984,46.9610909 L45.3091984,46.8949091 C44.6011733,47.2342714 43.874564,47.5334135 43.1328348,47.7909091 C42.579073,47.9626746 42.0020588,48.0476811 41.4222893,48.0429091 Z M55.9848348,28.9392727 C55.9848348,28.8705455 55.9848348,28.8018182 55.9848348,28.7356364 C55.9848348,28.6694545 55.969562,28.5294545 55.9568348,28.4301818 C55.9262893,28.2316364 55.885562,28.0229091 55.829562,27.804 C55.7337861,28.6199521 55.4534902,29.403388 55.0099257,30.0949091 C54.5568567,30.7582441 54.0530442,31.3854567 53.5030166,31.9709091 L53.3986529,32.0854545 C52.833562,32.6946667 52.2090772,33.3607273 51.5251984,34.0836364 C50.7149631,34.9727281 49.9897385,35.9357172 49.3590166,36.96 L49.3411984,36.9421818 C49.6415333,36.3364793 49.8967715,35.709444 50.1048348,35.0661818 C50.333387,34.4653668 50.4656812,33.8322443 50.4968348,33.1901818 C50.5003049,32.7638775 50.4670916,32.3380649 50.397562,31.9174545 C50.3313802,31.5458182 50.2550166,31.1538182 50.1659257,30.7007273 C50.0768348,30.2476364 50.0030166,29.7818182 49.9368348,29.2523636 C49.8658095,28.6185583 49.8335071,27.9810111 49.8401075,27.3432727 L49.7739257,27.3432727 C49.7669063,27.3572283 49.76095,27.3716936 49.7561075,27.3865455 L49.7561075,27.3483636 L49.6899257,27.3483636 C49.3730219,28.1798751 49.1369025,29.0399635 48.9848348,29.9167273 C48.8558651,30.7058182 48.7056832,31.8249697 48.5342893,33.2741818 C48.4477438,34.1065455 48.3739257,34.8218182 48.3077438,35.4149091 C48.241562,36.008 48.1702893,36.5425455 48.0837438,37.0261818 C48.0081079,37.4751425 47.8896271,37.9158229 47.7299257,38.3421818 C47.6026529,38.6807273 47.4448348,39.0370909 47.2717438,39.4061818 C47.2361075,39.4672727 47.205562,39.5258182 47.1673802,39.5869091 L47.1953802,39.5716364 L47.1953802,39.5945455 L48.829562,38.5101818 L52.1182893,36.3618182 C52.5871486,36.029773 53.0144485,35.6426393 53.3910166,35.2087273 C53.871899,34.6773131 54.291167,34.0932412 54.6408348,33.4676364 C54.8745182,33.056135 55.083612,32.6311477 55.2670166,32.1949091 C55.3866529,31.9174545 55.4986529,31.6349091 55.5979257,31.3421818 C55.857644,30.6095311 55.993563,29.8387498 56.0001075,29.0614545 L56.0001075,29.0614545 L56.0001075,29.0614545 C56.0001075,29.0181818 56.0001075,28.9774545 55.9848348,28.9392727 L55.9848348,28.9392727 Z M36.8379257,9.55818182 C36.9615257,9.61109776 37.0792563,9.67678799 37.1891984,9.75418182 C37.2680301,9.83453495 37.3419806,9.91953549 37.4106529,10.0087273 C37.4592172,10.0880229 37.5442742,10.1377191 37.6371984,10.1410909 C37.7644711,10.1410909 37.8281075,10.0978182 37.8281075,10.0087273 C37.8281075,9.91963636 37.8281075,9.88909091 37.797562,9.912 C37.7670166,9.93490909 37.7644711,9.912 37.7644711,9.81272727 C37.7750234,9.67043484 37.7293246,9.52968251 37.6371984,9.42072727 C37.4967525,9.25270393 37.2616815,9.19861679 37.0619257,9.28836364 C37.0298911,9.25037974 36.9841457,9.22659213 36.9346529,9.22218182 L36.8710166,9.22218182 C36.7437438,9.22218182 36.677562,9.268 36.677562,9.35454545 C36.6790921,9.45078045 36.7447316,9.53413219 36.8379257,9.55818182 L36.8379257,9.55818182 Z M29.8608348,7.97745455 L29.9931984,7.97745455 C30.247944,7.88478546 30.5144089,7.82823665 30.7848348,7.80945455 L31.7113802,7.80945455 C31.8625372,7.82067144 32.0099998,7.75922867 32.1084711,7.644 C32.1843645,7.55064799 32.250868,7.45004004 32.3070166,7.34363636 C32.1128029,7.09025849 31.8283233,6.92157666 31.5128348,6.87272727 C31.2939276,6.83611102 31.0728397,6.81400224 30.8510166,6.80654545 C30.579188,6.85836185 30.3137644,6.93943981 30.0593802,7.04836364 C29.6164711,7.20618182 29.3517438,7.30290909 29.2651984,7.35636364 C29.0428954,7.31054545 28.9105317,7.35636364 28.8681075,7.49381818 C28.980999,7.60606465 29.1027237,7.70906248 29.2321075,7.80181818 C29.4167265,7.92778163 29.6376625,7.98950058 29.8608348,7.97745455 Z M27.8702893,44.0363636 C38.835652,44.0363636 47.7248348,35.1471809 47.7248348,24.1818182 C47.7248348,13.2164555 38.835652,4.32727273 27.8702893,4.32727273 C16.9049266,4.32727273 8.01574384,13.2164555 8.01574384,24.1818182 C8.0297676,35.1413668 16.9107407,44.0223399 27.8702893,44.0363636 Z M9.03392566,24.6909091 L12.0477438,24.6909091 C12.0892249,26.0159787 12.2979067,27.3305031 12.6688348,28.6032727 C12.5735681,28.5838276 12.4906225,28.5257657 12.4397438,28.4429091 L12.345562,28.3512727 L12.0146529,27.8854545 L11.4546529,28.0789091 C11.4546529,28.3894545 11.3451984,28.4989091 11.1262893,28.4123636 C11.0626651,28.3354465 10.9711149,28.2869249 10.8717438,28.2774545 C10.7132844,28.2677273 10.5574984,28.3216615 10.4389734,28.4272826 C10.3204483,28.5329038 10.2489927,28.6814711 10.2404711,28.84 C10.1895073,29.0919015 10.1563344,29.3470773 10.1411984,29.6036364 L10.6044711,30.8 C10.693562,30.9323636 10.8259257,30.9527273 11.001562,30.8636364 C11.1259306,31.0262827 11.2593537,31.1818013 11.4011984,31.3294545 C11.4915608,31.4171795 11.6138954,31.4640898 11.7397438,31.4592727 C11.8771984,31.4592727 11.9459257,31.3956364 11.9459257,31.2607273 L12.0146529,31.2607273 C12.1113713,31.3569654 12.2031265,31.458066 12.289562,31.5636364 C12.3879984,31.6793886 12.5039473,31.7790188 12.6331984,31.8589091 L12.6331984,31.7978182 C12.7807686,31.9467982 12.9809756,32.0318177 13.1906529,32.0345455 C13.2566941,32.3083285 13.3916332,32.5606821 13.5826529,32.7676364 C13.7116777,32.9168989 13.894919,33.0085196 14.0917438,33.0221818 C14.1908089,33.0136339 14.2823979,32.9660077 14.3462893,32.8898182 C14.4181299,33.1300027 14.5300051,33.3563348 14.6771984,33.5592727 C14.791498,33.6185533 14.902013,33.6848623 15.0081075,33.7578182 C15.0983462,33.8177281 15.183484,33.8849869 15.2626529,33.9589091 L15.3924711,33.9589091 L15.3924711,33.9589091 C15.4517508,34.1619667 15.5652771,34.3450168 15.7208348,34.4883636 C15.8411149,34.6131581 15.9742138,34.7249271 16.1179257,34.8218182 L16.0771984,34.8396364 L16.1128348,34.8396364 L16.1611984,34.8396364 C16.2070166,34.888 16.2502893,34.9389091 16.293562,34.9872727 L14.1961075,37.1636364 C10.9874917,33.7898758 9.14525892,29.3452965 9.0262893,24.6909091 L9.03392566,24.6909091 Z M23.5811984,19.1163636 L23.4182893,19.012 L23.2197438,18.8134545 C24.3817403,17.7997976 25.8432265,17.1937501 27.381562,17.0876364 L27.381562,19.1850909 C27.3538398,19.1641095 27.3228905,19.1477752 27.2899257,19.1367273 C27.2712917,19.1156936 27.2550696,19.0926411 27.241562,19.068 C27.241562,19.068 27.2237438,19.068 27.2186529,19.068 C27.1703019,19.0396086 27.1139295,19.0279762 27.0582893,19.0349091 C27.0302893,19.0349091 27.0099257,19.0349091 26.9819257,19.0349091 L26.9641075,19.0349091 C26.9150056,19.0367554 26.8662986,19.044446 26.8190166,19.0578182 C26.7692054,19.0765526 26.7168652,19.0877071 26.6637438,19.0909091 C26.6352657,19.0914757 26.6071505,19.0844469 26.5822893,19.0705455 C26.5186529,19.0247273 26.485562,18.9254545 26.485562,18.7701818 L26.485562,18.7701818 L26.485562,18.7701818 C26.3073802,18.8592727 26.205562,18.9458182 26.1851984,19.0247273 C26.1648348,19.1036364 26.1291984,19.264 26.0833802,19.4854545 C26.0428393,19.6653804 25.9054097,19.8077182 25.7270166,19.8545455 C25.5787525,19.9034883 25.4425469,19.983303 25.3273802,20.0887273 L25.1262893,19.9538182 L24.7928348,19.9538182 C24.7335981,19.8905443 24.6659325,19.8357266 24.5917438,19.7909091 C24.5425046,19.7652572 24.497793,19.7317236 24.4593802,19.6916364 C24.4161075,19.6483636 24.3957438,19.6483636 24.3957438,19.6916364 C24.3074763,19.6869818 24.2306988,19.7515194 24.2201075,19.8392727 L24.0241075,19.6432727 L24.0750166,19.6254545 L24.0750166,19.4930909 C23.9234137,19.3513282 23.7579804,19.2251213 23.5811984,19.1163636 Z M22.4942893,18.0981818 L20.4579257,16.0618182 C22.3524288,14.3263519 24.7970563,13.312638 27.3637438,13.1981818 L27.3637438,16.0745455 C25.5597713,16.1867887 23.845401,16.9001388 22.4942893,18.1007273 L22.4942893,18.0981818 Z M23.6346529,27.6538182 C23.7390166,27.5494545 23.6931984,27.356 23.7313802,27.2261818 L23.5048348,27.4374545 C23.6643797,27.2914623 23.7978138,27.1192892 23.8993802,26.9283636 C23.952454,26.8003268 24.019011,26.6783055 24.0979257,26.5643636 L24.1157438,26.5643636 C24.1856611,26.7076068 24.2647339,26.8461968 24.3524711,26.9792727 L22.4968348,28.8349091 C21.757851,27.9760189 21.2342858,26.9533217 20.969562,25.8516364 C21.129753,25.8707789 21.2860224,25.9145686 21.4328348,25.9814545 C21.5791341,26.0988757 21.7185184,26.2246616 21.8502893,26.3581818 C21.9387342,26.3555755 22.0255686,26.3338669 22.1048348,26.2945455 L22.3593802,26.4905455 C22.3593802,26.6687273 22.3797438,26.7781818 22.425562,26.8214545 C22.425562,26.8647273 22.4917438,26.9207273 22.6241075,26.9869091 C22.7443644,27.0358325 22.8447446,27.1236652 22.9091984,27.2363636 L23.041562,27.1701818 C23.0350365,27.0848083 23.0239907,26.9998407 23.0084711,26.9156364 C22.985562,26.7832727 23.0084711,26.7170909 23.041562,26.7170909 L23.1637438,27.1676364 L23.293562,27.6970909 L23.293562,27.6970909 C23.4074277,27.7370997 23.5334084,27.7220573 23.6346529,27.6563636 L23.6346529,27.6538182 Z M27.5826529,29.7589091 C27.6921075,29.8709091 27.7481075,29.9472727 27.7481075,29.9905455 C27.7481075,30.1229091 27.5699257,30.1890909 27.2186529,30.1890909 C27.0862893,30.1890909 26.9971984,30.3163636 26.9641075,30.5658182 C26.9310166,30.8152727 26.8750166,31.0265455 26.8317438,31.1945455 L26.7222893,31.1741818 C26.7227246,31.181812 26.7227246,31.1894607 26.7222893,31.1970909 C25.4201357,30.9890477 24.2023372,30.4202715 23.2070166,29.5552727 L24.9888348,27.7734545 C25.6709099,28.4253721 26.5519813,28.8296073 27.4910166,28.9214545 C27.4849228,29.0189605 27.5070138,29.1161606 27.5546529,29.2014545 C27.4670625,29.2879225 27.4191519,29.4067777 27.4222893,29.5298182 C27.4171984,29.5756364 27.4731984,29.652 27.5826529,29.7614545 L27.5826529,29.7589091 Z M18.7804711,29.8836364 C18.7616604,29.507615 18.7165808,29.133369 18.645562,28.7636364 C18.5932721,28.5607272 18.5269302,28.3617013 18.4470166,28.168 C18.4213372,27.8624282 18.3510142,27.5622692 18.2382893,27.2770909 C18.0677185,26.9751952 17.8570802,26.697769 17.6121075,26.4523636 L17.6121075,26.0654545 C17.5838079,25.9316031 17.5393615,25.8016828 17.4797438,25.6785455 L17.4797438,25.6098182 C17.4694436,25.5367369 17.5120092,25.4665037 17.581562,25.4418182 L18.2790166,25.2 C18.2642718,24.9938721 18.2875685,24.7867903 18.3477438,24.5890909 L18.8262893,24.6730909 C18.9637438,24.6730909 19.0324711,24.584 19.0324711,24.4007273 C19.0029597,24.2598266 18.9585904,24.1224525 18.9001075,23.9909091 C18.8308504,23.8394362 18.7861692,23.6778963 18.7677438,23.5123636 C18.7677438,23.4207273 18.8339257,23.3418182 18.9637438,23.2730909 C19.0855261,23.2088655 19.2206361,23.1739984 19.3582893,23.1712727 C19.5422459,23.154148 19.7202565,23.2416781 19.8190166,23.3978182 C19.9048421,23.5472677 19.9496282,23.7167524 19.9488348,23.8890909 C19.9496624,24.0094101 19.9394376,24.1295511 19.9182893,24.248 C19.8972147,24.344177 19.8861257,24.4422728 19.8851984,24.5407273 L20.0150166,24.6069091 C19.9284711,25.0421818 19.7604711,25.2585455 19.4906529,25.2585455 C19.3682169,25.2635501 19.2536295,25.1983538 19.1953802,25.0905455 C19.1544895,24.9980775 19.0669244,24.934836 18.9662893,24.9250909 C18.9230166,24.9250909 18.9001075,24.9454545 18.9001075,24.9887273 C18.9002719,25.0823655 18.9220494,25.174702 18.9637438,25.2585455 C19.0126873,25.3627023 19.0362405,25.4769787 19.0324711,25.592 C19.0324711,25.9025455 18.8924711,26.0145455 18.6150166,25.9254545 C18.5267741,26.0951515 18.6184105,26.18 18.8899257,26.18 C18.981562,26.4345455 19.0706529,26.5567273 19.1648348,26.5134545 C19.2407008,26.3750474 19.2874763,26.2225939 19.3022893,26.0654545 C19.3257515,25.8863817 19.3719419,25.7110295 19.4397438,25.5436364 L19.5084711,25.6123636 L19.7833802,25.5436364 C19.7884379,25.5770587 19.795235,25.6101946 19.8037438,25.6429091 L19.8826529,25.6429091 C20.1474296,27.0969158 20.8049882,28.4507646 21.7841075,29.5578182 L18.9841075,32.3578182 C18.8676899,32.2438999 18.8128105,32.081154 18.8364711,31.92 C18.897562,31.6527273 19.1699257,31.4847273 19.2030166,31.2072727 C19.2030166,31.1843636 19.2691984,30.6803636 19.2691984,30.6803636 C18.9408348,30.2374545 18.7804711,29.9752727 18.7804711,29.8861818 L18.7804711,29.8836364 Z M17.1819257,25.7498182 C17.2221225,25.8287595 17.243881,25.9157934 17.245562,26.0043636 C17.245562,26.1392727 17.2022893,26.1927273 17.1131984,26.1723636 C17.0965899,26.1674119 17.0788978,26.1674119 17.0622893,26.1723636 C16.9705544,25.6831193 16.9127199,25.1881233 16.8891984,24.6909091 L17.4390166,24.6909091 C17.4344848,24.7787932 17.4137744,24.8650865 17.3779257,24.9454545 C17.3305935,25.0351367 17.2752146,25.1203351 17.2124711,25.2 C17.1530749,25.2720867 17.1182896,25.3612798 17.1131984,25.4545455 C17.1095418,25.5573205 17.1332601,25.6592216 17.1819257,25.7498182 Z M16.8891984,23.6854545 C17.0054856,21.1179372 18.0199227,18.6728375 19.7553802,16.7770909 L21.7917438,18.8134545 L21.7382893,18.8796364 C21.6167874,18.9087244 21.4989523,18.9514182 21.3870166,19.0069091 C21.2979257,19.1138182 21.2037438,19.236 21.0917438,19.3963636 C20.8704756,19.4810988 20.660231,19.5922036 20.465562,19.7272727 C20.2804832,19.8873671 20.1101064,20.0637072 19.9564711,20.2541818 C19.7908806,20.3408768 19.6209614,20.4190397 19.4473802,20.4883636 C19.3590783,20.5248823 19.2799688,20.5805197 19.2157438,20.6512727 C19.3048348,20.8727273 19.3048348,20.9949091 19.2157438,21.0152727 L18.5539257,21.1807273 C18.5029244,21.1849062 18.4555059,21.2086154 18.421562,21.2469091 L18.225562,21.4454545 C18.1843968,21.5160328 18.1608238,21.5954824 18.1568348,21.6770909 C18.1536236,21.7584859 18.1309276,21.8379219 18.0906529,21.9087273 C17.9599464,21.9956891 17.8482393,22.1082622 17.7622893,22.2396364 C17.6883337,22.4312949 17.6883337,22.6436142 17.7622893,22.8352727 L17.8437438,23.4945455 L17.8157438,23.4945455 C17.8406013,23.5599036 17.8601792,23.6271493 17.8742893,23.6956364 L16.8891984,23.6854545 Z M22.4891984,30.2705455 C23.4934803,31.1598877 24.7032829,31.785346 26.009562,32.0905455 C25.9153802,32.1236364 25.8161075,32.1567273 25.7193802,32.1847273 C25.5131682,32.2370992 25.3579895,32.4072952 25.3248348,32.6174545 C25.2790166,32.872 25.1797438,33.0527273 25.0244711,33.1265455 C24.8691984,33.2003636 24.8157438,33.2945455 24.861562,33.4269091 C25.0810514,33.6494815 25.2396954,33.9246983 25.3222893,34.2261818 C25.4083991,34.5369403 25.6662544,34.7700019 25.9841075,34.8243636 L26.3811984,34.9592727 C26.522816,34.9702378 26.6585687,35.0204839 26.7731984,35.1043636 C26.8902893,35.1196364 27.0048348,35.1349091 27.1193802,35.1603636 C24.6396216,34.9939155 22.2903403,33.9884913 20.4579257,32.3094545 L22.4891984,30.2705455 Z M19.7553802,15.3618182 L17.749562,13.356 C20.3647065,10.9012741 23.7840354,9.48251052 27.3688348,9.36472727 L27.3688348,12.2029091 C24.536947,12.3207719 21.8388817,13.44023 19.7553802,15.3618182 L19.7553802,15.3618182 Z M19.0477438,16.0694545 C17.1233206,18.1521564 16.0034587,20.8520973 15.8888348,23.6854545 L13.0481075,23.6854545 C13.1673598,20.1002196 14.5858737,16.680588 17.0393802,14.0636364 L19.0477438,16.0694545 Z M15.8888348,24.6909091 C15.9069523,25.1805816 15.9562644,25.6686013 16.0364711,26.152 C16.0008348,26.0934545 15.9626529,26.0272727 15.9244711,25.956 C15.7691984,25.7447273 15.6368348,25.6327273 15.5350166,25.6327273 C15.4184458,25.6197115 15.3080728,25.6880377 15.2677438,25.7981818 C15.2212665,25.909883 15.1528921,26.0111465 15.0666529,26.096 C14.8488422,26.2591995 14.5976299,26.3722015 14.3310166,26.4269091 C14.129215,26.6511585 13.991214,26.9254026 13.9313802,27.2210909 C13.8900895,27.3044731 13.9020796,27.4043906 13.9619257,27.4756364 C14.0306529,27.5647273 13.997562,27.6538182 13.8626529,27.7301818 C13.9508954,27.8998788 13.9738044,28.0093333 13.9313802,28.0585455 C13.9746529,28.1476364 13.9619257,28.1832727 13.8957438,28.1603636 C13.8391887,28.1348947 13.7726983,28.1481927 13.7302893,28.1934545 C13.6888094,28.2364337 13.6567346,28.2875801 13.6361075,28.3436364 C13.2888423,27.1552793 13.0913144,25.9282122 13.0481075,24.6909091 L15.8888348,24.6909091 Z M27.3688348,43.0181818 C22.7139342,42.9016303 18.2685201,41.0590515 14.8961075,37.8483636 L17.0291984,35.7127273 C19.8336791,38.3545436 23.5076937,39.8791963 27.3586529,39.9992727 L27.3688348,43.0181818 Z M27.3688348,38.9963636 C23.8033555,38.8819355 20.3998889,37.4804017 17.7877438,35.0509091 C17.9581029,35.1391531 18.1458439,35.1886958 18.337562,35.196 C18.5210395,35.183385 18.7005737,35.1367752 18.8670166,35.0585455 C19.0884711,34.9643636 19.2870166,34.8727273 19.4626529,34.7785455 C19.6698079,34.7927805 19.8766602,34.7468134 20.0582893,34.6461818 C20.2197027,34.6920311 20.3906941,34.6920311 20.5521075,34.6461818 C20.7016397,34.6099581 20.8008903,34.4681716 20.7837438,34.3152727 C20.7719734,34.1622411 20.6839479,34.0254189 20.549562,33.9512727 C20.3942893,33.8418182 20.3153802,33.7425455 20.3153802,33.6534545 C20.3153802,33.6101818 20.269562,33.5567273 20.1804711,33.488 C20.0225621,33.3440064 19.8785349,33.1854913 19.7502893,33.0145455 L19.7502893,33.0145455 C21.8337908,34.9361336 24.5318561,36.0555917 27.3637438,36.1734545 L27.3688348,38.9963636 Z M27.9033802,31.6145455 L27.9033802,31.5967273 C27.6790606,31.6143846 27.4537897,31.5777126 27.2466529,31.4898182 C27.2237438,31.4338182 27.2008348,31.3778182 27.1804711,31.3167273 C27.2788696,31.2418288 27.3817255,31.1729748 27.4884711,31.1105455 C27.6116897,31.0227901 27.7538184,30.965241 27.9033802,30.9425455 L27.9033802,30.8 L28.389562,30.4334545 C28.4426729,30.4033257 28.500242,30.3818447 28.5601075,30.3698182 C28.6879179,30.3349518 28.8129841,30.2907107 28.9342893,30.2374545 C29.1126926,30.2938904 29.2836271,30.3716656 29.4433802,30.4690909 C29.6031797,30.5664286 29.7741034,30.6441989 29.9524711,30.7007273 L30.0211984,30.4461818 C30.1077438,30.4461818 30.2401075,30.5352727 30.4157438,30.7007273 C30.5372849,30.6876679 30.6527688,30.6409454 30.7491984,30.5658182 C30.7928955,30.4607249 30.7928955,30.3425478 30.7491984,30.2374545 C30.8185579,30.2450411 30.8854373,30.2676237 30.9451984,30.3036364 C30.9813937,30.3008612 31.01718,30.31279 31.0444711,30.3367273 C31.0720408,30.3601747 31.1076196,30.3720343 31.1437438,30.3698182 L31.2099257,30.3698182 C31.3434656,30.349397 31.4686508,30.292094 31.5713802,30.2043636 C31.6863296,30.1175499 31.8080527,30.0400897 31.9353802,29.9727273 C31.9513,29.9523599 31.9757111,29.940457 32.001562,29.940457 C32.0274129,29.940457 32.0518241,29.9523599 32.0677438,29.9727273 C32.1198796,30.0467718 32.1433939,30.1372112 32.1339257,30.2272727 C32.1325976,30.5833447 31.908873,30.9006269 31.5739257,31.0214545 C31.2614774,31.1703629 30.9411204,31.3020746 30.6142893,31.416 C30.5441383,31.5061654 30.4883294,31.6066215 30.4488348,31.7138182 C30.3826529,31.8690909 30.3062893,31.9454545 30.2171984,31.9454545 C29.9425351,31.9308871 29.6702691,31.8865052 29.4051984,31.8130909 C29.3166628,31.6919917 29.2471345,31.5580853 29.1990166,31.416 C29.0382398,31.4185028 28.878378,31.4407296 28.7230166,31.4821818 L28.1808348,31.6145455 C28.091096,31.6423134 27.9962115,31.6492774 27.9033802,31.6349091 L27.9033802,31.6145455 Z M30.7670166,29.4330909 C30.789653,29.2402797 30.9169652,29.0757531 31.0979257,29.0054545 C31.2669078,28.9404515 31.4463278,28.9068103 31.6273802,28.9061818 C31.6273802,29.0385455 31.5051984,29.1607273 31.2633802,29.3032727 C31.1287243,29.3869445 30.9842326,29.4536329 30.8331984,29.5018182 L30.7670166,29.4330909 Z M32.8033802,27.8141818 C32.9758593,27.9237358 33.07377,28.1195571 33.0579257,28.3232727 C33.0642626,28.3925316 33.0394875,28.461024 32.9903095,28.5102021 C32.9411315,28.5593801 32.8726391,28.5841552 32.8033802,28.5778182 C32.6710166,28.5778182 32.5488348,28.4250909 32.4750166,28.1145455 C32.1644711,28.028 31.9888348,27.8854545 31.945562,27.6869091 C31.9022893,27.4883636 31.9226529,27.3687273 32.0117438,27.3229091 C32.092766,27.2813791 32.1781337,27.2489394 32.2662893,27.2261818 C32.3528348,27.2007273 32.3757438,27.3 32.3324711,27.5214545 L32.8033802,27.8141818 Z M39.1670166,16.7210909 C39.218319,16.7241701 39.2661354,16.7480783 39.2993802,16.7872727 C39.4636394,16.7835079 39.6251765,16.8296613 39.7626529,16.9196364 C40.0699916,17.2154089 40.3385605,17.5489817 40.5619257,17.9123636 C40.6051984,17.9123636 40.6611984,17.9785455 40.7273802,18.1109091 C40.793562,18.2432727 40.8724711,18.3069091 40.961562,18.3069091 C41.0811339,18.2938141 41.1969985,18.2574983 41.3026529,18.2 C41.3179257,18.1363636 41.3306529,18.0803636 41.3433802,18.0192727 C42.1552398,19.7948427 42.6068627,21.7138073 42.6721075,23.6650909 L39.8721075,23.6650909 C39.8721075,23.6472727 39.8721075,23.632 39.8848348,23.6141818 C39.8999683,23.3594834 39.8463385,23.1054013 39.729562,22.8785455 C39.5857096,22.5743567 39.5532763,22.2293031 39.6379257,21.9036364 C39.7027079,21.7240624 39.7141994,21.5295901 39.6710166,21.3436364 C39.58144,21.3357967 39.49182,21.3582017 39.4164711,21.4072727 C39.3448554,21.4968891 39.28813,21.5974477 39.2484711,21.7050909 C39.1822893,21.8578182 39.1262893,21.98 39.0830166,22.0690909 L39.0830166,22.1047273 C39.0616616,22.1440794 39.0454095,22.1859928 39.0346529,22.2294545 C39.0207979,22.2875444 38.9985001,22.3432888 38.9684711,22.3949091 C38.9226529,22.5705455 38.8768348,22.7461818 38.833562,22.9218182 C38.7976154,23.0956153 38.7976154,23.2749302 38.833562,23.4487273 C38.833562,23.5149091 38.833562,23.5836364 38.833562,23.6523636 L37.4182893,23.6523636 C37.5034206,23.5640869 37.6067969,23.495459 37.7211984,23.4512727 L37.6728348,23.4512727 L38.0597438,23.2552727 C37.9806943,23.2237579 37.9291283,23.1469145 37.9299257,23.0618182 C37.9299257,22.932 37.9502893,22.8556364 37.993562,22.8327273 C38.0368348,22.8098182 38.1641075,22.7563636 38.3804711,22.6698182 C38.5237847,22.4805901 38.6418669,22.2735184 38.7317438,22.0538182 C38.8997438,21.6847273 39.2408348,21.1552727 39.2408348,20.7403636 C39.2408348,20.6385455 39.1084711,20.5061818 39.0906529,20.3967273 C39.0956287,20.3018027 39.1075393,20.2073691 39.1262893,20.1141818 C39.1441075,19.6483636 39.3350166,18.8414545 38.7419257,18.6989091 C38.6961075,18.6989091 38.6731984,18.6352727 38.6731984,18.5054545 C38.8205469,18.3809304 38.8753036,18.1781276 38.8106529,17.9963636 L38.4033802,17.9963636 C38.4192236,17.9120658 38.4530865,17.8321841 38.5026529,17.7621818 C38.5645218,17.6745782 38.6006699,17.5714238 38.6070166,17.4643636 C38.6138356,17.4087582 38.5944822,17.3531342 38.5546204,17.3137706 C38.5147585,17.274407 38.4588955,17.2557548 38.4033802,17.2632727 C38.2866762,17.2589849 38.1706282,17.2825435 38.0648348,17.332 C38.0010941,17.3673254 37.9310454,17.3898102 37.8586529,17.3981818 C37.8248657,17.4027274 37.7906219,17.4027274 37.7568348,17.3981818 C37.7237438,17.3498182 37.6881075,17.3065455 37.6550166,17.2581818 C37.6381425,17.0145335 37.5342506,16.785068 37.3622893,16.6116364 C37.2243283,16.436268 37.0413308,16.3016593 36.8328348,16.2221818 L36.8124711,16.1992727 C36.8431316,16.1075863 36.8431316,16.0084137 36.8124711,15.9167273 L37.3724711,15.3592727 L38.1819257,15.6698182 C38.163954,15.8504076 38.2434765,16.0269089 38.3906529,16.1330909 C38.4775997,16.2066884 38.5703907,16.2730893 38.6681075,16.3316364 C38.7798681,16.4035179 38.8862133,16.4834895 38.9862893,16.5709091 L38.9862893,16.6090909 C39.0753802,16.6981818 39.141562,16.7414545 39.2001075,16.7414545 L39.1670166,16.7210909 Z M36.4408348,35.9392727 C36.396715,35.8960317 36.3371504,35.8722059 36.2753802,35.8730909 C36.2066529,35.8730909 36.1761075,35.8323636 36.1761075,35.7407273 C36.1761075,35.6490909 36.2422893,35.5676364 36.3746529,35.4861818 C36.5309804,35.3704285 36.6482127,35.2096781 36.7106529,35.0254545 C36.7813322,34.9034755 36.8263726,34.7683545 36.8430166,34.6283636 C36.8523676,34.5568497 36.8112449,34.4883118 36.7437438,34.4629091 C36.6523567,34.428201 36.5710151,34.3713493 36.5070166,34.2974545 C36.4187741,34.2550303 36.3195014,34.2117576 36.2091984,34.1676364 C36.081144,34.1135664 35.9591382,34.0461646 35.8451984,33.9665455 C35.7248284,33.9007115 35.6490334,33.7753582 35.6466529,33.6381818 C35.6664703,33.5243243 35.6997966,33.4132367 35.7459257,33.3072727 C35.7662893,33.2487273 35.7917438,33.1901818 35.8171984,33.1290909 L35.9648348,32.9992727 L37.4921075,34.5265455 C37.4921075,34.7021818 37.5990166,34.804 37.8001075,34.8370909 L37.9706529,35.0050909 C37.4348973,35.5027215 36.8640958,35.9612342 36.2626529,36.3770909 C36.2879756,36.3130483 36.3251044,36.254333 36.3721075,36.204 C36.3956932,36.1824674 36.4222719,36.1644625 36.4510166,36.1505455 C36.4728251,36.0892376 36.4763622,36.0229161 36.4611984,35.9596364 L36.4408348,35.9392727 Z M35.5193802,28.6745455 C35.3819655,28.6441762 35.2381702,28.6768569 35.1273802,28.7636364 C34.9357895,28.8181151 34.784571,28.9655053 34.7251984,29.1556364 C34.7269006,29.1741177 34.720109,29.1923707 34.7067402,29.2052444 C34.6933713,29.2181181 34.6748751,29.2242164 34.6564711,29.2218182 C34.5677512,29.2246364 34.4807828,29.2472482 34.4019257,29.288 C34.2885812,29.3241007 34.1779907,29.3683369 34.0710166,29.4203636 C33.9386529,29.4203636 33.8724711,29.3770909 33.8724711,29.288 C33.8724711,29.1556364 34.0710166,29.0665455 34.4681075,29.0334545 C34.6437438,28.8170909 34.7506529,28.6872727 34.7939257,28.644 C34.8857463,28.5785141 34.9909323,28.5341796 35.1019257,28.5141818 C35.3083418,28.3955406 35.4830035,28.2287387 35.6110166,28.028 C35.7169595,27.9019236 35.8028178,27.7602574 35.865562,27.608 L35.9266529,27.608 C35.9266529,27.8243636 36.0182893,27.9312727 36.2041075,27.9312727 C36.341562,27.9312727 36.4586529,27.7785455 36.5502893,27.4756364 C36.7290216,27.5427056 36.9154362,27.5871715 37.1051984,27.608 C37.3021509,27.6242121 37.4906915,27.5249802 37.5888348,27.3534545 L38.4161075,27.3534545 C38.4161075,27.3738182 38.4161075,27.3941818 38.3982893,27.4145455 C38.3903947,27.4319221 38.3835936,27.4497751 38.3779257,27.468 L38.3779257,27.468 C37.914785,28.9219091 37.1545966,30.2637239 36.145562,31.4083636 L36.1226529,31.2072727 C36.1073802,31.2276364 35.9266529,30.604 35.8833802,30.604 C35.8401075,30.604 35.6950166,30.7592727 35.5702893,31.0672727 C35.445562,31.3752727 35.361562,31.5763636 35.3157438,31.6603636 L34.6539257,31.7927273 C34.4596273,31.8386613 34.2604791,31.8608838 34.0608348,31.8589091 C33.8614118,31.8171149 33.6715108,31.7385649 33.5008348,31.6272727 C33.3282938,31.5177856 33.1378981,31.4393873 32.9382893,31.3956364 C32.7535802,31.3403413 32.5657298,31.2961412 32.3757438,31.2632727 C32.1339257,31.22 32.0117438,31.1563636 32.0117438,31.0672727 C32.0117438,30.9349091 32.1008348,30.8661818 32.2662893,30.8661818 C32.4453932,30.8833347 32.6225916,30.9165594 32.7957438,30.9654545 C33.0502893,31.0316364 33.3226529,31.1003636 33.5873802,31.164 C33.8521075,31.2276364 34.0964711,31.2989091 34.3153802,31.3625455 C34.4444245,31.4077268 34.5773467,31.4409574 34.7124711,31.4618182 L35.109562,31.3294545 C35.1238783,31.200056 35.1692916,31.0760428 35.2419257,30.968 C35.3155733,30.8593122 35.3618573,30.7344327 35.3768348,30.604 C35.4914087,30.3727709 35.5769078,30.1282436 35.6313802,29.876 C35.6943043,29.6165989 35.7292914,29.3512095 35.7357438,29.0843636 C35.7408348,28.868 35.6721075,28.7381818 35.5397438,28.6949091 L35.5193802,28.6745455 Z M37.293562,24.6909091 L38.8513802,24.6909091 C38.8227787,25.3419178 38.7376093,25.9892054 38.5968348,26.6254545 C38.5168372,26.411264 38.4034335,26.2110892 38.2608348,26.0323636 L37.7237438,25.5029091 C37.6804711,25.284 37.6448348,25.1312727 37.6244711,25.0421818 C37.603152,24.9847335 37.5721593,24.9313572 37.5328348,24.8843636 C37.4444434,24.8313562 37.3639048,24.7662399 37.293562,24.6909091 L37.293562,24.6909091 Z M37.9273802,32.7752727 C37.7950166,32.7752727 37.7288348,32.8083636 37.7288348,32.8745455 C37.7185844,33.0126298 37.6973044,33.149673 37.6651984,33.2843636 L36.6826529,32.2992727 C38.0264923,30.8469563 38.9886207,29.0836373 39.4826529,27.1676364 L39.5310166,27.1243636 C39.7550166,27.2126061 39.9001075,27.2126061 39.9662893,27.1243636 C40.0167104,27.069358 40.051051,27.0015575 40.065562,26.9283636 C40.0206648,26.7213086 39.9044412,26.5366123 39.7371984,26.4065455 L39.6531984,26.4065455 C39.7599453,25.8384473 39.8254496,25.2633703 39.8491984,24.6858182 L42.6899257,24.6858182 C42.5688203,28.2721115 41.1475069,31.6919488 38.6910166,34.3076364 L38.5688348,34.1854545 C38.5688348,34.1854545 38.5688348,34.1676364 38.5688348,34.1574545 C38.5281075,33.8545455 38.4822893,33.5567273 38.4262893,33.2665455 C38.3702893,32.9763636 38.2022893,32.7752727 37.9273802,32.7752727 Z M37.2273802,18.4443636 C37.2281112,18.4494283 37.2281112,18.4545717 37.2273802,18.4596364 C37.2225755,18.5735271 37.200253,18.6859978 37.1611984,18.7930909 C37.1240481,18.905228 37.0798385,19.0149018 37.0288348,19.1214545 C37.174932,19.3065463 37.3534734,19.4635247 37.5557438,19.5847273 C37.7655202,19.7241431 37.9646168,19.878996 38.1513802,20.048 C38.284314,20.2881014 38.3844779,20.5449318 38.4491984,20.8116364 C38.5260663,21.0392973 38.5814593,21.2736525 38.6146529,21.5116364 C38.5744498,21.6767418 38.5073733,21.8341135 38.4161075,21.9774545 C38.2846576,22.2199611 38.0326417,22.3727275 37.7568348,22.3770909 L37.6906529,22.3109091 C37.7054389,22.1724719 37.7497045,22.0388073 37.8204711,21.9189091 C37.8923993,21.8000561 37.9383752,21.6673333 37.9553802,21.5294545 C38.0958859,21.4447708 38.1897251,21.3002585 38.2099257,21.1374545 L38.0113802,21.0381818 C37.8918605,20.9525193 37.7817873,20.8543921 37.6830166,20.7454545 C37.6830166,20.6156364 37.5481075,20.5494545 37.2859257,20.5494545 C37.1673816,20.5457439 37.0509698,20.581563 36.9550166,20.6512727 C36.8659257,20.7149091 36.7564711,20.7938182 36.6241075,20.8803636 L36.4942893,20.6258182 C36.5363871,20.5384927 36.5581443,20.4427611 36.5579257,20.3458182 L36.0310166,19.4625455 C35.8039266,19.3429632 35.5574546,19.2645403 35.3030166,19.2309091 C35.1272604,19.1976012 34.9462406,19.2045635 34.773562,19.2512727 C34.6035423,19.2755439 34.430369,19.2651535 34.2644711,19.2207273 C34.0728633,19.1985096 33.8809469,19.2597004 33.737562,19.3887273 C33.57339,19.5113266 33.4261716,19.6551213 33.2997438,19.8163636 C33.233562,19.8978182 33.3277438,20.0047273 33.1291984,19.964 C33.0676502,19.9135783 33.0128917,19.8553974 32.9662893,19.7909091 L35.9673802,16.7898182 C35.9873118,16.824076 36.0103155,16.8564516 36.0361075,16.8865455 C36.0793802,16.9298182 36.1684711,17.0290909 36.2906529,17.1843636 C36.3848348,17.2938182 36.4790166,17.4134545 36.5731984,17.5330909 C36.8277438,17.8181818 37.041562,18.1261818 37.237562,18.4443636 L37.2273802,18.4443636 Z M30.0364711,38.2683636 C30.2875437,38.46852 30.5755658,38.6172883 30.8841075,38.7061818 C30.0575485,38.877391 29.2179067,38.9778755 28.3742893,39.0065455 L28.3742893,36.1683636 L28.3742893,36.1683636 C28.4880684,36.3410896 28.6310519,36.4926867 28.7968348,36.6163636 C28.9843349,36.677895 29.1799067,36.7113481 29.3771984,36.7156364 C29.6750166,36.736 29.8226529,36.792 29.8226529,36.8785455 C29.8175493,36.9850528 29.7832017,37.0880955 29.7233802,37.1763636 C29.6638209,37.2657067 29.6295202,37.3694883 29.6241075,37.4767273 C29.6276768,37.7912112 29.7808122,38.0851933 30.0364711,38.2683636 Z M28.3717438,43.0181818 L28.3717438,40.0094545 C29.4774379,39.9735838 30.5763101,39.8217211 31.6502893,39.5563636 C31.6605146,39.5768375 31.6690285,39.5981222 31.6757438,39.62 C31.6835125,39.6474464 31.6886269,39.6755756 31.6910166,39.704 C31.9498194,39.8673352 32.1738547,40.0801256 32.3502893,40.3301818 C32.4368348,40.5058182 32.6786529,40.5847273 33.0757438,40.5847273 C33.2971984,40.5847273 33.4397438,40.5414545 33.5059257,40.4523636 C33.5775402,40.3625853 33.6549155,40.2775575 33.737562,40.1978182 C33.8317795,40.1079198 33.9448113,40.0401007 34.0684711,39.9992727 C34.1758156,39.9700008 34.2672825,39.8995712 34.3230166,39.8032727 C34.5211322,39.7325797 34.6861279,39.5911548 34.7862893,39.4061818 C34.9643891,39.2707964 35.1010559,39.0882801 35.1808348,38.8792727 C35.2858547,38.8641544 35.3789283,38.8036566 35.4353802,38.7138182 C35.5616712,38.5004512 35.6479347,38.2658142 35.6899257,38.0214545 L35.8044711,37.9527273 C35.8044711,37.9196364 35.8044711,37.8865455 35.8222893,37.8534545 C36.8551757,37.2527543 37.8174324,36.5381059 38.6910166,35.7229091 L40.8241075,37.8585455 C37.455314,41.0608617 33.0181926,42.8993827 28.3717438,43.0181818 Z M41.5419257,37.1636364 L39.4088348,35.028 C42.051441,32.2211868 43.5752997,28.5441874 43.6928348,24.6909091 L46.7142893,24.6909091 C46.5955957,29.3458444 44.7522991,33.7908017 41.5419257,37.1636364 Z M46.7142893,23.6981818 L43.6928348,23.6981818 C43.5938345,20.5107612 42.5285953,17.4286693 40.6382893,14.8603636 C40.6043878,14.7602613 40.5526444,14.6671231 40.485562,14.5854545 C40.4355183,14.5274228 40.3781967,14.47609 40.3150166,14.4327273 C40.0604711,14.1170909 39.8059257,13.8167273 39.5513802,13.524 C39.5170175,13.4559661 39.4905427,13.3842279 39.4724711,13.3101818 L41.5470166,11.2330909 C44.7512946,14.6012617 46.5924539,19.0381835 46.7142893,23.6854545 L46.7142893,23.6981818 Z M28.3717438,5.34545455 C33.0266444,5.46200607 37.4720585,7.30458488 40.8444711,10.5152727 L39.0066529,12.3530909 C38.9637085,12.2638829 38.928783,12.1710323 38.9022893,12.0756364 C38.7571984,11.9407273 38.6630166,11.8669091 38.6273802,11.8669091 C38.4576737,11.7952961 38.3398868,11.6375979 38.3193802,11.4545455 C38.3117373,11.2994326 38.2536399,11.1510608 38.1539257,11.032 C37.8643585,10.9258703 37.6265575,10.7126694 37.489562,10.4363636 C37.3113802,10.1334545 37.1357438,9.98072727 36.9601075,9.98072727 C36.8150997,10.0219255 36.6597146,10.0045589 36.5273802,9.93236364 C36.3906447,9.86956353 36.2443988,9.82999112 36.0946529,9.81527273 C35.9376344,9.81161405 35.7810935,9.83397704 35.6313802,9.88145455 C35.4641927,9.93403176 35.2942388,9.97736999 35.1222893,10.0112727 C35.098339,10.0322839 35.0762002,10.0552742 35.0561075,10.08 C33.053117,9.05582358 30.8533636,8.47419974 28.6059257,8.37454545 C28.781562,8.09963636 28.8019257,7.91890909 28.6721075,7.83236364 C28.6339257,7.79418182 28.5346529,7.85272727 28.3819257,7.99272727 L28.3717438,5.34545455 Z M28.3717438,9.36727273 C30.5119952,9.44029346 32.6106247,9.97884904 34.521562,10.9454545 C34.5205558,10.9598612 34.5205558,10.9743206 34.521562,10.9887273 C34.6004711,11.0701818 34.6870166,11.1669091 34.7761075,11.2789091 C34.8489936,11.3675957 34.9263038,11.452552 35.0077438,11.5334545 C35.0590151,11.7341774 35.125386,11.9307373 35.2062893,12.1214545 C35.2657803,12.2339991 35.3320854,12.3428075 35.4048348,12.4472727 C35.3614719,12.6380551 35.3972896,12.8382666 35.5041075,13.0021818 C35.6117132,13.1958006 35.7333728,13.3812677 35.8681075,13.5570909 C35.9536112,13.5518772 36.0386582,13.5408211 36.1226529,13.524 C36.2320242,13.5050817 36.3426103,13.494023 36.453562,13.4909091 C36.5418044,13.4909091 36.6410772,13.5570909 36.7513802,13.6894545 C36.8520695,13.8056984 36.9305809,13.9394266 36.9830166,14.084 C37.0113401,14.154153 37.0301731,14.2277728 37.0390166,14.3029091 L36.229562,15.1123636 L36.229562,15.1123636 C36.1501904,14.7261415 36.020093,14.3521114 35.8426529,14 C35.7027959,13.8684324 35.511182,13.806742 35.3208348,13.832 C35.277562,13.7887273 35.1248348,13.5978182 34.8626529,13.2618182 C34.6004711,12.9258182 34.4451984,12.7527273 34.4019257,12.7527273 C34.3295351,12.747177 34.2579625,12.7710345 34.2033802,12.8189091 C34.2415376,12.9001934 34.2857849,12.9784771 34.3357438,13.0530909 C34.3790166,13.1218182 34.4681075,13.2669091 34.5902893,13.4909091 C34.5954548,13.5273546 34.5831813,13.5641078 34.5571528,13.5901362 C34.5311243,13.6161647 34.4943712,13.6284382 34.4579257,13.6232727 C34.491542,13.7911412 34.621499,13.9230976 34.7888348,13.9592727 L34.7226529,14.0890909 L34.9161075,14.476 C33.0066319,13.0795573 30.7251878,12.2821593 28.361562,12.1850909 L28.3717438,9.36727273 Z M28.3717438,13.2083636 C30.9384314,13.3228198 33.3830589,14.3365337 35.277562,16.072 L33.2411984,18.1083636 C31.8908737,16.9018464 30.1739663,16.1846005 28.3666529,16.072 L28.3717438,13.2083636 Z M28.3717438,17.0901818 C29.8117305,17.189244 31.1864425,17.728643 32.309562,18.6352727 C32.2599389,18.6520205 32.2134762,18.6769727 32.1721075,18.7090909 C32.1323951,18.746261 32.0878771,18.7779373 32.0397438,18.8032727 C31.9939257,18.8236364 31.973562,18.8770909 31.973562,18.9585455 C31.973562,19.04 32.1211984,19.1087273 32.2281075,19.1265455 L31.4491984,19.9054545 L31.4491984,19.9054545 C31.3425525,19.9626025 31.2433768,20.0327095 31.1539257,20.1141818 C30.9731984,20.2032727 30.8739257,20.2821818 30.8510166,20.3483636 C30.8281075,20.4145455 30.8128348,20.4730909 30.7873802,20.5774545 L30.5328348,20.832 C30.4964986,20.842772 30.4587284,20.8479224 30.4208348,20.8472727 C30.3317438,20.8472727 30.1942893,20.7581818 30.0161075,20.5774545 C29.8379257,20.3967273 29.7030166,20.3229091 29.6113802,20.3229091 C29.5007188,20.3138625 29.3912003,20.3506755 29.3084711,20.4247273 C29.2470844,20.4899039 29.1486498,20.5036636 29.0717438,20.4578182 C28.9826529,20.3661818 29.0717438,20.2669091 29.3746529,20.1549091 C29.677562,20.0429091 29.8582893,19.964 29.9499257,19.9181818 C30.2957052,19.6686187 30.4935234,19.2624701 30.4768348,18.8363636 C30.4768348,18.6123636 30.3851984,18.4978182 30.2044711,18.4978182 L30.0033802,18.6887273 C29.8287271,18.7697491 29.6680573,18.8780079 29.5273802,19.0094545 C29.3924711,19.1367273 29.2728348,19.2436364 29.1913802,19.3327273 C29.0633801,19.2795905 28.9250186,19.2560952 28.7866529,19.264 L28.389562,19.264 L28.3691984,19.2843636 L28.3717438,17.0901818 Z M27.7862893,21.6363636 C27.8193802,21.7025455 27.8601075,21.7381818 27.9059257,21.7381818 C28.0215876,21.7355159 28.134708,21.772325 28.2266529,21.8425455 C28.3285095,21.9062724 28.4532007,21.9220914 28.5677438,21.8858182 C28.5781891,21.933577 28.6041442,21.9765371 28.641562,22.008 C28.6888365,22.1032561 28.790345,22.1590858 28.8961075,22.148 C28.9259522,22.1741896 28.9532276,22.2031697 28.977562,22.2345455 C28.9939785,22.2565631 29.0076548,22.2804966 29.0182893,22.3058182 C29.0476127,22.3866093 29.0833635,22.4649206 29.1251984,22.54 L29.1531984,22.54 C29.1531984,22.5603636 29.1684711,22.5756364 29.1786529,22.5934545 C29.2419252,22.6344054 29.3193377,22.6473075 29.3924711,22.6290909 C29.4477784,22.6155313 29.5060351,22.6209089 29.5579257,22.6443636 C29.5579257,22.6927273 29.5579257,22.7410909 29.5579257,22.7945455 L29.5986529,22.7945455 C29.6046999,22.848522 29.6140508,22.9020771 29.6266529,22.9549091 C29.6477275,23.0510861 29.6588166,23.1491818 29.6597438,23.2476364 L29.6597438,23.38 C29.6614461,23.3984814 29.6546545,23.4167344 29.6412856,23.4296081 C29.6279168,23.4424818 29.6094206,23.44858 29.5910166,23.4461818 C29.4684611,23.541206 29.3917339,23.6835672 29.3797438,23.8381818 C29.3797438,23.9247273 29.4357438,23.9578182 29.5528348,23.9349091 C29.650543,23.9013034 29.7582227,23.9432985 29.8073802,24.0341818 C29.9077741,24.1389288 29.958705,24.2815353 29.9473802,24.4261818 L29.9473802,25.0116364 C29.9419447,25.0915644 29.9811188,25.1679538 30.0491984,25.2101818 C30.1128348,25.2534545 30.1484711,25.2967273 30.1484711,25.34 C30.1437792,25.5057935 30.1207294,25.6705566 30.0797438,25.8312727 C30.055364,25.9882198 29.9864545,26.1348732 29.8811984,26.2538182 C29.8353802,26.2970909 29.7208348,26.2970909 29.5401075,26.2538182 C29.3844262,26.2143184 29.2246975,26.1929642 29.0641075,26.1901818 C28.9724711,26.1901818 28.8808348,26.32 28.7917438,26.5821818 C28.7092729,26.7757003 28.640379,26.9747272 28.585562,27.1778182 C28.5397438,27.3534545 28.4506529,27.4323636 28.3131984,27.4323636 C28.2213897,27.4320598 28.1298997,27.4431754 28.0408348,27.4654545 L28.0001075,27.4909091 L27.7761075,27.8472727 L27.7048348,27.944 C26.9578451,27.8918252 26.2522896,27.5813448 25.7091984,27.0658182 L26.0502893,26.7272727 C26.2671555,26.7000284 26.4804885,26.6496819 26.6866529,26.5770909 L26.8011984,26.5312727 C27.1550166,26.376 27.1219257,26.0909091 27.3102893,25.7829091 C27.4248348,25.5792727 27.7557438,25.3552727 27.4884711,25.1261818 C27.7888348,24.6170909 26.4091984,24.5992727 26.1673802,24.7163636 C25.8822893,24.8512727 26.065562,25.1541818 25.9128348,25.3832727 C25.8339257,25.5029091 25.7091984,25.5054545 25.5997438,25.5869091 C25.3747485,25.7693491 25.1996093,26.005787 25.0906529,26.2741818 L25.0906529,26.2741818 C25.0008607,26.1112048 24.9250731,25.9408957 24.8641075,25.7650909 C24.8816235,25.7604503 24.900046,25.7604503 24.917562,25.7650909 C24.8921075,25.7116364 24.8819257,25.6709091 24.8997438,25.6530909 L24.945562,25.6530909 L24.945562,25.7192727 C25.1211984,25.7625455 25.2331984,25.7625455 25.2764711,25.7192727 C25.3161253,25.5998255 25.349265,25.4783133 25.3757438,25.3552727 C25.469149,25.0834777 25.5911671,24.8223759 25.7397438,24.5763636 C25.6599456,24.5372964 25.6019811,24.4643733 25.5819257,24.3778182 C25.561562,24.2895758 25.5106529,24.2666667 25.4291984,24.3090909 C25.3508618,24.3451932 25.3010276,24.4239311 25.3019257,24.5101818 C25.2944721,24.6073264 25.2508773,24.698149 25.1797438,24.7647273 C25.1162171,24.8413699 25.0244249,24.8891018 24.9251984,24.8970909 C24.9329467,24.8424226 24.9145363,24.7872929 24.8754936,24.7482502 C24.836451,24.7092075 24.7813213,24.6907972 24.7266529,24.6985455 C24.6280522,24.7086673 24.5370208,24.7560036 24.4721075,24.8309091 C24.3830166,24.8309091 24.1742893,24.8538182 23.8433802,24.8970909 C23.6373301,24.9443686 23.4232485,24.9443686 23.2171984,24.8970909 C23.1281075,24.8105455 23.2401075,24.7214545 23.5481075,24.6425455 C23.5178008,24.3375466 23.6419863,24.0375907 23.8790166,23.8432727 C23.999767,23.9146337 24.1342056,23.9597356 24.273562,23.9756364 L24.4059257,23.8432727 L24.4721075,23.8432727 C24.6044711,23.8432727 24.6808348,23.9552727 24.7037438,24.1767273 C24.7266529,24.3981818 24.7801075,24.5101818 24.8691984,24.5101818 C24.968184,24.5013612 25.0596748,24.453786 25.1237438,24.3778182 L25.1237438,24.0570909 C25.2102893,23.7032727 25.2764711,23.4589091 25.3197438,23.324 L25.3197438,23.1229091 C25.3686807,23.0031454 25.4394593,22.8935248 25.5284711,22.7996364 L25.6022893,22.7996364 C25.6904631,22.7271315 25.7955372,22.6780969 25.9077438,22.6570909 C25.9801653,22.5320206 26.0260865,22.3933905 26.0426529,22.2498182 C26.1750166,22.2065455 26.4066529,22.1149091 26.737562,21.9774545 C27.0684711,21.84 27.2466529,21.7076364 27.2466529,21.5727273 L27.2466529,21.5370909 C27.3943077,21.5053911 27.5440112,21.4841264 27.6946529,21.4734545 C27.7054373,21.5367217 27.7378215,21.5942935 27.7862893,21.6363636 Z M27.3688348,5.34545455 L27.3688348,8.36181818 C23.5178755,8.4818946 19.8438609,10.0065473 17.0393802,12.6483636 L14.9062893,10.5127273 C18.2765061,7.30529682 22.7178176,5.46382165 27.3688348,5.34545455 L27.3688348,5.34545455 Z M14.1961075,11.2203636 L16.3317438,13.356 C13.6908562,16.1608617 12.1671268,19.8348332 12.0477438,23.6854545 L9.0262893,23.6854545 C9.14665312,19.0336201 10.9888218,14.5919166 14.1961075,11.2203636 L14.1961075,11.2203636 Z" id="_Compound_Path_"></path>
                    </g>
                    <path d="M76.7272808,8.56308676 L76.7272808,19.0015509 C76.7272808,20.7358612 76.1864473,22.1073245 75.1047642,23.115982 C74.0230811,24.1246394 72.5452854,24.6289606 70.6713327,24.6289606 C68.8263214,24.6289606 67.3611873,24.1391523 66.2758865,23.1595209 C65.1905857,22.1798896 64.6370906,20.8338237 64.6153846,19.121283 L64.6153846,8.56308676 L67.8712707,8.56308676 L67.8712707,19.0233203 C67.8712707,20.0610039 68.1190773,20.8174857 68.614698,21.2927883 C69.1103187,21.7680909 69.7958567,22.0057386 70.6713327,22.0057386 C72.5018734,22.0057386 73.4316004,21.0406348 73.4605418,19.1103982 L73.4605418,8.56308676 L76.7272808,8.56308676 Z M82.0777869,12.6339789 L82.1754635,13.9945712 C83.0147627,12.9423746 84.139841,12.4162841 85.550732,12.4162841 C86.7952103,12.4162841 87.7213197,12.7827333 88.3290881,13.5156427 C88.9368566,14.2485521 89.2479715,15.3442715 89.2624421,16.8028337 L89.2624421,24.4112658 L86.1259386,24.4112658 L86.1259386,16.8790269 C86.1259386,16.2114262 85.981234,15.7270602 85.6918204,15.4259143 C85.4024069,15.1247684 84.9212641,14.9741977 84.2483776,14.9741977 C83.3656663,14.9741977 82.7036427,15.3515315 82.2622871,16.1062104 L82.2622871,24.4112658 L79.1257835,24.4112658 L79.1257835,12.6339789 L82.0777869,12.6339789 Z M94.9493898,24.4112658 L91.8020333,24.4112658 L91.8020333,12.6339789 L94.9493898,12.6339789 L94.9493898,24.4112658 Z M91.6175331,9.58625217 C91.6175331,9.11457781 91.7748993,8.72635936 92.0896365,8.42158516 C92.4043738,8.11681096 92.8330611,7.96442615 93.3757115,7.96442615 C93.9111266,7.96442615 94.3380052,8.11681096 94.6563601,8.42158516 C94.9747149,8.72635936 95.13389,9.11457781 95.13389,9.58625217 C95.13389,10.0651831 94.9729061,10.4570297 94.6509336,10.7618039 C94.328961,11.0665781 93.9038912,11.2189629 93.3757115,11.2189629 C92.8475318,11.2189629 92.4224621,11.0665781 92.1004895,10.7618039 C91.7785169,10.4570297 91.6175331,10.0651831 91.6175331,9.58625217 Z M101.287515,9.73863851 L101.287515,12.6339789 L103.295311,12.6339789 L103.295311,14.9415434 L101.287515,14.9415434 L101.287515,20.8193022 C101.287515,21.2546939 101.37072,21.5667199 101.537133,21.7553897 C101.703545,21.9440594 102.021896,22.0383929 102.492193,22.0383929 C102.839489,22.0383929 103.146986,22.0129954 103.414694,21.9621997 L103.414694,24.3459574 C102.79969,24.5346271 102.166607,24.6289606 101.515427,24.6289606 C99.3158838,24.6289606 98.1944231,23.5151002 98.1510111,21.2873459 L98.1510111,14.9415434 L96.4362444,14.9415434 L96.4362444,12.6339789 L98.1510111,12.6339789 L98.1510111,9.73863851 L101.287515,9.73863851 Z M110.447407,24.6289606 C108.725397,24.6289606 107.323571,24.099242 106.241888,23.0397888 C105.160205,21.9803356 104.619371,20.568962 104.619371,18.8056256 L104.619371,18.5008529 C104.619371,17.3180387 104.847281,16.2604156 105.303107,15.3279517 C105.758934,14.3954877 106.404678,13.6771022 107.24036,13.1727735 C108.076041,12.6684447 109.029283,12.4162841 110.100113,12.4162841 C111.706358,12.4162841 112.970715,12.9242335 113.89322,13.9401475 C114.815726,14.9560615 115.276972,16.3964608 115.276972,18.2613886 L115.276972,19.5457878 L107.799287,19.5457878 C107.900582,20.3149798 108.20627,20.9317755 108.716361,21.3961933 C109.226453,21.8606111 109.872197,22.0928166 110.653614,22.0928166 C111.861915,22.0928166 112.806113,21.6538032 113.486234,20.7757632 L115.027354,22.5064366 C114.557057,23.1740372 113.920357,23.6946853 113.117234,24.0683966 C112.314111,24.4421078 111.424178,24.6289606 110.447407,24.6289606 Z M110.08926,14.9633129 C109.467021,14.9633129 108.962364,15.1737491 108.575273,15.5946277 C108.188182,16.0155064 107.940376,16.6177892 107.831846,17.4014943 L112.194733,17.4014943 L112.194733,17.1511453 C112.180262,16.4545186 111.992146,15.9157294 111.630379,15.5347617 C111.268612,15.1537939 110.754911,14.9633129 110.08926,14.9633129 Z M116.568473,18.4355445 C116.568473,16.5996427 116.979073,15.1374742 117.800284,14.0489949 C118.621494,12.9605156 119.744764,12.4162841 121.170126,12.4162841 C122.313309,12.4162841 123.257507,12.8444129 124.002746,13.7006833 L124.002746,7.69230769 L127.150103,7.69230769 L127.150103,24.4112658 L124.317482,24.4112658 L124.165541,23.1595209 C123.384124,24.1391523 122.378427,24.6289606 121.14842,24.6289606 C119.76647,24.6289606 118.657671,24.082915 117.821989,22.9908075 C116.986308,21.8986999 116.568473,20.3802941 116.568473,18.4355445 Z M119.704977,18.664124 C119.704977,19.7671163 119.89671,20.6124892 120.280183,21.200268 C120.663656,21.7880468 121.220769,22.0819318 121.951538,22.0819318 C122.921074,22.0819318 123.604803,21.6719441 124.002746,20.8519564 L124.002746,16.2041731 C123.612038,15.3841854 122.935544,14.9741977 121.973244,14.9741977 C120.461058,14.9741977 119.704977,16.2041608 119.704977,18.664124 Z M77.617223,43.6284591 L74.3613369,43.6284591 L68.023212,33.2008797 L68.023212,43.6284591 L64.767326,43.6284591 L64.767326,27.78028 L68.023212,27.78028 L74.3721899,38.2296288 L74.3721899,27.78028 L77.617223,27.78028 L77.617223,43.6284591 Z M87.0592926,43.6284591 C86.9145858,43.3454545 86.809675,42.9935181 86.7445569,42.5726395 C85.9848464,43.4216533 84.9972375,43.8461538 83.7817006,43.8461538 C82.6312818,43.8461538 81.6780402,43.5123585 80.9219473,42.8447579 C80.1658545,42.1771573 79.7878137,41.3354126 79.7878137,40.3194986 C79.7878137,39.0713757 80.2490596,38.1135283 81.1715653,37.4459277 C82.0940709,36.7783271 83.4271621,36.4409035 85.1708786,36.433647 L86.6143215,36.433647 L86.6143215,35.7587932 C86.6143215,35.2145536 86.4750433,34.7791684 86.1964828,34.4526246 C85.9179222,34.1260809 85.478382,33.9628114 84.8778489,33.9628114 C84.3496692,33.9628114 83.9354523,34.0897988 83.6351857,34.3437773 C83.3349192,34.5977558 83.1847881,34.9460639 83.1847881,35.3887121 L80.0482846,35.3887121 C80.0482846,34.7065985 80.2581062,34.0752899 80.6777559,33.4947677 C81.0974055,32.9142454 81.6906944,32.458905 82.4576403,32.128733 C83.2245861,31.7985609 84.0855785,31.6334774 85.0406432,31.6334774 C86.4877109,31.6334774 87.6363037,31.9981125 88.486456,32.7273936 C89.3366082,33.4566747 89.761678,34.481644 89.761678,35.8023322 L89.761678,40.9072745 C89.7689133,42.0247799 89.9244708,42.8701528 90.228355,43.4434185 L90.228355,43.6284591 L87.0592926,43.6284591 Z M84.4654367,41.4406267 C84.9284983,41.4406267 85.3553769,41.3372227 85.7460852,41.1304116 C86.1367935,40.9236006 86.4262027,40.6460425 86.6143215,40.2977291 L86.6143215,38.2731678 L85.4422025,38.2731678 C83.872134,38.2731678 83.036465,38.8173993 82.9351702,39.9058786 L82.9243173,40.0909191 C82.9243173,40.4827717 83.0617866,40.8056823 83.3367295,41.0596608 C83.6116724,41.3136393 83.9879043,41.4406267 84.4654367,41.4406267 Z M95.9261556,28.9558318 L95.9261556,31.8511722 L97.933952,31.8511722 L97.933952,34.1587367 L95.9261556,34.1587367 L95.9261556,40.0364954 C95.9261556,40.4718871 96.0093608,40.7839132 96.1757735,40.9725829 C96.3421863,41.1612527 96.6605365,41.2555861 97.1308335,41.2555861 C97.4781297,41.2555861 97.785627,41.2301886 98.0533345,41.1793929 L98.0533345,43.5631506 C97.4383307,43.7518204 96.8052481,43.8461538 96.1540676,43.8461538 C93.9545247,43.8461538 92.8330641,42.7322934 92.789652,40.5045392 L92.789652,34.1587367 L91.0748854,34.1587367 L91.0748854,31.8511722 L92.789652,31.8511722 L92.789652,28.9558318 L95.9261556,28.9558318 Z M102.991428,43.6284591 L99.8440719,43.6284591 L99.8440719,31.8511722 L102.991428,31.8511722 L102.991428,43.6284591 Z M99.6595716,28.8034454 C99.6595716,28.3317711 99.8169379,27.9435526 100.131675,27.6387784 C100.446412,27.3340042 100.8751,27.1816194 101.41775,27.1816194 C101.953165,27.1816194 102.380044,27.3340042 102.698399,27.6387784 C103.016754,27.9435526 103.175929,28.3317711 103.175929,28.8034454 C103.175929,29.2823763 103.014945,29.674223 102.692972,29.9789972 C102.371,30.2837714 101.94593,30.4361562 101.41775,30.4361562 C100.88957,30.4361562 100.464501,30.2837714 100.142528,29.9789972 C99.8205555,29.674223 99.6595716,29.2823763 99.6595716,28.8034454 Z M105.086048,37.6309682 C105.086048,36.4626671 105.310341,35.4213709 105.758932,34.5070483 C106.207523,33.5927257 106.853267,32.8852248 107.696184,32.3845243 C108.539101,31.8838239 109.517666,31.6334774 110.631908,31.6334774 C112.216447,31.6334774 113.509744,32.1196575 114.511839,33.0920323 C115.513933,34.0644072 116.072854,35.3850755 116.18862,37.0540771 L116.210326,37.8595477 C116.210326,39.6664233 115.707477,41.1158932 114.701765,42.2080007 C113.696053,43.3001083 112.346683,43.8461538 110.653614,43.8461538 C108.960544,43.8461538 107.609365,43.3019224 106.600035,42.2134431 C105.590706,41.1249638 105.086048,39.6446542 105.086048,37.7724698 L105.086048,37.6309682 Z M108.222552,37.8595477 C108.222552,38.9770531 108.432374,39.8314966 108.852023,40.4229036 C109.271673,41.0143107 109.872197,41.3100098 110.653614,41.3100098 C111.413324,41.3100098 112.006613,41.0179389 112.433498,40.4337884 C112.860383,39.8496378 113.073822,38.9153738 113.073822,37.6309682 C113.073822,36.5352324 112.860383,35.6862313 112.433498,35.0839395 C112.006613,34.4816476 111.406089,34.1805062 110.631908,34.1805062 C109.864962,34.1805062 109.271673,34.4798335 108.852023,35.0784971 C108.432374,35.6771607 108.222552,36.6041683 108.222552,37.8595477 Z M121.029037,31.8511722 L121.126714,33.2117645 C121.966013,32.1595678 123.091091,31.6334774 124.501982,31.6334774 C125.746461,31.6334774 126.67257,31.9999266 127.280338,32.732836 C127.888107,33.4657454 128.199222,34.5614647 128.213692,36.020027 L128.213692,43.6284591 L125.077189,43.6284591 L125.077189,36.0962201 C125.077189,35.4286195 124.932484,34.9442535 124.643071,34.6431076 C124.353657,34.3419616 123.872514,34.1913909 123.199628,34.1913909 C122.316917,34.1913909 121.654893,34.5687247 121.213537,35.3234037 L121.213537,43.6284591 L118.077034,43.6284591 L118.077034,31.8511722 L121.029037,31.8511722 Z M136.95032,40.3739223 C136.95032,39.9893263 136.760395,39.6863708 136.38054,39.4650467 C136.000685,39.2437225 135.391117,39.0459851 134.551817,38.8718284 C131.758977,38.2840496 130.362577,37.0939968 130.362577,35.3016342 C130.362577,34.2566941 130.794882,33.3841097 131.659505,32.6838547 C132.524128,31.9835996 133.654633,31.6334774 135.051053,31.6334774 C136.541533,31.6334774 137.733537,31.9854138 138.627101,32.689297 C139.520666,33.3931803 139.967441,34.3074892 139.967441,35.4322511 L136.830938,35.4322511 C136.830938,34.9823463 136.686233,34.6104548 136.396819,34.3165654 C136.107406,34.022676 135.655204,33.8757335 135.0402,33.8757335 C134.512021,33.8757335 134.10323,33.9954644 133.813816,34.2349299 C133.524403,34.4743953 133.379698,34.7791649 133.379698,35.1492479 C133.379698,35.4975613 133.5443,35.7787475 133.873508,35.9928151 C134.202716,36.2068827 134.75802,36.3919214 135.539436,36.5479368 C136.320853,36.7039521 136.979259,36.8799203 137.514674,37.0758466 C139.171566,37.685395 140,38.741204 140,40.2433054 C140,41.3172717 139.540563,42.1862279 138.621675,42.8502003 C137.702787,43.5141726 136.516209,43.8461538 135.061906,43.8461538 C134.0779,43.8461538 133.204246,43.6701857 132.440918,43.318244 C131.67759,42.9663024 131.078874,42.4837505 130.644754,41.8705738 C130.210634,41.2573972 129.993577,40.5952489 129.993577,39.8841091 L132.967286,39.8841091 C132.996227,40.4428618 133.202432,40.8709905 133.585904,41.1685082 C133.969377,41.4660259 134.483079,41.6147825 135.127024,41.6147825 C135.727557,41.6147825 136.181568,41.5004939 136.48907,41.2719132 C136.796571,41.0433326 136.95032,40.7440053 136.95032,40.3739223 Z" id="UnitedNations" fill="#000000"></path>
                </g>
            </g>
        </g>
    </g>
</svg>