<svg xmlns="http://www.w3.org/2000/svg" width="208" height="26" viewBox="0 0 208 26">
    <g fill="none" fill-rule="nonzero">
        <path fill="#4D4D4D" d="M52.633 6.07v9.834c0 1.634-.511 2.926-1.533 3.876-1.022.95-2.418 1.425-4.189 1.425-1.743 0-3.127-.461-4.153-1.384-1.025-.923-1.548-2.191-1.569-3.804V6.07h3.077v9.854c0 .978.234 1.69.702 2.138.468.448 1.116.672 1.943.672 1.73 0 2.608-.91 2.635-2.728V6.07h3.087zM67.296 21H64.22l-5.989-9.823V21h-3.076V6.07h3.076l5.999 9.844V6.07h3.066V21zm5.957 0h-3.076V6.07h3.076V21zm14.09-12.438h-4.574V21h-3.076V8.562H75.18V6.07h12.161v2.492zm10.735 5.968h-5.906v3.999h6.932V21H89.096V6.07h9.987v2.492h-6.911v3.558h5.906v2.41zm2.83 6.47V6.07h4.594c1.312 0 2.487.296 3.522.887 1.036.592 1.844 1.432 2.425 2.523.581 1.09.872 2.33.872 3.717v.687c0 1.387-.286 2.621-.856 3.701a6.132 6.132 0 0 1-2.415 2.513c-1.04.594-2.212.895-3.517.902h-4.625zm3.076-12.438v9.967h1.487c1.203 0 2.123-.393 2.758-1.18.636-.786.96-1.91.975-3.373v-.79c0-1.517-.315-2.667-.944-3.45-.629-.783-1.548-1.174-2.758-1.174h-1.518zM131.926 21h-3.076l-5.988-9.823V21h-3.076V6.07h3.076l5.998 9.844V6.07h3.066V21zm11.116-3.076h-5.394L136.623 21h-3.271l5.557-14.93h2.85L147.35 21h-3.272l-1.035-3.076zm-4.563-2.492h3.732l-1.877-5.588-1.855 5.588zm21.502-6.87h-4.573V21h-3.076V8.562h-4.512V6.07h12.161v2.492zM165.005 21h-3.076V6.07h3.076V21zm15.115-7.126c0 1.47-.26 2.758-.78 3.865-.52 1.108-1.263 1.962-2.23 2.564-.967.601-2.076.902-3.327.902-1.238 0-2.342-.297-3.312-.892-.971-.595-1.723-1.444-2.256-2.548-.533-1.104-.803-2.374-.81-3.81v-.738c0-1.47.265-2.763.794-3.88.53-1.118 1.279-1.976 2.246-2.575.967-.598 2.073-.897 3.317-.897 1.244 0 2.35.3 3.317.897.968.599 1.716 1.457 2.246 2.574.53 1.118.795 2.408.795 3.871v.667zm-3.118-.677c0-1.566-.28-2.755-.84-3.569-.56-.813-1.36-1.22-2.4-1.22-1.032 0-1.828.402-2.389 1.205-.56.803-.844 1.98-.851 3.533v.728c0 1.524.28 2.707.84 3.547.561.841 1.368 1.262 2.42 1.262 1.033 0 1.826-.405 2.38-1.215.553-.81.834-1.991.84-3.543v-.728zM194.496 21h-3.077l-5.988-9.823V21h-3.076V6.07h3.076l5.999 9.844V6.07h3.066V21zm10.428-3.917c0-.581-.205-1.027-.615-1.338-.41-.311-1.149-.64-2.215-.985-1.067-.345-1.91-.685-2.533-1.02-1.695-.916-2.543-2.15-2.543-3.701 0-.807.227-1.527.682-2.159.455-.632 1.107-1.126 1.958-1.482.852-.355 1.807-.533 2.866-.533 1.067 0 2.017.193 2.851.58.834.386 1.482.931 1.943 1.635.462.704.692 1.504.692 2.4h-3.076c0-.684-.215-1.216-.646-1.595-.43-.38-1.036-.57-1.815-.57-.752 0-1.336.16-1.753.478a1.504 1.504 0 0 0-.626 1.256c0 .485.245.892.733 1.22.49.328 1.209.636 2.159.923 1.75.526 3.025 1.18 3.825 1.958.8.78 1.2 1.75 1.2 2.912 0 1.292-.49 2.306-1.467 3.04-.978.736-2.294 1.103-3.948 1.103-1.148 0-2.194-.21-3.138-.63-.943-.42-1.662-.997-2.158-1.728-.496-.732-.743-1.58-.743-2.543h3.086c0 1.647.984 2.47 2.953 2.47.732 0 1.302-.148 1.713-.445.41-.298.615-.713.615-1.246z"/>
        <path fill="#00ADEF" d="M3.105 7.252c.38-.306.83-.682 1.35-1.129.19-.163.344-.305.462-.423.122-.124.224-.266.302-.422.096-.2.179-.407.248-.618l.338-1.005h-.037c-.137.337-.35.638-.62.88-.262.221-.535.428-.818.619a7.739 7.739 0 0 0-.887.705 3.775 3.775 0 0 0-.799 1.111v-.035c.212-.611.37-1.129.476-1.552.106-.424.202-.794.29-1.11.07-.288.177-.566.317-.828.154-.265.362-.494.61-.672v-.036c-.64.17-1.194.57-1.554 1.127-.4.581-.61 1.272-.601 1.977v2.47c.242-.406.554-.764.923-1.059zm1.668-3.016c.32-.33.62-.677.9-1.04l.776-1.004c.245-.316.523-.606.829-.865l-.036-.035c-.23.198-.5.343-.793.423-.353.11-.69.264-1.005.458A3.584 3.584 0 0 0 4.42 3.182c-.33.454-.612 1.13-.847 2.026a6.735 6.735 0 0 0 1.199-.972zM.818 13.46c.241.362.505.71.788 1.04.326.39.614.808.86 1.252h.028a3.577 3.577 0 0 1-.04-.57v-.495c.027-.319.094-.633.2-.934.133-.435.273-.917.418-1.446.146-.529.273-1.064.38-1.605.104-.472.136-.958.094-1.44H3.51a3.044 3.044 0 0 1-.374.899c-.178.294-.36.6-.545.918a7.04 7.04 0 0 0-.498 1.022 3.228 3.228 0 0 0-.212 1.181c.007.196.036.391.084.581.038.145.066.293.085.442h-.036c-.088-.504-.22-1-.395-1.48a32.43 32.43 0 0 0-.528-1.306 16.69 16.69 0 0 1-.43-1.09 2.59 2.59 0 0 1-.173-.819 5.6 5.6 0 0 1 .023-.565 5.12 5.12 0 0 0 .024-.529H.496c-.11.3-.205.606-.283.917-.105.37-.16.75-.168 1.134a5.707 5.707 0 0 0 .21 1.71c.133.418.323.816.563 1.183zm6.42 9.557c.305.029.613.023.917-.017.163-.024.375-.058.634-.105.259-.048.593-.125 1.003-.23.41-.107.955-.24 1.637-.41a21.815 21.815 0 0 1-1.163-.334 2.644 2.644 0 0 1-.986-.614c-.4-.35-.8-.714-1.199-1.09-.31-.292-.638-.565-.955-.852-.09-.08-.552-.49-.681-.624l-.036.037c.053.084.488.954.488.954s.069.094.096.145c.118.209.234.419.348.63.045.083.088.166.136.25.138.271.338.505.585.683.299.28.793.526 1.482.737v.034c-.3-.046-.553-.087-.758-.122A27.136 27.136 0 0 0 8.217 22a6.599 6.599 0 0 0-.518-.051c-.21-.015-.425-.026-.634-.06-.166-.024-.329-.055-.496-.074l-.49-.056-.253-.029a6.056 6.056 0 0 1-.887-.158 3.052 3.052 0 0 1-.798-.335 5.107 5.107 0 0 1-.85-.652l-.035.035c.137.24.297.463.48.67.224.26.474.498.744.71.317.252.669.457 1.044.609.444.178.908.3 1.383.36l.331.047zm-5.5-11.045h.044c.02-.19.055-.38.104-.565.066-.205.153-.402.26-.589.166-.292.348-.575.546-.847.233-.33.545-.776.94-1.34a4.56 4.56 0 0 0 .559-1.227c.139-.471.232-.812.28-1.023h-.036a1.4 1.4 0 0 1-.157.3 4.76 4.76 0 0 1-.227.282c-.09.107-.22.218-.37.36-.148.142-.352.329-.609.563-.463.424-.765.812-.905 1.165a7.488 7.488 0 0 0-.348 1.163h-.035c.015-.188.026-.37.034-.545a13.635 13.635 0 0 0-.056-1.916 20.574 20.574 0 0 1-.067-1.834c-.002-.231.045-.46.136-.671.093-.212.175-.41.243-.599h-.028a5.935 5.935 0 0 0-1.022 1.774A5.305 5.305 0 0 0 .751 8.06c.006.635.13 1.264.369 1.854.256.671.462 1.361.616 2.063l.001-.005zm3.681 9.136l1.474.322.767.176c-.273-.23-.75-.993-.75-.993a4.966 4.966 0 0 1-.461-.97 49.552 49.552 0 0 0-.6-1.533 4.696 4.696 0 0 0-.23-.565 8.34 8.34 0 0 0-.284-.511 12.393 12.393 0 0 0-.389-.599c-.153-.224-.35-.5-.585-.83l-.034.036c.07.235.169.659.299 1.27.13.61.252 1.188.37 1.728.07.402.234.782.475 1.111.283.381.608.73.968 1.04l-.035.036c-.167-.048-.449-.236-.851-.565a6.08 6.08 0 0 0-1.275-.811 19.636 19.636 0 0 1-2.11-1.182A3.185 3.185 0 0 1 1.01 16.88l-.035.035c.132.562.356 1.098.662 1.587.288.46.64.876 1.048 1.234a6.123 6.123 0 0 0 2.727 1.376l.008-.004zM2.112 17.48l2.605 1.727a8.281 8.281 0 0 1-.292-.67 3.71 3.71 0 0 1-.19-.706c-.046-.259-.086-.546-.12-.863-.035-.318-.074-.7-.12-1.147a41.623 41.623 0 0 0-.242-1.798 7.535 7.535 0 0 0-.378-1.376H3.34a8.38 8.38 0 0 1-.054 1.024c-.03.26-.076.52-.136.776a7.013 7.013 0 0 0-.136.652 3.955 3.955 0 0 0-.053.681c.018.346.095.686.227 1.005.122.344.266.68.43 1.005l-.036.036a10.267 10.267 0 0 0-1.18-1.57c-.386-.41-.738-.786-1.055-1.127a8.336 8.336 0 0 1-.81-1.005 2.924 2.924 0 0 1-.448-1.23c-.028.11-.05.222-.067.335a2.409 2.409 0 0 0-.022.336c.002.414.074.825.211 1.216.135.4.312.784.528 1.147.196.333.424.646.682.934.205.232.437.44.691.618zM23.546 2.196c.247.318.505.653.775 1.005.28.363.58.71.9 1.039.36.368.763.693 1.198.97-.234-.898-.516-1.574-.845-2.028a3.6 3.6 0 0 0-1.023-1.007 4.575 4.575 0 0 0-1.005-.458 2.063 2.063 0 0 1-.795-.422l-.035.035c.306.26.584.55.83.866zm2.318 19.06c-.25.148-.518.26-.799.334a6.237 6.237 0 0 1-.886.16l-.253.026-.49.056c-.167.02-.33.05-.495.075-.21.033-.425.044-.636.059a7.45 7.45 0 0 0-.517.052 19.62 19.62 0 0 0-.568.087c-.208.034-.459.076-.759.123v-.034c.69-.211 1.185-.457 1.483-.738.245-.179.445-.412.585-.682.043-.083.087-.168.136-.25.113-.212.23-.42.346-.63.03-.051.097-.145.097-.145s.434-.873.488-.955l-.035-.037c-.136.137-.597.546-.682.625-.315.286-.643.559-.954.85-.399.376-.798.74-1.198 1.092-.28.274-.617.484-.987.615-.327.105-.716.215-1.162.332.682.165 1.228.301 1.637.41.409.106.746.182 1.005.23.259.048.47.082.634.105.174.025.35.037.527.035.13.001.26-.005.39-.017.11-.01.333-.036.333-.036a5.56 5.56 0 0 0 1.383-.36 4.2 4.2 0 0 0 1.046-.608c.27-.213.52-.45.744-.71a4.25 4.25 0 0 0 .479-.67l-.035-.035a5.257 5.257 0 0 1-.862.64h.005zm1.976-2.98c-.678.437-1.383.832-2.11 1.182-.457.217-.886.49-1.276.812-.4.33-.682.516-.85.563l-.035-.034c.36-.31.685-.66.968-1.04.242-.33.405-.71.476-1.112.118-.54.24-1.116.37-1.728.136-.61.229-1.035.298-1.27l-.035-.035c-.236.33-.43.606-.584.83-.154.223-.282.422-.388.598-.107.176-.2.348-.284.511-.09.183-.166.372-.23.565-.26.636-.46 1.147-.602 1.534-.117.339-.272.664-.46.97 0 0-.478.763-.75.992l.767-.176 1.474-.322c.493-.1.97-.267 1.42-.495a6.074 6.074 0 0 0 1.314-.88 5.624 5.624 0 0 0 1.046-1.235c.305-.49.527-1.025.657-1.587l-.035-.035a3.195 3.195 0 0 1-1.156 1.392h.005zm1.07-6.753c-.173.4-.344.834-.516 1.305a8.879 8.879 0 0 0-.397 1.481h-.042a3.41 3.41 0 0 1 .084-.44c.05-.19.078-.386.085-.583a3.228 3.228 0 0 0-.213-1.18 6.832 6.832 0 0 0-.496-1.023c-.19-.318-.374-.625-.546-.918a3.085 3.085 0 0 1-.373-.899h-.041c-.043.484-.012.971.092 1.446.11.545.236 1.08.38 1.605.145.524.284 1.006.418 1.445.107.302.174.616.2.934v.495c0 .189-.015.377-.044.564h.025c.248-.444.536-.863.86-1.252.287-.33.553-.677.796-1.04.24-.366.429-.764.562-1.182a5.707 5.707 0 0 0 .21-1.71 4.42 4.42 0 0 0-.17-1.129 8.573 8.573 0 0 0-.283-.916h-.046c-.002.176.005.352.021.528.017.187.024.376.022.564a2.55 2.55 0 0 1-.172.818c-.11.326-.25.688-.417 1.087zm-1.073-2.468c-.139-.353-.441-.74-.906-1.165l-.613-.563a4.776 4.776 0 0 1-.365-.37 3.587 3.587 0 0 1-.227-.283 1.4 1.4 0 0 1-.156-.3h-.036c.047.211.137.552.28 1.023a4.6 4.6 0 0 0 .552 1.24c.395.564.71 1.01.942 1.34.197.272.38.555.546.847.108.19.195.39.26.598.05.185.086.374.105.565h.044c.154-.702.36-1.392.618-2.063a5.09 5.09 0 0 0 .362-1.85 5.347 5.347 0 0 0-.272-1.637 5.911 5.911 0 0 0-1.016-1.79h-.036c.07.188.15.388.244.6.092.21.138.439.137.669 0 .753-.023 1.364-.067 1.834a13.232 13.232 0 0 0-.056 1.91c.01.17.019.358.034.545h-.035a7.636 7.636 0 0 0-.345-1.15h.006zm-1.564-5.6c.14.258.246.533.318.818.082.318.175.688.28 1.111.106.423.265.94.478 1.552v.035a3.8 3.8 0 0 0-.799-1.111 7.983 7.983 0 0 0-.886-.705 9.327 9.327 0 0 1-.818-.618 2.399 2.399 0 0 1-.622-.88h-.036c.137.422.255.758.337 1.004.07.212.153.418.25.618.077.156.178.299.301.423.119.117.273.259.462.423.521.445.971.821 1.35 1.129.372.294.687.654.93 1.06V5.846a3.417 3.417 0 0 0-.602-1.975 2.654 2.654 0 0 0-1.555-1.129v.032c.25.18.46.413.612.682zm-4.082 20.282a2.965 2.965 0 0 1-.583-.052 45.455 45.455 0 0 0-.653-.124v.01a38.805 38.805 0 0 1-1.684-.596c-.66-.235-1.163-.41-1.5-.53a3.068 3.068 0 0 0-1.008-.176c-.346.004-.69.045-1.028.122-.352.077-.607.137-.774.183a10.488 10.488 0 0 0-.742-.183 4.834 4.834 0 0 0-1.022-.122 3.059 3.059 0 0 0-1.003.176c-.341.116-.841.29-1.5.523-.775.28-1.35.478-1.727.595a3.869 3.869 0 0 1-1.656.14 1.79 1.79 0 0 1-.422-.106s-.331-.096-.514-.175c-.183-.079-.409-.182-.672-.301l-.036.035c.377.424 1.239.955 1.239.955a3.87 3.87 0 0 0 1.958.562c.253.002.506-.016.757-.053.23-.037.455-.101.67-.193.221-.094.47-.211.74-.352.27-.14.593-.327.968-.561.4-.258.733-.464 1.003-.615.286-.157.608-.236.934-.23.144 0 .287.025.423.071-.47.256-1.005.565-1.605.926a8.23 8.23 0 0 0-1.745 1.453l.6.529c.521-.616 1.1-1.182 1.727-1.69.617-.502 1.158-.837 1.625-1.005.464.167 1.01.502 1.636 1.005.635.505 1.22 1.07 1.745 1.69l.6-.53a8.011 8.011 0 0 0-1.76-1.452 45.836 45.836 0 0 0-1.623-.926c.15-.041.305-.065.461-.07.327-.007.65.072.938.229.273.151.607.357 1.01.615.353.211.66.391.92.545.23.14.473.257.725.352.214.08.432.144.655.194.228.047.46.07.693.07h.136a4.264 4.264 0 0 0 1.606-.357 4.199 4.199 0 0 0 1.57-1.16v-.036c-.38.182-.769.342-1.166.48a3.01 3.01 0 0 1-.916.135zm7.8-10.234v-.109c0-.035-.007-.11-.014-.164a3.49 3.49 0 0 0-.068-.335 2.9 2.9 0 0 1-.44 1.227 8.326 8.326 0 0 1-.807 1.005l-.056.062c-.302.326-.637.683-1.003 1.07-.434.476-.823.992-1.16 1.541l-.01-.01c.16-.324.297-.66.409-1.005.122-.321.193-.66.21-1.005a3.982 3.982 0 0 0-.053-.681c-.036-.2-.077-.41-.124-.652a8.403 8.403 0 0 1-.175-1.799h-.035a.166.166 0 0 0-.01.023v-.02h-.035c-.17.445-.297.906-.378 1.376A43.84 43.84 0 0 0 26 15.825c-.047.446-.086.83-.122 1.147-.035.318-.073.604-.12.863-.04.241-.104.477-.19.705a7.984 7.984 0 0 1-.245.57c-.019.033-.035.065-.056.097l.015-.008v.012l.876-.58 1.762-1.151c.25-.178.48-.386.681-.618.258-.285.483-.598.67-.933.125-.22.237-.448.335-.682.064-.148.124-.3.178-.457.139-.392.212-.805.215-1.221 0-.024 0-.045-.008-.066zM19.736 3.12c.066.029.129.064.188.105.042.044.082.089.118.137.026.042.072.069.122.07.068 0 .102-.022.102-.07 0-.048 0-.064-.016-.052-.017.012-.018 0-.018-.053a.292.292 0 0 0-.068-.21.262.262 0 0 0-.308-.071.1.1 0 0 0-.069-.036h-.034c-.068 0-.103.025-.103.071 0 .052.036.097.086.11zm-3.738-.846h.07c.137-.05.28-.08.425-.09h.496a.255.255 0 0 0 .213-.089.98.98 0 0 0 .106-.16.664.664 0 0 0-.425-.253 2.699 2.699 0 0 0-.355-.036 2.055 2.055 0 0 0-.424.13c-.237.084-.379.136-.425.165-.12-.025-.19 0-.213.074.06.06.126.115.195.165.099.067.217.1.337.094zM14.93 21.59c5.874 0 10.636-4.762 10.636-10.636C25.567 5.08 20.805.318 14.93.318 9.056.318 4.294 5.08 4.294 10.955c.008 5.87 4.765 10.628 10.637 10.636zM4.84 11.227h1.614c.022.71.134 1.414.333 2.096a.188.188 0 0 1-.123-.086l-.05-.049-.178-.25-.3.104c0 .167-.058.225-.175.179a.202.202 0 0 0-.137-.072.32.32 0 0 0-.338.301 2.935 2.935 0 0 0-.053.41l.248.64c.048.07.119.082.213.034.066.087.138.17.214.25a.247.247 0 0 0 .181.07c.074 0 .11-.035.11-.107h.037c.052.051.101.106.148.162a.78.78 0 0 0 .184.158v-.032c.079.08.186.125.298.126a.885.885 0 0 0 .21.393c.07.08.168.13.273.136a.2.2 0 0 0 .137-.07c.038.128.098.25.177.358a1.67 1.67 0 0 1 .313.214h.07a.623.623 0 0 0 .176.284c.064.067.136.127.213.179l-.022.01h.045c.024.025.048.052.07.078L7.606 17.91a10.07 10.07 0 0 1-2.77-6.682h.005zm7.793-2.986l-.087-.056-.107-.106a3.788 3.788 0 0 1 2.23-.925v1.124a.172.172 0 0 0-.05-.026.202.202 0 0 1-.025-.037h-.013a.136.136 0 0 0-.085-.018H14.445a.331.331 0 0 0-.078.013.285.285 0 0 1-.083.017.086.086 0 0 1-.043-.01c-.035-.025-.052-.078-.052-.162-.096.048-.15.095-.161.137-.011.042-.03.128-.055.247a.265.265 0 0 1-.19.197.592.592 0 0 0-.215.126l-.107-.072h-.18a.506.506 0 0 0-.107-.088.273.273 0 0 1-.07-.053c-.024-.023-.035-.023-.035 0a.09.09 0 0 0-.094.08l-.105-.106.027-.01v-.07a1.664 1.664 0 0 0-.264-.202zm-.582-.546l-1.091-1.09a5.864 5.864 0 0 1 3.7-1.535v1.541a4.332 4.332 0 0 0-2.61 1.086v-.002zm.61 5.12c.056-.056.032-.16.052-.23l-.121.114c.085-.079.157-.17.211-.273.029-.069.064-.134.107-.195h.01c.037.077.079.15.126.222l-.994.994a3.818 3.818 0 0 1-.818-1.598c.086.01.17.034.248.07.078.063.153.13.224.201a.329.329 0 0 0 .136-.034l.136.105c0 .096.011.154.036.178 0 .023.035.053.106.088a.31.31 0 0 1 .153.134l.07-.036a1.298 1.298 0 0 0-.017-.136c-.012-.07 0-.106.018-.106l.065.241.07.284a.209.209 0 0 0 .182-.022v-.001zm2.115 1.127c.06.06.09.101.09.124 0 .071-.096.107-.285.107-.07 0-.118.068-.136.202-.018.133-.048.246-.07.336l-.06-.01v.012a3.78 3.78 0 0 1-1.883-.88l.955-.954c.365.349.837.565 1.34.615a.273.273 0 0 0 .034.15.239.239 0 0 0-.07.176c-.003.024.027.065.085.124v-.002zm-4.715.067a4.327 4.327 0 0 0-.072-.6 2.42 2.42 0 0 0-.107-.319 1.681 1.681 0 0 0-.111-.477 2.06 2.06 0 0 0-.336-.442v-.207a.905.905 0 0 0-.07-.208v-.036a.083.083 0 0 1 .054-.09l.373-.13a.903.903 0 0 1 .037-.327l.257.045c.073 0 .11-.048.11-.146a1.09 1.09 0 0 0-.07-.22.84.84 0 0 1-.072-.256c0-.05.036-.091.105-.128a.473.473 0 0 1 .212-.055.263.263 0 0 1 .246.122c.046.08.07.17.07.263 0 .064-.005.129-.016.192a.766.766 0 0 0-.018.157l.07.035c-.047.233-.137.35-.282.35a.172.172 0 0 1-.158-.09.15.15 0 0 0-.122-.09c-.024 0-.036.012-.036.035 0 .05.012.1.034.144a.39.39 0 0 1 .037.179c0 .166-.075.226-.224.179-.047.09.002.136.148.136.049.136.096.202.147.179a.62.62 0 0 0 .074-.24c.012-.096.037-.19.073-.28l.037.037.147-.037a.52.52 0 0 0 .011.053h.042a4.34 4.34 0 0 0 1.02 2.098l-1.5 1.5a.273.273 0 0 1-.08-.235c.033-.143.179-.233.196-.382 0-.012.036-.282.036-.282-.176-.237-.262-.378-.262-.426zm-.856-2.214a.314.314 0 0 1 .034.136c0 .072-.023.1-.071.09a.048.048 0 0 0-.027 0 5.791 5.791 0 0 1-.093-.794h.294a.383.383 0 0 1-.032.137.897.897 0 0 1-.089.136.235.235 0 0 0-.053.136.31.31 0 0 0 .037.159zm-.157-1.106a5.875 5.875 0 0 1 1.535-3.701l1.091 1.09-.028.036a.89.89 0 0 0-.189.068 3.017 3.017 0 0 0-.158.209 1.58 1.58 0 0 0-.335.177c-.1.086-.19.18-.273.282-.089.047-.18.089-.273.126a.346.346 0 0 0-.124.087c.048.119.048.184 0 .195l-.354.089a.106.106 0 0 0-.071.035l-.105.107a.273.273 0 0 0-.037.124.273.273 0 0 1-.036.124.622.622 0 0 0-.175.177.443.443 0 0 0 0 .32l.043.352h-.015a.7.7 0 0 1 .032.108l-.528-.005zm3 3.527a4.33 4.33 0 0 0 1.886.975c-.05.018-.104.036-.156.05a.285.285 0 0 0-.211.233c-.025.136-.078.233-.161.272-.083.04-.112.09-.087.161.117.12.202.267.247.428a.446.446 0 0 0 .354.32l.213.073a.41.41 0 0 1 .21.078c.063.008.124.016.185.03a5.864 5.864 0 0 1-3.568-1.527l1.088-1.093zM10.583 6.23L9.51 5.155a7.91 7.91 0 0 1 5.153-2.138v1.52a6.41 6.41 0 0 0-4.079 1.693zm-.379.379a6.393 6.393 0 0 0-1.692 4.08H6.99a7.921 7.921 0 0 1 2.138-5.155l1.076 1.075zm-1.692 4.618c.01.263.036.524.079.783a2.214 2.214 0 0 1-.06-.105c-.083-.113-.154-.173-.209-.173a.136.136 0 0 0-.143.088.485.485 0 0 1-.108.16.989.989 0 0 1-.394.177.904.904 0 0 0-.214.426.125.125 0 0 0 .017.136c.036.048.019.096-.054.136.048.091.06.15.037.176.023.048.017.067-.019.055a.078.078 0 0 0-.088.018.23.23 0 0 0-.05.08 7.968 7.968 0 0 1-.316-1.957h1.522zm6.15 9.818a10.055 10.055 0 0 1-6.682-2.77l1.143-1.143a8.455 8.455 0 0 0 5.533 2.296l.006 1.617zm0-2.154a7.91 7.91 0 0 1-5.133-2.114.698.698 0 0 0 .295.078.795.795 0 0 0 .283-.074c.119-.05.225-.1.32-.15a.577.577 0 0 0 .319-.07.484.484 0 0 0 .264 0 .164.164 0 0 0 .124-.178.244.244 0 0 0-.125-.195c-.083-.058-.126-.112-.126-.16 0-.023-.024-.051-.072-.088a1.827 1.827 0 0 1-.23-.254 6.41 6.41 0 0 0 4.078 1.693l.003 1.512zm.286-3.955v-.01a.75.75 0 0 1-.352-.056 1.462 1.462 0 0 1-.035-.093c.053-.04.108-.077.165-.11a.517.517 0 0 1 .222-.09V14.5l.26-.196a.308.308 0 0 1 .092-.034c.069-.02.136-.043.2-.071.096.03.188.072.273.124.086.052.177.094.273.124l.037-.137c.046 0 .117.048.211.137a.352.352 0 0 0 .179-.072.23.23 0 0 0 0-.176.258.258 0 0 1 .105.035.072.072 0 0 1 .053.018.075.075 0 0 0 .053.018h.036a.389.389 0 0 0 .193-.09c.062-.046.127-.087.195-.123a.045.045 0 0 1 .071 0 .2.2 0 0 1 .036.136c-.001.19-.121.36-.3.426-.168.08-.34.15-.514.211a.595.595 0 0 0-.09.16c-.035.083-.075.124-.123.124a2.033 2.033 0 0 1-.435-.071.79.79 0 0 1-.11-.213 1.053 1.053 0 0 0-.256.035l-.29.071a.331.331 0 0 1-.149.011v-.01zm1.534-1.168a.28.28 0 0 1 .178-.23.798.798 0 0 1 .283-.053c0 .071-.065.137-.195.213a1.03 1.03 0 0 1-.23.107l-.036-.037zm1.091-.868a.296.296 0 0 1 .137.273.125.125 0 0 1-.137.137c-.07 0-.136-.082-.176-.249-.166-.046-.26-.122-.283-.229-.023-.106-.013-.17.035-.195a.661.661 0 0 1 .137-.052c.046-.013.058.04.035.159l.252.156zm3.41-5.942a.1.1 0 0 1 .07.035.435.435 0 0 1 .248.071c.165.159.309.337.429.532.023 0 .053.035.088.106.036.071.078.105.126.105a.495.495 0 0 0 .182-.057c.009-.034.015-.064.022-.097a7.91 7.91 0 0 1 .712 3.025h-1.5c0-.01 0-.018.007-.028a.762.762 0 0 0-.083-.394.77.77 0 0 1-.05-.522.53.53 0 0 0 .018-.3.215.215 0 0 0-.136.034.573.573 0 0 0-.09.16 5.13 5.13 0 0 1-.089.195v.019a.282.282 0 0 0-.026.067.327.327 0 0 1-.035.088c-.025.094-.05.188-.072.283a.697.697 0 0 0 0 .282v.109h-.758a.451.451 0 0 1 .162-.108h-.026l.207-.105a.11.11 0 0 1-.07-.103c0-.07.012-.11.035-.123.023-.012.091-.041.207-.087.077-.102.14-.213.188-.33.09-.198.273-.482.273-.704 0-.055-.071-.126-.08-.184.002-.051.008-.102.019-.152.01-.25.111-.681-.206-.758-.025 0-.037-.034-.037-.103a.248.248 0 0 0 .073-.273h-.218a.32.32 0 0 1 .053-.126.308.308 0 0 0 .056-.16.097.097 0 0 0-.109-.107.394.394 0 0 0-.181.037.299.299 0 0 1-.165.035l-.055-.075a.545.545 0 0 0-.156-.346.66.66 0 0 0-.284-.209l-.011-.012a.239.239 0 0 0 0-.151l.3-.299.434.167a.273.273 0 0 0 .111.248c.047.04.097.075.15.106.059.039.116.081.17.128v.02c.047.048.083.072.114.072l-.018-.011zm-1.461 10.295a.124.124 0 0 0-.089-.035c-.037 0-.053-.022-.053-.071 0-.05.036-.093.106-.137a.511.511 0 0 0 .18-.246.555.555 0 0 0 .071-.213.083.083 0 0 0-.053-.089.316.316 0 0 1-.127-.088 2.591 2.591 0 0 0-.16-.07 1.06 1.06 0 0 1-.194-.108.205.205 0 0 1-.107-.176.779.779 0 0 1 .054-.177c.01-.031.024-.063.038-.095l.079-.07.818.818c0 .094.057.149.165.167l.091.09a8.182 8.182 0 0 1-.915.735.295.295 0 0 1 .06-.093.177.177 0 0 1 .041-.029.18.18 0 0 0 .006-.102l-.011-.01zm-.494-3.892a.252.252 0 0 0-.21.048.316.316 0 0 0-.215.21.033.033 0 0 1-.037.036.32.32 0 0 0-.136.035c-.061.02-.12.043-.178.07-.07 0-.106-.022-.106-.07 0-.07.106-.119.32-.136.093-.116.15-.186.174-.209a.41.41 0 0 1 .165-.07.79.79 0 0 0 .272-.26.858.858 0 0 0 .137-.225h.032c0 .116.05.173.15.173.073 0 .135-.082.185-.244.095.036.195.06.297.071a.273.273 0 0 0 .259-.136h.443c0 .01 0 .021-.01.032a5.9 5.9 0 0 1-1.207 2.14l-.012-.108c-.008.011-.105-.323-.128-.323-.023 0-.1.083-.167.248a4.344 4.344 0 0 1-.137.318l-.354.07c-.104.025-.211.037-.318.036a.88.88 0 0 1-.3-.124.937.937 0 0 0-.301-.124 2.59 2.59 0 0 0-.302-.07c-.13-.024-.195-.058-.195-.106 0-.07.048-.108.137-.108.095.01.19.027.283.054.137.035.282.072.424.106.142.034.273.072.39.106.07.025.14.042.213.054l.213-.071a.432.432 0 0 1 .07-.194.436.436 0 0 0 .073-.195c.061-.124.107-.255.136-.39.034-.139.053-.281.056-.424.003-.116-.034-.186-.105-.209l-.01-.01zm.95-2.134h.835a6.02 6.02 0 0 1-.136 1.037 1.16 1.16 0 0 0-.18-.318l-.288-.284c-.023-.117-.042-.199-.053-.247a.288.288 0 0 0-.05-.084.592.592 0 0 1-.127-.104zm.34 4.331c-.07 0-.106.018-.106.053a1.39 1.39 0 0 1-.034.22l-.527-.528a6.4 6.4 0 0 0 1.5-2.749l.026-.023c.12.047.198.047.234 0a.218.218 0 0 0 .053-.105.484.484 0 0 0-.176-.28h-.045a6.42 6.42 0 0 0 .105-.921h1.522a7.92 7.92 0 0 1-2.143 5.154l-.065-.065v-.015a8.506 8.506 0 0 0-.076-.478c-.03-.155-.12-.263-.268-.263zm-.375-7.677v.008a.595.595 0 0 1-.035.179 1.5 1.5 0 0 1-.071.176c.078.099.174.183.282.248.113.075.22.157.32.248.07.129.124.266.159.41.041.121.07.247.088.374a.83.83 0 0 1-.106.25.41.41 0 0 1-.353.214l-.036-.036a.522.522 0 0 1 .07-.21.528.528 0 0 0 .072-.208.286.286 0 0 0 .137-.21l-.107-.054a1.111 1.111 0 0 1-.176-.156c0-.07-.072-.105-.212-.105a.286.286 0 0 0-.178.054c-.047.034-.106.077-.177.123l-.07-.136a.344.344 0 0 0 .035-.15l-.283-.474a1.165 1.165 0 0 0-.39-.124.634.634 0 0 0-.283.011.682.682 0 0 1-.273-.016.36.36 0 0 0-.282.09 1.244 1.244 0 0 0-.235.229c-.035.044.015.1-.091.079a.494.494 0 0 1-.087-.093l1.607-1.607a.35.35 0 0 0 .037.051 2 2 0 0 1 .136.16c.05.059.101.123.152.187.136.152.25.317.356.488h-.006zM16.091 18.5c.134.107.289.187.454.234a7.962 7.962 0 0 1-1.344.161v-1.52a.955.955 0 0 0 .226.24c.1.033.205.05.31.053.16.011.24.041.24.087a.31.31 0 0 1-.054.16.32.32 0 0 0-.053.16.53.53 0 0 0 .221.425zm-.892 2.544v-1.611c.592-.02 1.181-.1 1.757-.243a.222.222 0 0 1 .021.079c.139.088.259.201.354.335.046.095.175.137.388.137.119 0 .195-.023.23-.071a1.42 1.42 0 0 1 .125-.136.47.47 0 0 1 .177-.107.226.226 0 0 0 .136-.105.457.457 0 0 0 .249-.213.642.642 0 0 0 .21-.282.194.194 0 0 0 .137-.088 1.09 1.09 0 0 0 .137-.371l.061-.037c0-.018 0-.036.01-.053a8.56 8.56 0 0 0 1.536-1.142l1.143 1.144a10.055 10.055 0 0 1-6.67 2.764zm7.056-3.136l-1.143-1.144a8.455 8.455 0 0 0 2.295-5.538h1.619a10.064 10.064 0 0 1-2.771 6.682zm2.77-7.214h-1.618a8.429 8.429 0 0 0-1.636-4.734.47.47 0 0 0-.082-.147.477.477 0 0 0-.092-.082 17.07 17.07 0 0 0-.409-.487.536.536 0 0 1-.042-.115l1.111-1.112a10.06 10.06 0 0 1 2.769 6.67v.007zM15.2.864a10.055 10.055 0 0 1 6.682 2.77l-.985.984a.895.895 0 0 1-.055-.149c-.078-.072-.129-.112-.148-.112a.273.273 0 0 1-.165-.22.382.382 0 0 0-.088-.227.645.645 0 0 1-.356-.32c-.096-.161-.19-.243-.284-.243a.308.308 0 0 1-.232-.026.725.725 0 0 0-.232-.063.762.762 0 0 0-.248.036 2.56 2.56 0 0 1-.272.07.304.304 0 0 0-.036.036 8.408 8.408 0 0 0-3.455-.914c.094-.147.105-.244.035-.29-.02-.02-.074.01-.155.086L15.199.864zm0 2.154c1.147.04 2.271.328 3.295.846v.023c.042.043.088.095.136.155.04.048.08.093.124.137.028.107.063.212.107.315.031.06.067.118.106.174a.387.387 0 0 0 .053.297c.058.104.123.204.195.298.046-.003.091-.009.136-.018.059-.01.118-.016.178-.018.047 0 .1.036.16.107a.674.674 0 0 1 .153.328l-.433.434A2.396 2.396 0 0 0 19.2 5.5a.342.342 0 0 0-.28-.09 6.459 6.459 0 0 1-.245-.305c-.14-.18-.223-.273-.246-.273a.145.145 0 0 0-.107.035c.02.044.044.086.071.126.023.037.071.114.137.234a.063.063 0 0 1-.071.071.23.23 0 0 0 .177.18l-.036.07.104.207a6.393 6.393 0 0 0-3.511-1.227l.005-1.51zm0 2.058a5.864 5.864 0 0 1 3.7 1.534L17.808 7.7a4.323 4.323 0 0 0-2.612-1.09l.003-1.534zm0 2.08a3.77 3.77 0 0 1 2.11.827.25.25 0 0 0-.074.04.326.326 0 0 1-.07.05c-.025.011-.036.04-.036.083 0 .044.079.08.136.09l-.417.418a.787.787 0 0 0-.158.111c-.097.048-.15.09-.163.126-.012.035-.02.067-.034.123l-.136.136a.2.2 0 0 1-.06.008c-.048 0-.121-.048-.217-.144-.095-.097-.168-.137-.217-.137a.217.217 0 0 0-.162.055.102.102 0 0 1-.127.018c-.048-.05 0-.103.162-.163.163-.06.26-.102.309-.127a.682.682 0 0 0 .282-.58c0-.12-.05-.18-.146-.18l-.108.102a.974.974 0 0 0-.255.172c-.072.068-.136.125-.18.173a.492.492 0 0 0-.217-.037h-.212l-.011.01.001-1.175zm-.313 2.435c.017.035.04.054.064.054a.273.273 0 0 1 .171.056.22.22 0 0 0 .183.024c.006.025.02.048.04.065.025.051.08.08.136.075.016.014.03.03.044.046a.181.181 0 0 1 .022.039.862.862 0 0 0 .057.125h.015c0 .01.008.02.013.029a.146.146 0 0 0 .115.019.136.136 0 0 1 .089.008v.08h.021a.712.712 0 0 0 .015.086.766.766 0 0 1 .018.157v.071a.033.033 0 0 1-.037.035.295.295 0 0 0-.113.21c0 .047.03.065.093.052a.113.113 0 0 1 .136.053.273.273 0 0 1 .075.21v.314a.116.116 0 0 0 .055.106c.034.024.053.047.053.07a1.203 1.203 0 0 1-.037.263.445.445 0 0 1-.106.227c-.025.023-.086.023-.183 0a1.115 1.115 0 0 0-.255-.035c-.049 0-.098.07-.146.21-.044.104-.08.21-.11.32-.025.094-.073.136-.146.136a.593.593 0 0 0-.146.018l-.022.013-.12.191-.038.052a1.728 1.728 0 0 1-1.07-.47l.184-.182c.116-.014.23-.041.34-.08l.062-.025c.19-.083.172-.236.273-.4.06-.11.238-.23.095-.353.16-.272-.578-.282-.708-.22-.152.073-.054.235-.136.358-.042.064-.11.066-.168.11a.92.92 0 0 0-.273.367 1.76 1.76 0 0 1-.12-.272.056.056 0 0 1 .028 0c-.014-.029-.02-.05-.01-.06h.025v.035c.094.023.154.023.177 0 .021-.064.039-.129.053-.195.05-.145.116-.285.195-.417a.158.158 0 0 1-.084-.106c-.011-.048-.039-.06-.082-.037a.117.117 0 0 0-.068.107.209.209 0 0 1-.066.137.198.198 0 0 1-.136.07.094.094 0 0 0-.107-.106.209.209 0 0 0-.136.071c-.048 0-.16.013-.337.036a.75.75 0 0 1-.335 0c-.048-.047.012-.094.177-.137a.49.49 0 0 1 .177-.428.535.535 0 0 0 .212.071l.07-.07h.036c.071 0 .112.06.124.178.012.118.041.178.089.178a.202.202 0 0 0 .136-.07v-.172c.047-.19.082-.32.105-.393v-.108a.56.56 0 0 1 .112-.173h.04a.363.363 0 0 1 .163-.076.565.565 0 0 0 .072-.218c.071-.024.195-.073.373-.146.177-.074.272-.145.272-.217v-.02c.08-.016.16-.028.24-.033a.149.149 0 0 0 .05.087zM14.662.864V2.48a8.455 8.455 0 0 0-5.534 2.296L7.986 3.632A10.055 10.055 0 0 1 14.662.864zM7.605 4.01L8.75 5.155a8.455 8.455 0 0 0-2.295 5.534H4.836a10.066 10.066 0 0 1 2.77-6.678z"/>
    </g>
</svg>
