<?xml version="1.0" encoding="UTF-8"?>
<svg width="18px" height="18px" viewBox="0 0 18 18" version="1.1" xmlns="http://www.w3.org/2000/svg" xmlns:xlink="http://www.w3.org/1999/xlink">
    <!-- Generator: Sketch 52.3 (67297) - http://www.bohemiancoding.com/sketch -->
    <title>search</title>
    <desc>Created with Sketch.</desc>
    <g id="Page-1" stroke="none" stroke-width="1" fill="none" fill-rule="evenodd">
        <g id="search" fill="#00ADEF" fill-rule="nonzero">
            <path d="M17.802,16.85 L12.107,11.155 C13.7774323,9.11335163 14.1228091,6.29227486 12.9942367,3.90795184 C11.8656643,1.52362882 9.46492843,0.00237052133 6.827,-7.58282326e-16 C3.05655201,-9.88822612e-16 -1.05415181e-15,3.05655201 -1.51589852e-15,6.827 C-1.97764522e-15,10.597448 3.05655201,13.654 6.827,13.654 C8.40422258,13.657195 9.93337507,13.1112964 11.152,12.11 L16.846,17.802 C17.0162371,17.972773 17.2646489,18.0397533 17.4976611,17.9777101 C17.7306733,17.915667 17.9128859,17.7340262 17.9756611,17.5012101 C18.0384363,17.2683941 17.9722371,17.019773 17.802,16.849 L17.802,16.85 Z M6.827,12.294 C3.80753436,12.2917965 1.3598597,9.84546398 1.356,6.826 C1.35985655,3.80604901 3.80704901,1.35885655 6.827,1.355 C9.84766578,1.3588553 12.2955927,3.80633497 12.3,6.827 C12.2950397,9.84639738 9.8474002,12.2922476 6.828,12.295 L6.827,12.294 Z" id="Shape"></path>
        </g>
    </g>
</svg>