<svg xmlns="http://www.w3.org/2000/svg" width="665" height="61" viewBox="0 0 665 61">
    <g fill="none" fill-rule="evenodd">
        <path d="M211.945 3.024h1V57.76h-1z"/>
        <path fill="#00A1D9" fill-rule="nonzero" d="M7.366 17.014a126.67 126.67 0 0 0 3.198-2.663c.449-.387.818-.721 1.095-.997a3.87 3.87 0 0 0 .719-.997 11.9 11.9 0 0 0 .587-1.456l.804-2.374h-.086a5.68 5.68 0 0 1-1.477 2.08 22.074 22.074 0 0 1-1.932 1.455 18.106 18.106 0 0 0-2.104 1.666 8.863 8.863 0 0 0-1.899 2.624v-.085c.501-1.443.884-2.663 1.135-3.66.25-.997.474-1.876.659-2.624.17-.683.423-1.344.752-1.968a5.167 5.167 0 0 1 1.47-1.567v-.086a6.316 6.316 0 0 0-3.693 2.663A8.05 8.05 0 0 0 5.17 13.69v5.818a9.23 9.23 0 0 1 2.196-2.493zm3.957-7.116a27.926 27.926 0 0 0 2.13-2.453c.66-.833 1.26-1.62 1.84-2.368.587-.746 1.25-1.43 1.978-2.04l-.086-.085a4.75 4.75 0 0 1-1.893.983c-.835.262-1.635.625-2.38 1.083a8.406 8.406 0 0 0-2.427 2.374 14.76 14.76 0 0 0-1.978 4.782 16.272 16.272 0 0 0 2.816-2.276zM1.939 31.654a24.446 24.446 0 0 0 1.873 2.454c.771.92 1.453 1.91 2.037 2.958h.086a8.293 8.293 0 0 1-.106-1.312v-1.187a8.716 8.716 0 0 1 .475-2.204c.317-1.023.66-2.165.99-3.411.33-1.246.659-2.512.903-3.785.248-1.119.322-2.269.217-3.41H8.31a7.07 7.07 0 0 1-.884 2.118L6.106 26.04c-.46.77-.855 1.578-1.18 2.414-.34.89-.51 1.835-.501 2.787.016.463.08.922.191 1.371.09.343.155.691.198 1.043h-.06a20.489 20.489 0 0 0-.942-3.483 64.265 64.265 0 0 0-1.22-3.076 39.665 39.665 0 0 1-1.023-2.584 6.085 6.085 0 0 1-.408-1.916c0-.55 0-.997.052-1.312.053-.314.053-.754.053-1.252H1.18c-.263.707-.483 1.43-.659 2.164-.25.867-.385 1.762-.402 2.663-.043 1.35.122 2.7.488 4.001.31.99.758 1.93 1.332 2.794zm15.207 22.55c.304.031.61.045.916.04.42.002.838-.024 1.253-.079.39-.059.897-.137 1.504-.249a37.756 37.756 0 0 0 2.387-.544c.976-.25 2.268-.564 3.884-.958a51.778 51.778 0 0 1-2.757-.787 6.263 6.263 0 0 1-2.34-1.443c-.95-.826-1.893-1.686-2.843-2.571-.738-.656-1.517-1.312-2.262-2.007-.21-.19-1.319-1.155-1.628-1.47l-.08.086c.126.196 1.154 2.256 1.154 2.256s.165.223.231.341c.277.492.554.99.825 1.49.105.196.21.393.31.59a4.54 4.54 0 0 0 1.424 1.606 9.08 9.08 0 0 0 3.515 1.739v.085l-1.8-.289c-.495-.085-.944-.15-1.32-.21-.375-.059-.81-.092-1.226-.124-.416-.033-1.009-.06-1.504-.131-.494-.073-.778-.138-1.18-.178l-1.154-.13-.607-.073a13.743 13.743 0 0 1-2.097-.374 7.275 7.275 0 0 1-1.892-.787 11.863 11.863 0 0 1-2.018-1.541l-.086.085c.328.56.708 1.09 1.134 1.58.522.605 1.098 1.16 1.721 1.66a9.937 9.937 0 0 0 2.48 1.437c1.058.42 2.166.705 3.297.846l.759.105zM4.122 28.159h.105c.044-.443.126-.882.244-1.311.156-.491.363-.964.62-1.41.39-.679.818-1.336 1.28-1.968.553-.774 1.298-1.828 2.235-3.162.582-.9 1.026-1.882 1.319-2.912.33-1.109.554-1.909.66-2.407h-.087a3.326 3.326 0 0 1-.376.701 8.352 8.352 0 0 1-.534.656c-.274.306-.565.597-.87.873-.356.334-.838.78-1.444 1.312a7.975 7.975 0 0 0-2.15 2.748c-.349.89-.624 1.807-.824 2.742h-.073c0-.44.06-.873.08-1.312.019-.44 0-.958 0-1.627 0-.826-.054-1.797-.166-2.912-.112-1.115-.151-2.545-.151-4.323a3.8 3.8 0 0 1 .33-1.58c.22-.499.41-.971.573-1.417h-.06a13.97 13.97 0 0 0-2.406 4.237 12.467 12.467 0 0 0-.66 3.863c.017 1.489.312 2.962.87 4.343a35.448 35.448 0 0 1 1.485 4.866zm8.71 21.554l3.496.793 1.82.414a14.646 14.646 0 0 1-1.78-2.381 11.863 11.863 0 0 1-1.089-2.29 109.74 109.74 0 0 0-1.43-3.614 10.757 10.757 0 0 0-.541-1.311 26.264 26.264 0 0 0-.66-1.2c-.257-.42-.56-.886-.923-1.418-.363-.53-.824-1.18-1.385-1.967l-.086.085c.165.551.403 1.555.713 2.991.31 1.436.593 2.8.877 4.08.165.95.55 1.848 1.127 2.623a14.678 14.678 0 0 0 2.295 2.454l-.086.085a7.43 7.43 0 0 1-2.018-1.312 14.762 14.762 0 0 0-3.026-1.915 45.307 45.307 0 0 1-4.999-2.788 7.474 7.474 0 0 1-2.73-3.28l-.086.08c.31 1.312.83 2.565 1.543 3.712a13.294 13.294 0 0 0 2.486 2.912c.943.823 1.989 1.52 3.113 2.073 1.066.538 2.2.932 3.37 1.174zm-7.82-8.573l6.199 4.08a18.245 18.245 0 0 1-.7-1.581 9.419 9.419 0 0 1-.468-1.66 33.311 33.311 0 0 1-.283-2.04 305.44 305.44 0 0 1-.284-2.702c-.217-1.83-.409-3.24-.574-4.244a17.563 17.563 0 0 0-.896-3.246h-.093c.01.8-.03 1.599-.118 2.394a16.13 16.13 0 0 1-.337 1.836 19.77 19.77 0 0 0-.33 1.535 9.135 9.135 0 0 0-.125 1.62c.044.817.227 1.62.541 2.375.293.814.636 1.61 1.029 2.38l-.08.086a24.202 24.202 0 0 0-2.802-3.7L3.179 35.61a19.14 19.14 0 0 1-1.926-2.375A6.792 6.792 0 0 1 .21 30.323a6.737 6.737 0 0 0-.158.794 5.99 5.99 0 0 0-.053.787c.006.974.176 1.94.501 2.86.32.942.74 1.848 1.253 2.702a13.49 13.49 0 0 0 1.629 2.217 8.702 8.702 0 0 0 1.629 1.456zM55.848 5.064c.58.747 1.2 1.541 1.84 2.374a29.962 29.962 0 0 0 2.13 2.453c.852.872 1.8 1.645 2.83 2.302a14.76 14.76 0 0 0-1.98-4.781 8.374 8.374 0 0 0-2.44-2.368 10.577 10.577 0 0 0-2.38-1.109 4.922 4.922 0 0 1-1.886-.997l-.086.086a13.727 13.727 0 0 1 1.972 2.06v-.02zm5.48 44.982a7.493 7.493 0 0 1-1.892.794c-.692.173-1.395.298-2.104.374l-.6.065-1.16.132c-.396.045-.779.118-1.175.177-.395.059-1.009.105-1.503.137-.495.033-.818.066-1.227.125a51.98 51.98 0 0 0-1.319.203c-.461.079-1.088.184-1.8.289v-.079a9.079 9.079 0 0 0 3.482-1.758 4.598 4.598 0 0 0 1.385-1.6l.31-.59c.27-.499.547-.99.824-1.483.07-.118.147-.232.23-.34 0 0 1.03-2.06 1.155-2.264l-.08-.085a35.021 35.021 0 0 1-1.628 1.476c-.745.656-1.523 1.312-2.262 2.007-.95.879-1.893 1.738-2.842 2.565a6.289 6.289 0 0 1-2.302 1.45c-.778.248-1.694.51-2.756.786 1.616.387 2.915.709 3.884.958a33.83 33.83 0 0 0 3.89.787c.416.06.835.088 1.254.085.33 0 .66 0 .916-.04l.798-.084a13.418 13.418 0 0 0 3.297-.847c.89-.36 1.725-.844 2.48-1.436a13.231 13.231 0 0 0 1.767-1.68c.429-.489.808-1.018 1.135-1.58l-.139-.052a12.115 12.115 0 0 1-2.018 1.508zm4.689-7.025a46.416 46.416 0 0 1-4.999 2.788 14.228 14.228 0 0 0-3.027 1.915 7.6 7.6 0 0 1-2.018 1.312l-.085-.085a15.204 15.204 0 0 0 2.295-2.453 6.234 6.234 0 0 0 1.127-2.624c.286-1.272.578-2.63.877-4.073.31-1.443.548-2.44.713-2.998l-.086-.072c-.56.78-1.022 1.43-1.385 1.968s-.66.997-.923 1.41c-.264.413-.475.82-.673 1.214-.21.424-.39.862-.54 1.311a101.225 101.225 0 0 0-1.432 3.621c-.28.797-.644 1.563-1.088 2.283-.514.839-1.11 1.625-1.78 2.348l1.82-.38 3.495-.761a13.553 13.553 0 0 0 3.37-1.207 14.6 14.6 0 0 0 3.112-2.073c.96-.843 1.793-1.82 2.473-2.9a12.59 12.59 0 0 0 1.556-3.744l-.085-.086a7.486 7.486 0 0 1-2.717 3.286zm2.565-15.932a35.72 35.72 0 0 0-1.253 3.083 20.658 20.658 0 0 0-.943 3.496h-.079c.043-.352.109-.7.198-1.043.114-.449.18-.908.198-1.37a7.612 7.612 0 0 0-.502-2.788 16.42 16.42 0 0 0-1.18-2.414c-.448-.748-.884-1.47-1.319-2.158a7.194 7.194 0 0 1-.883-2.125h-.086a11.092 11.092 0 0 0 .217 3.41c.255 1.277.557 2.539.904 3.785s.677 2.383.989 3.41c.252.712.412 1.453.475 2.205v1.167c0 .44-.036.878-.106 1.312h.073a18.586 18.586 0 0 1 2.044-2.951 25.22 25.22 0 0 0 1.873-2.454 11.243 11.243 0 0 0 1.358-2.794c.373-1.311.542-2.671.502-4.034a10.28 10.28 0 0 0-.403-2.663A18.423 18.423 0 0 0 70 20h-.098c0 .498 0 .918.053 1.246.052.328.052.774.052 1.312a6.157 6.157 0 0 1-.408 1.915c-.297.813-.64 1.68-1.016 2.617zm-2.539-5.824a7.962 7.962 0 0 0-2.15-2.742l-1.45-1.312a16.66 16.66 0 0 1-.864-.879 8.372 8.372 0 0 1-.534-.656 3.103 3.103 0 0 1-.376-.734h-.086c.112.498.336 1.312.66 2.413.294 1.03.739 2.011 1.318 2.913.937 1.312 1.682 2.38 2.236 3.161.461.633.888 1.29 1.28 1.968.255.45.463.924.619 1.417.119.43.2.868.244 1.312h.106a34.036 34.036 0 0 1 1.464-4.867c.559-1.39.852-2.872.863-4.369a12.54 12.54 0 0 0-.66-3.87 13.867 13.867 0 0 0-2.406-4.197h-.086c.165.439.356.911.574 1.41a3.82 3.82 0 0 1 .33 1.58c0 1.78-.053 3.223-.159 4.33a31.14 31.14 0 0 0-.158 2.912v1.62c0 .413.046.846.08 1.312h-.08a17.775 17.775 0 0 0-.798-2.722h.033zm-3.726-13.23c.33.623.582 1.284.752 1.968.191.747.416 1.62.66 2.623.244 1.004.626 2.217 1.134 3.66v.086a8.988 8.988 0 0 0-1.9-2.624 18.594 18.594 0 0 0-2.103-1.66 23.241 23.241 0 0 1-1.939-1.456 5.804 5.804 0 0 1-1.464-2.105h-.085c.336.997.606 1.784.804 2.368.161.498.357.985.587 1.456.183.367.423.704.712.997.284.282.66.61 1.101.997a147.782 147.782 0 0 0 3.199 2.663c.87.7 1.605 1.55 2.17 2.512v-5.825a8.05 8.05 0 0 0-1.425-4.657 6.29 6.29 0 0 0-3.686-2.663v.086a5.259 5.259 0 0 1 1.483 1.574zM52.63 55.917a6.893 6.893 0 0 1-1.378-.164l-1.55-.289a59.255 59.255 0 0 1-1.688-.57c-.633-.224-1.411-.5-2.308-.834l-3.568-1.206a7.415 7.415 0 0 0-2.393-.38c-.822.01-1.64.107-2.44.288a48.94 48.94 0 0 0-1.834.433c-.35-.105-.93-.25-1.76-.433a11.739 11.739 0 0 0-2.42-.289 7.289 7.289 0 0 0-2.381.413c-.811.276-1.978.656-3.554 1.24-1.84.656-3.205 1.128-4.096 1.404a9.278 9.278 0 0 1-3.93.328 4.55 4.55 0 0 1-1.002-.25s-.785-.23-1.22-.413l-1.596-.754-.08.079c.891.854 1.876 1.607 2.935 2.243a9.223 9.223 0 0 0 4.616 1.312c.6.002 1.2-.04 1.794-.125a6.913 6.913 0 0 0 1.59-.46 23.54 23.54 0 0 0 1.754-.826 39.83 39.83 0 0 0 2.301-1.311c.89-.538 1.74-1.096 2.38-1.457a4.504 4.504 0 0 1 2.216-.537c.34.003.679.059 1.003.164a113.4 113.4 0 0 0-3.786 2.23 19.463 19.463 0 0 0-4.134 3.424l1.418 1.246a30.135 30.135 0 0 1 4.134-4.014 14.019 14.019 0 0 1 3.851-2.375c1.4.587 2.7 1.389 3.852 2.375a29 29 0 0 1 4.167 4l1.425-1.246a19.025 19.025 0 0 0-4.208-3.41 76.006 76.006 0 0 0-3.85-2.191c.357-.094.724-.15 1.094-.164a4.53 4.53 0 0 1 2.222.538c.646.363 1.444.848 2.394 1.456l2.183 1.279c.549.326 1.125.604 1.72.833.51.185 1.03.339 1.557.46.54.108 1.09.163 1.642.163h.337a10.182 10.182 0 0 0 3.811-.833 10.02 10.02 0 0 0 3.726-2.742v-.111c-.9.43-1.825.806-2.77 1.128a7.005 7.005 0 0 1-2.176.335v.013zm18.504-24.145v-.255a3.66 3.66 0 0 0-.04-.387c-.039-.25-.092-.512-.158-.794a6.85 6.85 0 0 1-1.035 2.906 20.76 20.76 0 0 1-1.912 2.368l-.139.144-2.38 2.525a24.333 24.333 0 0 0-2.75 3.634c.388-.765.717-1.559.982-2.375a7.593 7.593 0 0 0 .501-2.367 9.898 9.898 0 0 0-.125-1.627 53.253 53.253 0 0 0-.297-1.535c-.151-.557-.25-1.213-.33-1.87a19.45 19.45 0 0 1-.144-2.393h-.066v.052-.046h-.086a17.563 17.563 0 0 0-.897 3.28c-.158.997-.356 2.414-.574 4.237a187.333 187.333 0 0 1-.283 2.709 38.401 38.401 0 0 1-.284 2.04c-.1.554-.25 1.099-.448 1.627-.165.426-.363.878-.587 1.311-.04.08-.086.151-.132.23h.033l2.077-1.37 4.181-2.716a8.913 8.913 0 0 0 1.629-1.457 12.15 12.15 0 0 0 1.59-2.197c.294-.526.559-1.07.79-1.627.152-.347.297-.701.422-1.075a8.72 8.72 0 0 0 .502-2.867c-.033-.02-.04-.065-.04-.118v.013zM46.82 7.268c.158.067.309.15.449.249.098.104.19.213.277.328.063.1.171.164.29.17.158 0 .244-.059.244-.17 0-.112 0-.151-.04-.125-.04.026-.046 0-.046-.125a.654.654 0 0 0-.158-.491.662.662 0 0 0-.732-.171.244.244 0 0 0-.158-.079h-.126c-.158 0-.244.053-.244.164 0 .112.093.197.244.25zm-8.882-2.02h.171a3.856 3.856 0 0 1 1.01-.21h1.173a.602.602 0 0 0 .508-.21c.096-.119.18-.246.25-.38a1.59 1.59 0 0 0-1.009-.591 6.397 6.397 0 0 0-.837-.085 5.157 5.157 0 0 0-1.01.308c-.56.197-.896.328-1.008.387-.284-.06-.448 0-.501.177.141.14.293.27.455.387.236.155.515.231.798.216zm-2.526 45.605c10.208.003 19.412-6.112 23.32-15.491a25.004 25.004 0 0 0-5.466-27.358C46.05.824 35.194-1.326 25.762 2.559c-9.43 3.885-15.58 13.039-15.58 23.192.014 13.855 11.3 25.084 25.23 25.102zM11.468 26.387h3.838c.053 1.676.319 3.337.791 4.946a.468.468 0 0 1-.29-.203l-.119-.118-.422-.59-.699.255c0 .387-.138.531-.415.42a.489.489 0 0 0-.337-.17.76.76 0 0 0-.804.708c-.062.318-.104.64-.125.964l.586 1.509c.12.17.284.196.508.085.163.201.34.392.528.57a.589.589 0 0 0 .428.171.232.232 0 0 0 .264-.256h.086c.123.12.24.248.35.38.126.145.272.271.435.374v-.078c.188.19.444.298.712.301.08.347.25.666.494.925a.945.945 0 0 0 .66.341.489.489 0 0 0 .336-.17c.09.303.23.59.416.846.146.074.286.157.422.25.12.073.232.16.336.255h.171c.079.251.222.477.416.656.154.157.324.298.508.42h-.053.106c.059.065.112.13.17.19l-2.71 2.696a23.673 23.673 0 0 1-6.587-15.677zm18.464-7.038a2.139 2.139 0 0 0-.218-.13l-.257-.257a9.066 9.066 0 0 1 5.276-2.184v2.657a.39.39 0 0 0-.112-.066.42.42 0 0 1-.066-.085.311.311 0 0 0-.205-.046.464.464 0 0 0-.092 0 .782.782 0 0 0-.185 0 .663.663 0 0 1-.197.04.192.192 0 0 1-.106 0c-.08-.06-.119-.178-.119-.381-.23.111-.356.223-.382.334-.026.112-.073.302-.125.584a.618.618 0 0 1-.429.453c-.188.063-.36.163-.508.295l-.257-.164h-.422a1.08 1.08 0 0 0-.257-.21.66.66 0 0 1-.165-.125c-.053-.056-.08-.056-.08 0a.205.205 0 0 0-.223.184l-.251-.243h.066v-.196a3.746 3.746 0 0 0-.66-.46h-.026zm-1.378-1.311l-2.579-2.565a13.946 13.946 0 0 1 8.771-3.62v3.627a10.29 10.29 0 0 0-6.166 2.584l-.026-.026zm1.477 12.134c.132-.131.073-.374.125-.538l-.29.263c.203-.19.373-.411.501-.656.066-.162.15-.316.25-.46.093.178.199.355.304.525l-2.354 2.342a8.891 8.891 0 0 1-1.978-3.772c.202.027.4.082.587.164.187.147.363.307.527.48.12-.001.238-.03.343-.086l.336.256a.653.653 0 0 0 .086.413c0 .059.086.125.257.21a.81.81 0 0 1 .343.288l.165-.078a2.61 2.61 0 0 0-.04-.335c0-.164 0-.25.04-.25l.165.585.171.656c.146.072.318.07.462-.007zm5.018 2.624c.139.137.205.236.205.288 0 .17-.224.25-.66.25-.171 0-.283.164-.343.478-.059.315-.112.584-.164.794h-.139v.033a9.076 9.076 0 0 1-4.47-2.073l2.274-2.263c.875.821 2 1.327 3.198 1.437a.614.614 0 0 0 .08.354.556.556 0 0 0-.165.413c-.027.06.04.158.184.289zm-11.21.157a11.857 11.857 0 0 0-.172-1.423 6.83 6.83 0 0 0-.257-.755 3.918 3.918 0 0 0-.264-1.128 4.79 4.79 0 0 0-.797-1.043v-.485a2.11 2.11 0 0 0-.165-.485v-.086a.197.197 0 0 1 .132-.216l.883-.302c-.02-.259.01-.519.086-.767l.613.105c.172 0 .257-.112.257-.348a2.81 2.81 0 0 0-.164-.518 1.81 1.81 0 0 1-.172-.604c0-.118.086-.216.25-.301a1.12 1.12 0 0 1 .502-.131.66.66 0 0 1 .587.288c.111.2.168.427.165.656 0 .152-.013.303-.04.453-.03.12-.045.243-.046.367l.171.085c-.114.551-.334.827-.66.827a.409.409 0 0 1-.349-.25.35.35 0 0 0-.29-.21c-.053 0-.079 0-.079.086a.83.83 0 0 0 .08.34c.062.132.091.276.085.42 0 .394-.178.532-.528.42-.118.21 0 .315.343.315.119.341.238.48.356.427.096-.177.155-.371.172-.571.033-.224.09-.444.171-.656l.093.085.35-.085a.692.692 0 0 0 0 .125h.098a10.139 10.139 0 0 0 2.447 4.958l-3.575 3.53a.595.595 0 0 1-.19-.552c.072-.34.415-.55.46-.905l.087-.656a3.44 3.44 0 0 1-.614-1.003l-.026-.007zM21.8 27.706c.057.1.087.213.086.328 0 .17-.053.242-.172.21h-.059a13.704 13.704 0 0 1-.224-1.89h.725a.908.908 0 0 1-.072.342 3.12 3.12 0 0 1-.211.334.55.55 0 0 0-.132.328.816.816 0 0 0 .086.374l-.027-.026zm-.37-2.624a13.835 13.835 0 0 1 3.667-8.684l2.599 2.558-.073.085c-.155.037-.305.09-.448.158-.112.137-.231.295-.37.492-.281.108-.55.249-.798.42a4.722 4.722 0 0 0-.659.655c-.336.17-.547.263-.66.295a.772.772 0 0 0-.296.204c.112.282.112.433 0 .459l-.844.21a.27.27 0 0 0-.165.085l-.25.25a.653.653 0 0 0-.086.294.614.614 0 0 1-.086.289 1.572 1.572 0 0 0-.416.42c-.099.242-.099.512 0 .754l.106.833h-.04c.034.083.058.168.073.256l-1.253-.033zm7.15 8.37a10.373 10.373 0 0 0 4.477 2.295l-.37.125a.657.657 0 0 0-.507.544c-.053.335-.178.551-.376.656-.198.105-.264.21-.211.38.279.282.48.63.587 1.01.108.395.438.69.844.755l.501.17c.18.016.354.08.501.184.145 0 .29.04.435.072a13.931 13.931 0 0 1-8.46-3.633l2.578-2.558zM25.097 14.6l-2.545-2.539a18.833 18.833 0 0 1 12.22-5.044v3.588a15.25 15.25 0 0 0-9.675 3.995zm-.896.898a15.045 15.045 0 0 0-4.016 9.623h-3.608A18.63 18.63 0 0 1 21.65 12.96l2.552 2.538zm-4.016 10.888c.028.62.094 1.238.197 1.85a2.83 2.83 0 0 1-.138-.25c-.198-.268-.37-.406-.495-.406a.336.336 0 0 0-.343.21 1.089 1.089 0 0 1-.257.374c-.274.207-.592.35-.93.42-.259.281-.435.629-.507 1.003a.287.287 0 0 0 .04.335c.085.111.039.223-.126.334.112.223.138.361.086.42.052.112.04.151-.047.125a.199.199 0 0 0-.21.04.518.518 0 0 0-.12.19 18.341 18.341 0 0 1-.758-4.645h3.608zm14.586 23.18a23.937 23.937 0 0 1-15.826-6.559l2.71-2.702a20.09 20.09 0 0 0 13.123 5.418l-.007 3.843zm0-5.083a18.827 18.827 0 0 1-12.166-4.998c.204.106.429.168.66.184.228-.017.452-.078.659-.177a7.51 7.51 0 0 0 .758-.355c.263.018.526-.038.758-.164.216.059.444.059.66 0a.394.394 0 0 0 .296-.42.577.577 0 0 0-.296-.459c-.205-.137-.304-.262-.304-.373 0-.112-.052-.125-.171-.21a4.757 4.757 0 0 1-.54-.604 15.243 15.243 0 0 0 9.673 3.988l.013 3.588zm.66-9.314a1.816 1.816 0 0 1-.831-.131c0-.072-.06-.144-.086-.223.126-.094.258-.18.396-.256.153-.114.332-.189.52-.216v-.236l.62-.466a.728.728 0 0 1 .218-.079c.163-.044.322-.101.475-.17.231.071.453.17.66.295.205.125.427.222.659.288l.086-.334c.112 0 .277.111.5.334a.827.827 0 0 0 .423-.164.574.574 0 0 0 0-.42.735.735 0 0 1 .25.086.159.159 0 0 1 .126.046c.035.028.08.042.125.04h.086a.932.932 0 0 0 .461-.21c.148-.11.302-.208.462-.296a.106.106 0 0 1 .165 0c.07.097.1.216.086.335a1.07 1.07 0 0 1-.713 1.003c-.396.19-.803.356-1.22.499a1.578 1.578 0 0 0-.21.38c-.08.197-.179.289-.29.289a4.931 4.931 0 0 1-1.036-.145 1.715 1.715 0 0 1-.257-.505A2.797 2.797 0 0 0 36.5 35l-.692.17a.822.822 0 0 1-.356 0h-.02zm3.64-2.755a.656.656 0 0 1 .422-.544c.21-.081.434-.123.66-.125 0 .164-.159.335-.462.499-.17.108-.354.192-.547.249l-.073-.079zm2.605-2.046c.236.13.37.39.336.656a.294.294 0 0 1-.336.334c-.172 0-.31-.197-.422-.584-.396-.111-.614-.295-.66-.544-.046-.25 0-.4.086-.46a2.33 2.33 0 0 1 .336-.124c.112 0 .139.099.086.374l.574.348zm8.11-14.024a.238.238 0 0 1 .172.086c.208-.006.413.05.587.164.39.373.732.794 1.016 1.252.06 0 .125.086.21.256.087.17.185.25.298.25.152-.019.3-.066.435-.138 0-.079 0-.151.053-.23a18.618 18.618 0 0 1 1.688 7.137h-3.561a.196.196 0 0 1 0-.066 1.776 1.776 0 0 0-.198-.931 1.808 1.808 0 0 1-.119-1.234c.08-.225.096-.468.046-.701a.496.496 0 0 0-.296.111 1.382 1.382 0 0 0-.218.374c-.08.197-.152.348-.204.46v.045a.654.654 0 0 0-.066.157.654.654 0 0 1-.086.21c-.06.223-.112.446-.172.656a1.71 1.71 0 0 0 0 .656v.256h-1.82a1.03 1.03 0 0 1 .39-.256h-.06l.488-.243a.269.269 0 0 1-.165-.249c0-.164 0-.262.086-.288.086-.027.211-.099.488-.204.183-.24.333-.502.448-.78.317-.51.54-1.072.66-1.66 0-.13-.172-.295-.191-.433.004-.12.017-.241.04-.36 0-.584.27-1.6-.489-1.784-.06 0-.086-.086-.086-.25a.575.575 0 0 0 .172-.656h-.534a.746.746 0 0 1 .125-.295.732.732 0 0 0 .132-.374.222.222 0 0 0-.257-.23.92.92 0 0 0-.429.086.662.662 0 0 1-.396.085l-.112-.17a1.309 1.309 0 0 0-.382-.84 1.642 1.642 0 0 0-.66-.472.542.542 0 0 0 0-.354l.66-.761 1.022.367c-.02.227.08.448.264.584.112.091.231.175.356.25.14.09.275.191.402.3v.047c.125.118.211.17.264.17zm-3.461 24.322a.291.291 0 0 0-.211-.086c-.086 0-.125-.052-.125-.164 0-.111.085-.223.257-.334a1.26 1.26 0 0 0 .422-.584c.089-.166.14-.35.151-.538a.19.19 0 0 0-.131-.203.89.89 0 0 1-.297-.21 3.386 3.386 0 0 0-.376-.164 2.794 2.794 0 0 1-.462-.256.485.485 0 0 1-.257-.42c.028-.141.07-.28.125-.413 0-.072.06-.15.093-.223l.191-.164 1.939 1.929c0 .223.138.347.395.393l.211.21c-.678.63-1.403 1.21-2.17 1.732a.734.734 0 0 1 .146-.217.37.37 0 0 1 .099-.065.392.392 0 0 0 0-.223zm-1.167-9.183a.59.59 0 0 0-.515.085.743.743 0 0 0-.507.492c0 .053-.033.079-.086.079a.795.795 0 0 0-.337.085 3.082 3.082 0 0 0-.422.17c-.164 0-.25-.058-.25-.17 0-.111.25-.275.758-.334.216-.272.354-.436.416-.492a.959.959 0 0 1 .389-.164 1.81 1.81 0 0 0 .66-.61c.131-.16.238-.34.316-.532h.079c0 .27.119.407.35.407.23 0 .322-.19.441-.577.228.085.465.142.706.17a.66.66 0 0 0 .613-.321h1.029a.365.365 0 0 0 0 .079v.065a13.944 13.944 0 0 1-2.816 4.998v-.256s-.25-.76-.303-.76c-.053 0-.244.196-.403.583-.158.387-.263.656-.316.748l-.844.17a3.25 3.25 0 0 1-.752.086 2.124 2.124 0 0 1-.712-.295 2.275 2.275 0 0 0-.719-.289 5.187 5.187 0 0 0-.712-.17c-.31-.053-.462-.138-.462-.25 0-.111.112-.249.336-.249.224.02.445.062.66.125l1.009.249.923.25c.163.056.33.098.501.124l.508-.164c.017-.164.073-.322.165-.46a.968.968 0 0 0 .171-.458c.143-.292.248-.6.31-.919.085-.328.131-.665.139-1.003-.066-.308-.159-.492-.323-.492zm2.229-5.064h1.978a14.122 14.122 0 0 1-.33 2.44 2.758 2.758 0 0 0-.428-.748l-.66-.655c-.06-.276-.099-.473-.132-.584a.7.7 0 0 0-.112-.197 1.362 1.362 0 0 1-.316-.289v.033zm.817 10.187c-.171 0-.25.045-.25.124a4.523 4.523 0 0 1-.08.518l-1.252-1.24a15.062 15.062 0 0 0 3.547-6.493l.06-.052c.281.105.466.105.554 0a.497.497 0 0 0 .125-.25 1.134 1.134 0 0 0-.415-.656h-.106c.134-.717.218-1.442.25-2.17h3.608a18.63 18.63 0 0 1-5.071 12.154l-.159-.151v-.033c-.052-.387-.112-.761-.184-1.128-.073-.368-.29-.623-.627-.623zm-.89-18.11a1.306 1.306 0 0 1-.086.42 4.354 4.354 0 0 1-.165.42c.185.23.408.428.66.583.266.176.52.371.758.584.167.304.293.628.376.964.1.287.171.584.211.886a1.995 1.995 0 0 1-.25.59.996.996 0 0 1-.838.505l-.086-.085c.019-.174.075-.342.165-.492.09-.153.149-.323.172-.499a.656.656 0 0 0 .336-.492l-.257-.124a2.91 2.91 0 0 1-.416-.374c0-.164-.171-.243-.5-.243a.662.662 0 0 0-.423.125c-.136.103-.276.2-.422.288l-.165-.334a.816.816 0 0 0 .086-.348l-.66-1.121c-.287-.152-.6-.25-.923-.289a1.531 1.531 0 0 0-.66 0c-.219.036-.444.025-.659-.033a.873.873 0 0 0-.705.25 2.894 2.894 0 0 0-.554.544c-.086.098 0 .236-.218.183a1.19 1.19 0 0 1-.21-.223l3.837-3.784a.873.873 0 0 0 .092.124l.337.374c.119.138.237.289.356.446.29.371.56.757.811 1.155zm-9.153 25.056c.317.253.683.44 1.075.55a18.87 18.87 0 0 1-3.185.381v-3.588c.142.22.323.41.534.564.238.081.487.123.738.125.376.033.568.098.568.21a.784.784 0 0 1-.126.374.771.771 0 0 0-.132.38c.008.399.203.77.528 1.004zm-2.11 6.014V45.75a20.195 20.195 0 0 0 4.174-.57.398.398 0 0 1 0 .078.294.294 0 0 1 0 .105c.33.207.614.477.837.794.113.223.423.334.924.334.283 0 .461-.052.547-.164a2.7 2.7 0 0 1 .297-.334c.116-.117.259-.204.415-.256a.514.514 0 0 0 .337-.25 1.08 1.08 0 0 0 .593-.498 1.53 1.53 0 0 0 .501-.656.449.449 0 0 0 .337-.203c.164-.27.278-.568.336-.879l.145-.085a.815.815 0 0 1 0-.125 20.487 20.487 0 0 0 3.62-2.696l2.71 2.703a23.938 23.938 0 0 1-15.773 6.52zm16.736-7.431l-2.717-2.696a19.859 19.859 0 0 0 5.447-13.053h3.832a23.699 23.699 0 0 1-6.562 15.749zm6.562-17.014h-3.832a19.8 19.8 0 0 0-3.877-11.151 1.015 1.015 0 0 0-.191-.348 1.218 1.218 0 0 0-.218-.19c-.31-.4-.66-.78-.982-1.154a1.138 1.138 0 0 1-.106-.27l2.638-2.623a23.712 23.712 0 0 1 6.568 15.736zM36.052 1.968a23.904 23.904 0 0 1 15.826 6.559l-2.334 2.322a1.765 1.765 0 0 1-.132-.354c-.185-.164-.303-.263-.35-.263a.656.656 0 0 1-.382-.531.883.883 0 0 0-.211-.538 1.527 1.527 0 0 1-.844-.735c-.224-.38-.448-.577-.66-.577a.709.709 0 0 1-.547-.059 1.781 1.781 0 0 0-.547-.15 1.988 1.988 0 0 0-.594.085 5.61 5.61 0 0 1-.66.164l-.085.085a20.031 20.031 0 0 0-8.197-2.204c.218-.348.25-.577.08-.656-.047-.046-.172 0-.363.203V1.968zm0 5.077c2.717.088 5.382.76 7.814 1.967a.19.19 0 0 0 0 .06c.099.098.211.222.336.367.126.144.238.275.29.328.063.247.142.49.238.728.076.143.162.281.257.413a.895.895 0 0 0 .125.702c.137.245.29.48.462.702l.336-.04c.137-.029.276-.044.416-.046a.554.554 0 0 1 .382.25c.129.148.227.32.29.505.038.087.062.18.073.275l-1.029 1.023a5.589 5.589 0 0 0-.5-1.384.8.8 0 0 0-.66-.216c-.06-.053-.25-.295-.587-.715-.337-.42-.528-.656-.587-.656a.33.33 0 0 0-.25.085c.05.102.108.2.17.295l.337.551a.15.15 0 0 1-.171.17c.046.21.21.375.422.42l-.086.165.244.492a15.22 15.22 0 0 0-8.322-2.9V7.045zm0 4.86a13.934 13.934 0 0 1 8.79 3.594l-2.578 2.565a10.29 10.29 0 0 0-6.192-2.558l-.02-3.601zm0 4.9c1.829.132 3.573.82 4.998 1.967a.535.535 0 0 0-.171.099.66.66 0 0 1-.172.118c-.052.026-.079.092-.079.196 0 .138.185.19.317.21l-.99.938c-.136.07-.263.158-.375.263-.231.111-.356.21-.39.295-.032.085-.045.157-.078.288l-.33.328a.517.517 0 0 1-.145 0c-.112 0-.284-.111-.515-.34-.23-.23-.402-.335-.514-.335a.51.51 0 0 0-.382.124.238.238 0 0 1-.297.033c-.112-.111 0-.236.382-.38.383-.144.62-.243.732-.295.43-.313.676-.816.66-1.345 0-.282-.112-.426-.343-.426l-.257.242a2.13 2.13 0 0 0-.6.4l-.43.407a1.153 1.153 0 0 0-.513-.085h-.502l-.006-2.702zm-.745 5.745c.04.086.092.132.151.132a.662.662 0 0 1 .41.13c.127.082.284.1.428.053a.321.321 0 0 0 .099.158.31.31 0 0 0 .323.177l.099.105c.02.028.038.059.052.091.04.101.087.2.139.296h.033v.072a.358.358 0 0 0 .27.04.318.318 0 0 1 .211 0v.183h.053a1.18 1.18 0 0 0 0 .203c.025.123.038.248.04.374v.164a.078.078 0 0 1-.086.085.694.694 0 0 0-.27.492c0 .112.072.151.224.125a.264.264 0 0 1 .316.124c.126.133.19.31.178.492v.748c-.006.1.042.195.126.25.085.052.125.104.125.163a2.721 2.721 0 0 1-.086.617c-.03.2-.117.386-.25.538-.062.052-.207.052-.436 0a2.797 2.797 0 0 0-.606-.086c-.112 0-.231.171-.343.499a5.483 5.483 0 0 0-.264.754c-.053.223-.171.335-.343.335-.115 0-.23.013-.343.04h.053l-.284.452-.092.118a4.053 4.053 0 0 1-2.545-1.102l.441-.44c.276-.038.548-.102.812-.19l.145-.059c.448-.197.408-.557.659-.944.145-.256.567-.545.23-.833.377-.656-1.37-.656-1.68-.519-.31.138-.133.558-.324.847-.099.15-.264.15-.396.255-.289.23-.515.527-.659.866a4.251 4.251 0 0 1-.284-.656h.066c-.033-.065-.046-.118 0-.137h.086v.085c.218.052.363.052.416 0 .053-.152.095-.308.125-.466.121-.34.276-.667.461-.977a.387.387 0 0 1-.197-.256c0-.112-.093-.138-.198-.085a.282.282 0 0 0-.158.255.49.49 0 0 1-.159.335.456.456 0 0 1-.33.164.222.222 0 0 0-.25-.25.489.489 0 0 0-.336.171c-.112 0-.376 0-.798.079a1.67 1.67 0 0 1-.798 0c-.112-.105 0-.223.422-.335a1.15 1.15 0 0 1 .35-.944c.155.09.328.149.507.17l.165-.17h.086c.165 0 .264.144.29.426.026.282.099.42.21.42a.476.476 0 0 0 .337-.17v-.433c.112-.453.198-.761.25-.932V24.4c.064-.152.153-.292.265-.413h.098a.813.813 0 0 1 .39-.177c.09-.16.146-.336.164-.518.172-.053.462-.171.884-.342.422-.17.66-.34.66-.511v-.046a4.07 4.07 0 0 1 .567-.079c.009.079.044.153.099.21v.026zm-.535-20.582v3.784a20.156 20.156 0 0 0-13.122 5.399l-2.71-2.696a23.905 23.905 0 0 1 15.832-6.487zm-16.73 7.398l2.71 2.696a19.911 19.911 0 0 0-5.446 13.06h-3.838a23.692 23.692 0 0 1 6.574-15.756z"/>
        <path fill="#000" fill-rule="nonzero" d="M110.127 10.606l.152 2.092a6.357 6.357 0 0 1 5.222-2.42c1.926 0 3.357.558 4.3 1.686.943 1.128 1.418 2.807 1.444 5.044v11.675h-4.853V17.126c.077-.8-.159-1.6-.66-2.23a3.011 3.011 0 0 0-2.235-.695 3.34 3.34 0 0 0-3.073 1.738v12.744h-4.854V10.606h4.557zM125.743 5.903a2.361 2.361 0 0 1 .732-1.784 3.159 3.159 0 0 1 3.956 0c.497.46.77 1.11.752 1.784a2.348 2.348 0 0 1-.745 1.804 3.119 3.119 0 0 1-3.957 0 2.355 2.355 0 0 1-.738-1.804zm5.156 22.754h-4.866v-18.05h4.866v18.05zM140.923 6.166v4.44h3.106v3.542h-3.106v9.019c-.047.51.089 1.021.382 1.443.414.337.947.493 1.478.433a7.73 7.73 0 0 0 1.43-.118v3.66a10.1 10.1 0 0 1-2.94.433c-3.403 0-5.138-1.71-5.204-5.13v-9.74h-2.637v-3.542h2.637v-4.44h4.854zM117.823 57.766a5.35 5.35 0 0 1-.488-1.62 5.897 5.897 0 0 1-4.616 1.968 6.477 6.477 0 0 1-4.425-1.541 4.921 4.921 0 0 1-1.761-3.877 5.1 5.1 0 0 1 2.143-4.408c1.431-1.023 3.489-1.541 6.192-1.554h2.23v-1.05a2.935 2.935 0 0 0-.66-2 2.527 2.527 0 0 0-2.038-.754 2.932 2.932 0 0 0-1.925.583 1.963 1.963 0 0 0-.66 1.607h-4.853c0-1.047.34-2.066.969-2.905a6.445 6.445 0 0 1 2.756-2.1 10.11 10.11 0 0 1 4.01-.76 7.988 7.988 0 0 1 5.322 1.679 5.888 5.888 0 0 1 1.978 4.723v7.831a8.565 8.565 0 0 0 .719 3.89v.288h-4.893zm-4.016-3.325c.689.006 1.369-.158 1.978-.479a3.11 3.11 0 0 0 1.319-1.312v-3.102h-1.814c-2.426 0-3.719.835-3.877 2.505v.282c-.007.568.234 1.11.66 1.49a2.507 2.507 0 0 0 1.734.616zM130.715 35.249v4.44h3.106v3.542h-3.106v9.02c-.046.509.092 1.018.389 1.436.41.341.946.498 1.477.432.477.007.954-.03 1.424-.111v3.653c-.95.291-1.94.44-2.934.44-3.407 0-5.144-1.71-5.21-5.13v-9.74h-2.638V39.69h2.638v-4.44h4.854zM136.043 35.013a2.361 2.361 0 0 1 .732-1.784 3.159 3.159 0 0 1 3.957 0 2.542 2.542 0 0 1 0 3.587 3.119 3.119 0 0 1-3.957 0 2.355 2.355 0 0 1-.732-1.803zm5.157 22.753h-4.867V39.69h4.867v18.077zM143.996 48.538a10.571 10.571 0 0 1 1.042-4.789 7.564 7.564 0 0 1 2.994-3.28 8.808 8.808 0 0 1 4.543-1.114 8.308 8.308 0 0 1 6.008 2.243 8.943 8.943 0 0 1 2.591 6.074l.033 1.24c0 2.772-.778 4.995-2.334 6.67-3.5 3.345-9.03 3.345-12.53 0-1.565-1.675-2.345-3.946-2.34-6.815l-.007-.23zm4.853.347a6.727 6.727 0 0 0 .97 3.936 3.508 3.508 0 0 0 2.773 1.356c1.085 0 2.11-.501 2.773-1.356.66-.901.989-2.337.989-4.31a6.669 6.669 0 0 0-.99-3.935 3.224 3.224 0 0 0-2.789-1.384 3.184 3.184 0 0 0-2.756 1.377c-.646.978-.97 2.408-.97 4.336v-.02zM167.973 39.69l.152 2.085a6.357 6.357 0 0 1 5.223-2.42c1.925 0 3.363.564 4.3 1.686.936 1.121 1.424 2.807 1.443 5.05v11.675h-4.853V46.203c.076-.8-.16-1.599-.66-2.23a3.018 3.018 0 0 0-2.242-.683 3.334 3.334 0 0 0-3.073 1.738v12.738h-4.853V39.69h4.563zM192.162 52.768a1.54 1.54 0 0 0-.877-1.39 9.823 9.823 0 0 0-2.83-.912c-4.325-.905-6.486-2.733-6.482-5.483a4.95 4.95 0 0 1 1.979-4.015 8.122 8.122 0 0 1 5.308-1.613 8.784 8.784 0 0 1 5.533 1.62 5.093 5.093 0 0 1 2.07 4.21h-4.853a2.354 2.354 0 0 0-.66-1.711 2.852 2.852 0 0 0-2.103-.656 2.92 2.92 0 0 0-1.9.551c-.427.34-.67.86-.659 1.404a1.474 1.474 0 0 0 .765 1.312c.8.432 1.671.72 2.572.852 1.039.195 2.062.467 3.06.814 2.563.93 3.844 2.551 3.844 4.86a4.722 4.722 0 0 1-2.13 4 9.27 9.27 0 0 1-5.539 1.49 9.686 9.686 0 0 1-4.056-.813 6.76 6.76 0 0 1-2.796-2.191 5.124 5.124 0 0 1-1.008-3.044h4.616a2.52 2.52 0 0 0 .956 1.968c.7.478 1.54.71 2.387.656a3.49 3.49 0 0 0 2.104-.525c.453-.314.716-.835.699-1.384zM162.592 19.513c0-2.82.635-5.063 1.906-6.73a6.191 6.191 0 0 1 5.216-2.505 5.565 5.565 0 0 1 4.379 1.968V3.024h4.873v25.66h-4.385l-.23-1.923a5.742 5.742 0 0 1-4.67 2.257 6.184 6.184 0 0 1-5.15-2.513c-1.293-1.679-1.939-4.01-1.939-6.992zm4.854.361a7.105 7.105 0 0 0 .89 3.896 2.9 2.9 0 0 0 2.585 1.352 3.24 3.24 0 0 0 3.172-1.89V16.09a3.194 3.194 0 0 0-3.14-1.89c-2.338 0-3.507 1.892-3.507 5.674zM102.28 4.362v16.017c0 2.663-.838 4.769-2.513 6.317-1.675 1.548-3.961 2.322-6.858 2.322-2.853 0-5.12-.752-6.799-2.257-1.68-1.504-2.537-3.57-2.572-6.198V4.362h5.038v16.05c0 1.592.383 2.753 1.148 3.483a4.46 4.46 0 0 0 3.185 1.095c2.835 0 4.275-1.48 4.32-4.44V4.362h5.05zM103.658 57.766H98.62l-9.806-16.004v16.004h-5.065V33.452h5.038l9.82 16.03v-16.03h5.024zM153.848 29.018a8.193 8.193 0 0 1-6.278-2.506 8.925 8.925 0 0 1-2.348-6.356V19.5a9.805 9.805 0 0 1 2.223-6.624 7.41 7.41 0 0 1 5.935-2.591c2.444 0 4.346.734 5.704 2.204 1.358 1.469 2.035 3.456 2.031 5.962v2.624h-10.808l-.033.098a4.63 4.63 0 0 0 1.2 2.925 3.743 3.743 0 0 0 2.895 1.148 9.471 9.471 0 0 0 2.697-.321 12.524 12.524 0 0 0 2.354-1.03l1.32 3.01a8.992 8.992 0 0 1-2.909 1.503c-1.286.417-2.63.623-3.983.61zm-.435-14.988a2.563 2.563 0 0 0-2.15 1.056 5.36 5.36 0 0 0-.976 2.716l.053.085h6.007v-.433a3.881 3.881 0 0 0-.719-2.5 2.645 2.645 0 0 0-2.215-.924z"/>
        <text fill="#4D4D4D" font-family="Roboto, Roboto Condensed" font-size="20" font-style="condensed" font-weight="bold" letter-spacing=".767">
            <tspan x="229.5" y="27">Department of Economic and Social Affairs</tspan>
        </text>
        <text fill="#4D4D4D" font-family="Roboto, Roboto Condensed" font-size="20" font-style="condensed" letter-spacing=".767">
            <tspan x="229.5" y="51">Sustainable Development</tspan>
        </text>
        <path stroke="#000" d="M212.5 0v60"/>
    </g>
</svg>
